G04 #@! TF.GenerationSoftware,KiCad,Pcbnew,5.0.2+dfsg1-1~bpo9+1*
G04 #@! TF.CreationDate,2019-07-05T15:14:41-03:00*
G04 #@! TF.ProjectId,FonteAssimetrica,466f6e74-6541-4737-9369-6d6574726963,rev?*
G04 #@! TF.SameCoordinates,Original*
G04 #@! TF.FileFunction,Copper,L2,Bot*
G04 #@! TF.FilePolarity,Positive*
%FSLAX46Y46*%
G04 Gerber Fmt 4.6, Leading zero omitted, Abs format (unit mm)*
G04 Created by KiCad (PCBNEW 5.0.2+dfsg1-1~bpo9+1) date Fri 05 Jul 2019 03:14:41 PM -03*
%MOMM*%
%LPD*%
G01*
G04 APERTURE LIST*
G04 #@! TA.AperFunction,ComponentPad*
%ADD10C,1.400000*%
G04 #@! TD*
G04 #@! TA.AperFunction,ComponentPad*
%ADD11O,1.400000X1.400000*%
G04 #@! TD*
G04 #@! TA.AperFunction,ComponentPad*
%ADD12R,1.300000X1.050000*%
G04 #@! TD*
G04 #@! TA.AperFunction,ComponentPad*
%ADD13O,1.300000X1.050000*%
G04 #@! TD*
G04 #@! TA.AperFunction,ComponentPad*
%ADD14O,1.050000X1.300000*%
G04 #@! TD*
G04 #@! TA.AperFunction,ComponentPad*
%ADD15R,1.050000X1.300000*%
G04 #@! TD*
G04 #@! TA.AperFunction,ComponentPad*
%ADD16R,1.500000X1.500000*%
G04 #@! TD*
G04 #@! TA.AperFunction,ComponentPad*
%ADD17O,1.500000X1.500000*%
G04 #@! TD*
G04 #@! TA.AperFunction,ComponentPad*
%ADD18R,1.800000X1.800000*%
G04 #@! TD*
G04 #@! TA.AperFunction,ComponentPad*
%ADD19C,1.800000*%
G04 #@! TD*
G04 #@! TA.AperFunction,ComponentPad*
%ADD20O,1.700000X1.700000*%
G04 #@! TD*
G04 #@! TA.AperFunction,ComponentPad*
%ADD21R,1.700000X1.700000*%
G04 #@! TD*
G04 #@! TA.AperFunction,ComponentPad*
%ADD22C,1.600000*%
G04 #@! TD*
G04 #@! TA.AperFunction,ComponentPad*
%ADD23R,1.600000X1.600000*%
G04 #@! TD*
G04 #@! TA.AperFunction,ComponentPad*
%ADD24C,4.500880*%
G04 #@! TD*
G04 #@! TA.AperFunction,ComponentPad*
%ADD25R,4.500880X4.500880*%
G04 #@! TD*
G04 #@! TA.AperFunction,ComponentPad*
%ADD26C,2.999740*%
G04 #@! TD*
G04 #@! TA.AperFunction,ComponentPad*
%ADD27R,2.999740X2.999740*%
G04 #@! TD*
G04 #@! TA.AperFunction,ComponentPad*
%ADD28R,2.500000X3.500000*%
G04 #@! TD*
G04 #@! TA.AperFunction,ComponentPad*
%ADD29O,2.500000X3.500000*%
G04 #@! TD*
G04 #@! TA.AperFunction,ComponentPad*
%ADD30O,2.000000X1.905000*%
G04 #@! TD*
G04 #@! TA.AperFunction,ComponentPad*
%ADD31R,2.000000X1.905000*%
G04 #@! TD*
G04 #@! TA.AperFunction,ComponentPad*
%ADD32C,2.500000*%
G04 #@! TD*
G04 #@! TA.AperFunction,ComponentPad*
%ADD33C,3.000000*%
G04 #@! TD*
G04 #@! TA.AperFunction,Conductor*
%ADD34C,1.000000*%
G04 #@! TD*
G04 #@! TA.AperFunction,Conductor*
%ADD35C,3.000000*%
G04 #@! TD*
G04 #@! TA.AperFunction,Conductor*
%ADD36C,1.700000*%
G04 #@! TD*
G04 #@! TA.AperFunction,Conductor*
%ADD37C,2.000000*%
G04 #@! TD*
G04 #@! TA.AperFunction,Conductor*
%ADD38C,0.254000*%
G04 #@! TD*
G04 APERTURE END LIST*
D10*
G04 #@! TO.P,R7,1*
G04 #@! TO.N,Net-(Q3-Pad2)*
X72390000Y-85090000D03*
D11*
G04 #@! TO.P,R7,2*
G04 #@! TO.N,Net-(J3-Pad1)*
X77470000Y-85090000D03*
G04 #@! TD*
D12*
G04 #@! TO.P,Q2,1*
G04 #@! TO.N,Net-(Q1-Pad1)*
X36830000Y-55880000D03*
D13*
G04 #@! TO.P,Q2,3*
G04 #@! TO.N,VDC*
X36830000Y-60960000D03*
G04 #@! TO.P,Q2,2*
G04 #@! TO.N,Net-(Q2-Pad2)*
X36830000Y-58420000D03*
G04 #@! TD*
D14*
G04 #@! TO.P,Q3,2*
G04 #@! TO.N,Net-(Q3-Pad2)*
X72390000Y-68580000D03*
G04 #@! TO.P,Q3,3*
G04 #@! TO.N,GND*
X69850000Y-68580000D03*
D15*
G04 #@! TO.P,Q3,1*
G04 #@! TO.N,Net-(D4-Pad2)*
X74930000Y-68580000D03*
G04 #@! TD*
D16*
G04 #@! TO.P,D4,1*
G04 #@! TO.N,VDC*
X83820000Y-59690000D03*
D17*
G04 #@! TO.P,D4,2*
G04 #@! TO.N,Net-(D4-Pad2)*
X76200000Y-59690000D03*
G04 #@! TD*
D18*
G04 #@! TO.P,D5,1*
G04 #@! TO.N,GND*
X63500000Y-69850000D03*
D19*
G04 #@! TO.P,D5,2*
G04 #@! TO.N,Net-(D5-Pad2)*
X63500000Y-67310000D03*
G04 #@! TD*
D10*
G04 #@! TO.P,R6,1*
G04 #@! TO.N,Net-(D4-Pad2)*
X74930000Y-63500000D03*
D11*
G04 #@! TO.P,R6,2*
G04 #@! TO.N,Net-(D5-Pad2)*
X69850000Y-63500000D03*
G04 #@! TD*
D20*
G04 #@! TO.P,JP1,2*
G04 #@! TO.N,Net-(JP1-Pad2)*
X64770000Y-45720000D03*
D21*
G04 #@! TO.P,JP1,1*
G04 #@! TO.N,Vout*
X62230000Y-45720000D03*
G04 #@! TD*
G04 #@! TO.P,J3,1*
G04 #@! TO.N,Net-(J3-Pad1)*
X82550000Y-85090000D03*
D20*
G04 #@! TO.P,J3,2*
G04 #@! TO.N,GND*
X85090000Y-85090000D03*
G04 #@! TD*
D22*
G04 #@! TO.P,C1,2*
G04 #@! TO.N,GND*
X44450000Y-34330000D03*
D23*
G04 #@! TO.P,C1,1*
G04 #@! TO.N,VDC*
X44450000Y-36830000D03*
G04 #@! TD*
G04 #@! TO.P,C5,1*
G04 #@! TO.N,Vout*
X62230000Y-50800000D03*
D22*
G04 #@! TO.P,C5,2*
G04 #@! TO.N,GND*
X62230000Y-53300000D03*
G04 #@! TD*
G04 #@! TO.P,C6,2*
G04 #@! TO.N,GND*
X55880000Y-75010000D03*
G04 #@! TO.P,C6,1*
G04 #@! TO.N,Net-(C6-Pad1)*
X55880000Y-80010000D03*
G04 #@! TD*
G04 #@! TO.P,C4,1*
G04 #@! TO.N,Vout*
X54610000Y-49530000D03*
G04 #@! TO.P,C4,2*
G04 #@! TO.N,GND*
X54610000Y-54530000D03*
G04 #@! TD*
G04 #@! TO.P,C3,1*
G04 #@! TO.N,Net-(C3-Pad1)*
X41910000Y-67310000D03*
G04 #@! TO.P,C3,2*
G04 #@! TO.N,GND*
X36910000Y-67310000D03*
G04 #@! TD*
G04 #@! TO.P,C2,2*
G04 #@! TO.N,GND*
X52070000Y-34370000D03*
G04 #@! TO.P,C2,1*
G04 #@! TO.N,VDC*
X52070000Y-39370000D03*
G04 #@! TD*
D24*
G04 #@! TO.P,J2,2*
G04 #@! TO.N,GND*
X85090000Y-72390000D03*
D25*
G04 #@! TO.P,J2,1*
G04 #@! TO.N,Vl*
X85090000Y-66040000D03*
G04 #@! TD*
G04 #@! TO.P,J1,1*
G04 #@! TO.N,GND*
X36830000Y-33020000D03*
D24*
G04 #@! TO.P,J1,2*
G04 #@! TO.N,VDC*
X36830000Y-39370000D03*
G04 #@! TD*
D26*
G04 #@! TO.P,RV1,3*
G04 #@! TO.N,Net-(C6-Pad1)*
X48260000Y-85090000D03*
G04 #@! TO.P,RV1,2*
G04 #@! TO.N,Net-(RV1-Pad1)*
X44450000Y-85090000D03*
D27*
G04 #@! TO.P,RV1,1*
X40640000Y-85090000D03*
G04 #@! TD*
G04 #@! TO.P,RV2,1*
G04 #@! TO.N,GND*
X60960000Y-85090000D03*
D26*
G04 #@! TO.P,RV2,2*
X57150000Y-85090000D03*
G04 #@! TO.P,RV2,3*
G04 #@! TO.N,Net-(RV1-Pad1)*
X53340000Y-85090000D03*
G04 #@! TD*
D17*
G04 #@! TO.P,D2,2*
G04 #@! TO.N,Net-(C6-Pad1)*
X50800000Y-81280000D03*
D16*
G04 #@! TO.P,D2,1*
G04 #@! TO.N,Vout*
X50800000Y-73660000D03*
G04 #@! TD*
G04 #@! TO.P,D3,1*
G04 #@! TO.N,GND*
X62230000Y-59690000D03*
D17*
G04 #@! TO.P,D3,2*
G04 #@! TO.N,Vout*
X54610000Y-59690000D03*
G04 #@! TD*
D19*
G04 #@! TO.P,D1,2*
G04 #@! TO.N,Net-(D1-Pad2)*
X64770000Y-34290000D03*
D18*
G04 #@! TO.P,D1,1*
G04 #@! TO.N,GND*
X67310000Y-34290000D03*
G04 #@! TD*
D28*
G04 #@! TO.P,Q1,1*
G04 #@! TO.N,Net-(Q1-Pad1)*
X36830000Y-48260000D03*
D29*
G04 #@! TO.P,Q1,2*
G04 #@! TO.N,VDC*
X42305000Y-48260000D03*
G04 #@! TO.P,Q1,3*
G04 #@! TO.N,Vout*
X47780000Y-48260000D03*
G04 #@! TD*
D30*
G04 #@! TO.P,U1,3*
G04 #@! TO.N,Net-(C3-Pad1)*
X41910000Y-73660000D03*
G04 #@! TO.P,U1,2*
G04 #@! TO.N,Vout*
X41910000Y-76200000D03*
D31*
G04 #@! TO.P,U1,1*
G04 #@! TO.N,Net-(C6-Pad1)*
X41910000Y-78740000D03*
G04 #@! TD*
D32*
G04 #@! TO.P,K1,2*
G04 #@! TO.N,VDC*
X86060000Y-52660000D03*
D33*
G04 #@! TO.P,K1,3*
G04 #@! TO.N,Net-(K1-Pad3)*
X86060000Y-40460000D03*
G04 #@! TO.P,K1,4*
G04 #@! TO.N,Net-(JP1-Pad2)*
X74010000Y-40410000D03*
D32*
G04 #@! TO.P,K1,5*
G04 #@! TO.N,Net-(D4-Pad2)*
X74060000Y-52660000D03*
D33*
G04 #@! TO.P,K1,1*
G04 #@! TO.N,Vl*
X80010000Y-54610000D03*
G04 #@! TD*
D10*
G04 #@! TO.P,R5,1*
G04 #@! TO.N,Vout*
X46990000Y-74930000D03*
D11*
G04 #@! TO.P,R5,2*
G04 #@! TO.N,Net-(C6-Pad1)*
X46990000Y-80010000D03*
G04 #@! TD*
G04 #@! TO.P,R4,2*
G04 #@! TO.N,Net-(C3-Pad1)*
X41910000Y-63500000D03*
D10*
G04 #@! TO.P,R4,1*
G04 #@! TO.N,VDC*
X36830000Y-63500000D03*
G04 #@! TD*
G04 #@! TO.P,R3,1*
G04 #@! TO.N,Net-(Q2-Pad2)*
X43180000Y-54610000D03*
D11*
G04 #@! TO.P,R3,2*
G04 #@! TO.N,Net-(C3-Pad1)*
X43180000Y-59690000D03*
G04 #@! TD*
G04 #@! TO.P,R2,2*
G04 #@! TO.N,VDC*
X58420000Y-39370000D03*
D10*
G04 #@! TO.P,R2,1*
G04 #@! TO.N,Net-(D1-Pad2)*
X58420000Y-34290000D03*
G04 #@! TD*
G04 #@! TO.P,R1,1*
G04 #@! TO.N,Vout*
X48260000Y-59690000D03*
D11*
G04 #@! TO.P,R1,2*
G04 #@! TO.N,Net-(Q1-Pad1)*
X48260000Y-54610000D03*
G04 #@! TD*
D34*
G04 #@! TO.N,Net-(Q3-Pad2)*
X72390000Y-68580000D02*
X72390000Y-85090000D01*
G04 #@! TO.N,Net-(D4-Pad2)*
X76200000Y-54800000D02*
X74060000Y-52660000D01*
X76200000Y-59690000D02*
X76200000Y-54800000D01*
X74930000Y-63500000D02*
X76200000Y-62230000D01*
X76200000Y-62230000D02*
X76200000Y-59690000D01*
X74930000Y-68580000D02*
X74930000Y-63500000D01*
G04 #@! TO.N,Net-(Q1-Pad1)*
X48260000Y-54610000D02*
X48260000Y-53340000D01*
X47729999Y-52809999D02*
X39900001Y-52809999D01*
X48260000Y-53340000D02*
X47729999Y-52809999D01*
X39160000Y-53340000D02*
X39370000Y-53340000D01*
X36830000Y-51010000D02*
X39160000Y-53340000D01*
X36830000Y-48260000D02*
X36830000Y-51010000D01*
X39370000Y-53340000D02*
X36830000Y-55880000D01*
X39900001Y-52809999D02*
X39370000Y-53340000D01*
G04 #@! TO.N,VDC*
X83820000Y-54900000D02*
X86060000Y-52660000D01*
X83820000Y-59690000D02*
X83820000Y-54900000D01*
D35*
X36830000Y-39370000D02*
X42010001Y-39370000D01*
X52070000Y-39370000D02*
X58420000Y-39370000D01*
X42305000Y-43510000D02*
X42010001Y-43215001D01*
X42010001Y-43215001D02*
X42010001Y-39370000D01*
X42305000Y-48260000D02*
X42305000Y-43510000D01*
D34*
X37434997Y-43215001D02*
X42010001Y-43215001D01*
X37399996Y-43180000D02*
X37434997Y-43215001D01*
X34290000Y-43180000D02*
X37399996Y-43180000D01*
X33020000Y-44450000D02*
X34290000Y-43180000D01*
X33020000Y-57150000D02*
X33020000Y-44450000D01*
X58420000Y-39370000D02*
X69850000Y-39370000D01*
X74930000Y-36830000D02*
X86060000Y-47960000D01*
X69850000Y-39370000D02*
X72390000Y-36830000D01*
X86060000Y-47960000D02*
X86060000Y-52660000D01*
X72390000Y-36830000D02*
X74930000Y-36830000D01*
D36*
X44450000Y-36830000D02*
X44450000Y-39370000D01*
D35*
X44450000Y-39370000D02*
X42010001Y-39370000D01*
X52070000Y-39370000D02*
X44450000Y-39370000D01*
D34*
X36830000Y-63500000D02*
X36830000Y-60960000D01*
X33020000Y-57150000D02*
X36830000Y-60960000D01*
G04 #@! TO.N,Net-(D1-Pad2)*
X58420000Y-34290000D02*
X64770000Y-34290000D01*
G04 #@! TO.N,Net-(Q2-Pad2)*
X43180000Y-54610000D02*
X39370000Y-58420000D01*
X39370000Y-58420000D02*
X36830000Y-58420000D01*
G04 #@! TO.N,Net-(C3-Pad1)*
X41910000Y-63500000D02*
X43180000Y-62230000D01*
X43180000Y-62230000D02*
X43180000Y-59690000D01*
X41910000Y-67310000D02*
X41910000Y-63500000D01*
X41910000Y-73660000D02*
X41910000Y-67310000D01*
G04 #@! TO.N,Net-(C6-Pad1)*
X45720000Y-78740000D02*
X46990000Y-80010000D01*
X41910000Y-78740000D02*
X45720000Y-78740000D01*
X49530000Y-80010000D02*
X50800000Y-81280000D01*
X46990000Y-80010000D02*
X49530000Y-80010000D01*
X54610000Y-81280000D02*
X55880000Y-80010000D01*
X50800000Y-81280000D02*
X54610000Y-81280000D01*
X48260000Y-83820000D02*
X50800000Y-81280000D01*
X48260000Y-85090000D02*
X48260000Y-83820000D01*
G04 #@! TO.N,Net-(RV1-Pad1)*
X53340000Y-87630000D02*
X53340000Y-85090000D01*
X40640000Y-87589870D02*
X41950130Y-88900000D01*
X40640000Y-85090000D02*
X40640000Y-87589870D01*
X52070000Y-88900000D02*
X53340000Y-87630000D01*
X41950130Y-88900000D02*
X52070000Y-88900000D01*
X44450000Y-85090000D02*
X40640000Y-85090000D01*
G04 #@! TO.N,Vout*
X45720000Y-76200000D02*
X46990000Y-74930000D01*
X41910000Y-76200000D02*
X45720000Y-76200000D01*
X49530000Y-74930000D02*
X50800000Y-73660000D01*
X46990000Y-74930000D02*
X49530000Y-74930000D01*
X50800000Y-62230000D02*
X48260000Y-59690000D01*
X50800000Y-73660000D02*
X50800000Y-62230000D01*
X53340000Y-59690000D02*
X50800000Y-62230000D01*
X54610000Y-59690000D02*
X53340000Y-59690000D01*
X52070000Y-52070000D02*
X53810001Y-50329999D01*
X52070000Y-57150000D02*
X52070000Y-52070000D01*
X53810001Y-50329999D02*
X54610000Y-49530000D01*
X54610000Y-59690000D02*
X52070000Y-57150000D01*
D35*
X53340000Y-48260000D02*
X54610000Y-49530000D01*
X47780000Y-48260000D02*
X53340000Y-48260000D01*
X54610000Y-49530000D02*
X55880000Y-49530000D01*
D37*
X59380000Y-45720000D02*
X58420000Y-46680000D01*
X58420000Y-46680000D02*
X58420000Y-49530000D01*
X62230000Y-45720000D02*
X59380000Y-45720000D01*
D35*
X54610000Y-49530000D02*
X58420000Y-49530000D01*
D36*
X62230000Y-49969998D02*
X62230000Y-50800000D01*
X61790002Y-49530000D02*
X62230000Y-49969998D01*
X58420000Y-49530000D02*
X61790002Y-49530000D01*
D35*
G04 #@! TO.N,Vl*
X80010000Y-60960000D02*
X80010000Y-54610000D01*
X85090000Y-66040000D02*
X80010000Y-60960000D01*
D34*
G04 #@! TO.N,Net-(J3-Pad1)*
X77470000Y-85090000D02*
X82550000Y-85090000D01*
D36*
G04 #@! TO.N,Net-(JP1-Pad2)*
X68700000Y-45720000D02*
X74010000Y-40410000D01*
X64770000Y-45720000D02*
X68700000Y-45720000D01*
D34*
G04 #@! TO.N,Net-(D5-Pad2)*
X67310000Y-63500000D02*
X63500000Y-67310000D01*
X69850000Y-63500000D02*
X67310000Y-63500000D01*
G04 #@! TD*
D38*
G04 #@! TO.N,GND*
G36*
X92583000Y-91313000D02*
X28067000Y-91313000D01*
X28067000Y-68317745D01*
X36081861Y-68317745D01*
X36155995Y-68563864D01*
X36693223Y-68756965D01*
X37263454Y-68729778D01*
X37664005Y-68563864D01*
X37738139Y-68317745D01*
X36910000Y-67489605D01*
X36081861Y-68317745D01*
X28067000Y-68317745D01*
X28067000Y-67093223D01*
X35463035Y-67093223D01*
X35490222Y-67663454D01*
X35656136Y-68064005D01*
X35902255Y-68138139D01*
X36730395Y-67310000D01*
X37089605Y-67310000D01*
X37917745Y-68138139D01*
X38163864Y-68064005D01*
X38356965Y-67526777D01*
X38329778Y-66956546D01*
X38163864Y-66555995D01*
X37917745Y-66481861D01*
X37089605Y-67310000D01*
X36730395Y-67310000D01*
X35902255Y-66481861D01*
X35656136Y-66555995D01*
X35463035Y-67093223D01*
X28067000Y-67093223D01*
X28067000Y-66302255D01*
X36081861Y-66302255D01*
X36910000Y-67130395D01*
X37738139Y-66302255D01*
X37664005Y-66056136D01*
X37126777Y-65863035D01*
X36556546Y-65890222D01*
X36155995Y-66056136D01*
X36081861Y-66302255D01*
X28067000Y-66302255D01*
X28067000Y-44450000D01*
X31768963Y-44450000D01*
X31793001Y-44570847D01*
X31793000Y-57029157D01*
X31768963Y-57150000D01*
X31793000Y-57270843D01*
X31793000Y-57270846D01*
X31864192Y-57628751D01*
X32135383Y-58034617D01*
X32237833Y-58103072D01*
X35511334Y-61376574D01*
X35525642Y-61448506D01*
X35603001Y-61564282D01*
X35603000Y-62733306D01*
X35403000Y-63216152D01*
X35403000Y-63783848D01*
X35620247Y-64308331D01*
X36021669Y-64709753D01*
X36546152Y-64927000D01*
X37113848Y-64927000D01*
X37638331Y-64709753D01*
X38039753Y-64308331D01*
X38257000Y-63783848D01*
X38257000Y-63216152D01*
X38057000Y-62733307D01*
X38057000Y-61564281D01*
X38134358Y-61448506D01*
X38231528Y-60960000D01*
X38134358Y-60471494D01*
X37857642Y-60057358D01*
X37443506Y-59780642D01*
X37371574Y-59766334D01*
X37252240Y-59647000D01*
X39249157Y-59647000D01*
X39370000Y-59671037D01*
X39490843Y-59647000D01*
X39490847Y-59647000D01*
X39848752Y-59575808D01*
X40254617Y-59304617D01*
X40323072Y-59202167D01*
X43505487Y-56019752D01*
X43988331Y-55819753D01*
X44389753Y-55418331D01*
X44607000Y-54893848D01*
X44607000Y-54326152D01*
X44487229Y-54036999D01*
X46926629Y-54036999D01*
X46915796Y-54053212D01*
X46805044Y-54610000D01*
X46915796Y-55166788D01*
X47231191Y-55638809D01*
X47703212Y-55954204D01*
X48119456Y-56037000D01*
X48400544Y-56037000D01*
X48816788Y-55954204D01*
X49288809Y-55638809D01*
X49604204Y-55166788D01*
X49714956Y-54610000D01*
X49604204Y-54053212D01*
X49487000Y-53877804D01*
X49487000Y-53460843D01*
X49511037Y-53340000D01*
X49487000Y-53219157D01*
X49487000Y-53219153D01*
X49415808Y-52861248D01*
X49281338Y-52660000D01*
X49213072Y-52557832D01*
X49213070Y-52557830D01*
X49144617Y-52455383D01*
X49042169Y-52386929D01*
X48683071Y-52027831D01*
X48614616Y-51925382D01*
X48208751Y-51654191D01*
X47850846Y-51582999D01*
X47850842Y-51582999D01*
X47729999Y-51558962D01*
X47609156Y-51582999D01*
X40020844Y-51582999D01*
X39900001Y-51558962D01*
X39779158Y-51582999D01*
X39779154Y-51582999D01*
X39421249Y-51654191D01*
X39294274Y-51739033D01*
X38268906Y-50713666D01*
X38363661Y-50694818D01*
X38604137Y-50534137D01*
X38764818Y-50293661D01*
X38821242Y-50010000D01*
X38821242Y-46510000D01*
X38764818Y-46226339D01*
X38604137Y-45985863D01*
X38363661Y-45825182D01*
X38080000Y-45768758D01*
X35580000Y-45768758D01*
X35296339Y-45825182D01*
X35055863Y-45985863D01*
X34895182Y-46226339D01*
X34838758Y-46510000D01*
X34838758Y-50010000D01*
X34895182Y-50293661D01*
X35055863Y-50534137D01*
X35296339Y-50694818D01*
X35580000Y-50751242D01*
X35603001Y-50751242D01*
X35603001Y-50889153D01*
X35578963Y-51010000D01*
X35674192Y-51488750D01*
X35674193Y-51488751D01*
X35674193Y-51488752D01*
X35721106Y-51558962D01*
X35876929Y-51792168D01*
X35876931Y-51792170D01*
X35945384Y-51894617D01*
X36047831Y-51963070D01*
X37529760Y-53445000D01*
X36361003Y-54613758D01*
X36180000Y-54613758D01*
X35896339Y-54670182D01*
X35655863Y-54830863D01*
X35495182Y-55071339D01*
X35438758Y-55355000D01*
X35438758Y-56405000D01*
X35495182Y-56688661D01*
X35655863Y-56929137D01*
X35896339Y-57089818D01*
X36180000Y-57146242D01*
X37480000Y-57146242D01*
X37763661Y-57089818D01*
X38004137Y-56929137D01*
X38164818Y-56688661D01*
X38221242Y-56405000D01*
X38221242Y-56223997D01*
X40152170Y-54293070D01*
X40254617Y-54224617D01*
X40323072Y-54122168D01*
X40408240Y-54036999D01*
X41872771Y-54036999D01*
X41770248Y-54284513D01*
X38861761Y-57193000D01*
X37203993Y-57193000D01*
X37078310Y-57168000D01*
X36581690Y-57168000D01*
X36216494Y-57240642D01*
X35802358Y-57517358D01*
X35530085Y-57924845D01*
X34247000Y-56641761D01*
X34247000Y-44958239D01*
X34798240Y-44407000D01*
X37138189Y-44407000D01*
X37314150Y-44442001D01*
X37314154Y-44442001D01*
X37434997Y-44466038D01*
X37555840Y-44442001D01*
X40078001Y-44442001D01*
X40078000Y-48479337D01*
X40207212Y-49128931D01*
X40428542Y-49460175D01*
X40442707Y-49531387D01*
X40879664Y-50185337D01*
X41533614Y-50622293D01*
X42305000Y-50775731D01*
X43076387Y-50622293D01*
X43730337Y-50185337D01*
X44167293Y-49531387D01*
X44181458Y-49460176D01*
X44402788Y-49128932D01*
X44532000Y-48479338D01*
X44532000Y-43729338D01*
X44575629Y-43510000D01*
X44402788Y-42641068D01*
X44237001Y-42392951D01*
X44237001Y-41597000D01*
X58639338Y-41597000D01*
X59288932Y-41467788D01*
X60025577Y-40975577D01*
X60278534Y-40597000D01*
X69729157Y-40597000D01*
X69850000Y-40621037D01*
X69970843Y-40597000D01*
X69970847Y-40597000D01*
X70328752Y-40525808D01*
X70734617Y-40254617D01*
X70803072Y-40152167D01*
X72898240Y-38057000D01*
X74421761Y-38057000D01*
X74614782Y-38250022D01*
X74452978Y-38183000D01*
X73567022Y-38183000D01*
X72748506Y-38522040D01*
X72122040Y-39148506D01*
X71783000Y-39967022D01*
X71783000Y-40406785D01*
X68046786Y-44143000D01*
X64614681Y-44143000D01*
X64154685Y-44234499D01*
X63722625Y-44523193D01*
X63604137Y-44345863D01*
X63363661Y-44185182D01*
X63080000Y-44128758D01*
X62957055Y-44128758D01*
X62903842Y-44093202D01*
X62400091Y-43993000D01*
X59550090Y-43993000D01*
X59379999Y-43959167D01*
X59209909Y-43993000D01*
X58706158Y-44093202D01*
X58134903Y-44474903D01*
X58038550Y-44619105D01*
X57319105Y-45338550D01*
X57174903Y-45434903D01*
X56806763Y-45985863D01*
X56793202Y-46006159D01*
X56659167Y-46680000D01*
X56693000Y-46850091D01*
X56693000Y-47303000D01*
X55532453Y-47303000D01*
X55069823Y-46840370D01*
X54945577Y-46654423D01*
X54208932Y-46162212D01*
X53559338Y-46033000D01*
X53559333Y-46033000D01*
X53340000Y-45989372D01*
X53120667Y-46033000D01*
X48753866Y-46033000D01*
X48551386Y-45897707D01*
X47780000Y-45744269D01*
X47008613Y-45897707D01*
X46354663Y-46334663D01*
X45917707Y-46988614D01*
X45903543Y-47059824D01*
X45682212Y-47391068D01*
X45509371Y-48260000D01*
X45682212Y-49128932D01*
X45903542Y-49460176D01*
X45917707Y-49531387D01*
X46354664Y-50185337D01*
X47008614Y-50622293D01*
X47780000Y-50775731D01*
X48551387Y-50622293D01*
X48753867Y-50487000D01*
X51917761Y-50487000D01*
X51287831Y-51116930D01*
X51185384Y-51185383D01*
X51116931Y-51287830D01*
X51116929Y-51287832D01*
X51114924Y-51290833D01*
X50921017Y-51581036D01*
X50914192Y-51591250D01*
X50818963Y-52070000D01*
X50843001Y-52190847D01*
X50843000Y-57029157D01*
X50818963Y-57150000D01*
X50843000Y-57270843D01*
X50843000Y-57270846D01*
X50914192Y-57628751D01*
X51185383Y-58034617D01*
X51287833Y-58103072D01*
X52239760Y-59055000D01*
X50800000Y-60494760D01*
X49669753Y-59364514D01*
X49469753Y-58881669D01*
X49068331Y-58480247D01*
X48543848Y-58263000D01*
X47976152Y-58263000D01*
X47451669Y-58480247D01*
X47050247Y-58881669D01*
X46833000Y-59406152D01*
X46833000Y-59973848D01*
X47050247Y-60498331D01*
X47451669Y-60899753D01*
X47934514Y-61099753D01*
X49573001Y-62738241D01*
X49573000Y-72354367D01*
X49525863Y-72385863D01*
X49365182Y-72626339D01*
X49308758Y-72910000D01*
X49308758Y-73416002D01*
X49021761Y-73703000D01*
X47756693Y-73703000D01*
X47273848Y-73503000D01*
X46706152Y-73503000D01*
X46181669Y-73720247D01*
X45780247Y-74121669D01*
X45580247Y-74604513D01*
X45211761Y-74973000D01*
X43144185Y-74973000D01*
X43079831Y-74930000D01*
X43168352Y-74870852D01*
X43539554Y-74315308D01*
X43669903Y-73660000D01*
X43539554Y-73004692D01*
X43168352Y-72449148D01*
X43137000Y-72428199D01*
X43137000Y-68242504D01*
X43204528Y-68174976D01*
X43437000Y-67613739D01*
X43437000Y-67006261D01*
X43204528Y-66445024D01*
X43137000Y-66377496D01*
X43137000Y-64232196D01*
X43254204Y-64056788D01*
X43295361Y-63849879D01*
X43962170Y-63183070D01*
X44064617Y-63114617D01*
X44179147Y-62943212D01*
X44335808Y-62708752D01*
X44364287Y-62565577D01*
X44407000Y-62350847D01*
X44407000Y-62350844D01*
X44431037Y-62230001D01*
X44407000Y-62109158D01*
X44407000Y-60422196D01*
X44524204Y-60246788D01*
X44634956Y-59690000D01*
X44524204Y-59133212D01*
X44208809Y-58661191D01*
X43736788Y-58345796D01*
X43320544Y-58263000D01*
X43039456Y-58263000D01*
X42623212Y-58345796D01*
X42151191Y-58661191D01*
X41835796Y-59133212D01*
X41725044Y-59690000D01*
X41835796Y-60246788D01*
X41953001Y-60422197D01*
X41953000Y-61721760D01*
X41560121Y-62114639D01*
X41353212Y-62155796D01*
X40881191Y-62471191D01*
X40565796Y-62943212D01*
X40455044Y-63500000D01*
X40565796Y-64056788D01*
X40683001Y-64232197D01*
X40683000Y-66377496D01*
X40615472Y-66445024D01*
X40383000Y-67006261D01*
X40383000Y-67613739D01*
X40615472Y-68174976D01*
X40683001Y-68242505D01*
X40683000Y-72428199D01*
X40651648Y-72449148D01*
X40280446Y-73004692D01*
X40150097Y-73660000D01*
X40280446Y-74315308D01*
X40651648Y-74870852D01*
X40740169Y-74930000D01*
X40651648Y-74989148D01*
X40280446Y-75544692D01*
X40150097Y-76200000D01*
X40280446Y-76855308D01*
X40501480Y-77186110D01*
X40385863Y-77263363D01*
X40225182Y-77503839D01*
X40168758Y-77787500D01*
X40168758Y-79692500D01*
X40225182Y-79976161D01*
X40385863Y-80216637D01*
X40626339Y-80377318D01*
X40910000Y-80433742D01*
X42910000Y-80433742D01*
X43193661Y-80377318D01*
X43434137Y-80216637D01*
X43594818Y-79976161D01*
X43596640Y-79967000D01*
X45211761Y-79967000D01*
X45604639Y-80359879D01*
X45645796Y-80566788D01*
X45961191Y-81038809D01*
X46433212Y-81354204D01*
X46849456Y-81437000D01*
X47130544Y-81437000D01*
X47546788Y-81354204D01*
X47722196Y-81237000D01*
X49021761Y-81237000D01*
X49064761Y-81280000D01*
X47477831Y-82866930D01*
X47375384Y-82935383D01*
X47306930Y-83037831D01*
X47306929Y-83037832D01*
X47273119Y-83088433D01*
X46998579Y-83202151D01*
X46372151Y-83828579D01*
X46355000Y-83869985D01*
X46337849Y-83828579D01*
X45711421Y-83202151D01*
X44892952Y-82863130D01*
X44007048Y-82863130D01*
X43188579Y-83202151D01*
X42867754Y-83522976D01*
X42824688Y-83306469D01*
X42664007Y-83065993D01*
X42423531Y-82905312D01*
X42139870Y-82848888D01*
X39140130Y-82848888D01*
X38856469Y-82905312D01*
X38615993Y-83065993D01*
X38455312Y-83306469D01*
X38398888Y-83590130D01*
X38398888Y-86589870D01*
X38455312Y-86873531D01*
X38615993Y-87114007D01*
X38856469Y-87274688D01*
X39140130Y-87331112D01*
X39413001Y-87331112D01*
X39413001Y-87469023D01*
X39388963Y-87589870D01*
X39484192Y-88068620D01*
X39484193Y-88068621D01*
X39484193Y-88068622D01*
X39517074Y-88117832D01*
X39686929Y-88372038D01*
X39686931Y-88372040D01*
X39755384Y-88474487D01*
X39857831Y-88542940D01*
X40997061Y-89682172D01*
X41065513Y-89784617D01*
X41167957Y-89853068D01*
X41167961Y-89853072D01*
X41366451Y-89985698D01*
X41471378Y-90055808D01*
X41829283Y-90127000D01*
X41829287Y-90127000D01*
X41950130Y-90151037D01*
X42070973Y-90127000D01*
X51949157Y-90127000D01*
X52070000Y-90151037D01*
X52190843Y-90127000D01*
X52190847Y-90127000D01*
X52548752Y-90055808D01*
X52954617Y-89784617D01*
X53023072Y-89682167D01*
X54122170Y-88583070D01*
X54224617Y-88514617D01*
X54319886Y-88372038D01*
X54495808Y-88108752D01*
X54514380Y-88015383D01*
X54567000Y-87750847D01*
X54567000Y-87750844D01*
X54591037Y-87630001D01*
X54567000Y-87509158D01*
X54567000Y-86992107D01*
X54601421Y-86977849D01*
X54975393Y-86603877D01*
X55815728Y-86603877D01*
X55975495Y-86922632D01*
X56766217Y-87232595D01*
X57615366Y-87216367D01*
X58324505Y-86922632D01*
X58484272Y-86603877D01*
X57150000Y-85269605D01*
X55815728Y-86603877D01*
X54975393Y-86603877D01*
X55227849Y-86351421D01*
X55290609Y-86199904D01*
X55317368Y-86264505D01*
X55636123Y-86424272D01*
X56970395Y-85090000D01*
X57329605Y-85090000D01*
X58663877Y-86424272D01*
X58825130Y-86343448D01*
X58825130Y-86716180D01*
X58921803Y-86949569D01*
X59100432Y-87128197D01*
X59333821Y-87224870D01*
X60674250Y-87224870D01*
X60833000Y-87066120D01*
X60833000Y-85217000D01*
X61087000Y-85217000D01*
X61087000Y-87066120D01*
X61245750Y-87224870D01*
X62586179Y-87224870D01*
X62819568Y-87128197D01*
X62998197Y-86949569D01*
X63094870Y-86716180D01*
X63094870Y-85375750D01*
X62936120Y-85217000D01*
X61087000Y-85217000D01*
X60833000Y-85217000D01*
X60813000Y-85217000D01*
X60813000Y-84963000D01*
X60833000Y-84963000D01*
X60833000Y-83113880D01*
X61087000Y-83113880D01*
X61087000Y-84963000D01*
X62936120Y-84963000D01*
X63092968Y-84806152D01*
X70963000Y-84806152D01*
X70963000Y-85373848D01*
X71180247Y-85898331D01*
X71581669Y-86299753D01*
X72106152Y-86517000D01*
X72673848Y-86517000D01*
X73198331Y-86299753D01*
X73599753Y-85898331D01*
X73817000Y-85373848D01*
X73817000Y-85090000D01*
X76015044Y-85090000D01*
X76125796Y-85646788D01*
X76441191Y-86118809D01*
X76913212Y-86434204D01*
X77329456Y-86517000D01*
X77610544Y-86517000D01*
X78026788Y-86434204D01*
X78202196Y-86317000D01*
X81077549Y-86317000D01*
X81175863Y-86464137D01*
X81416339Y-86624818D01*
X81700000Y-86681242D01*
X83400000Y-86681242D01*
X83683661Y-86624818D01*
X83924137Y-86464137D01*
X84084818Y-86223661D01*
X84098146Y-86156658D01*
X84323076Y-86361645D01*
X84733110Y-86531476D01*
X84963000Y-86410155D01*
X84963000Y-85217000D01*
X85217000Y-85217000D01*
X85217000Y-86410155D01*
X85446890Y-86531476D01*
X85856924Y-86361645D01*
X86285183Y-85971358D01*
X86531486Y-85446892D01*
X86410819Y-85217000D01*
X85217000Y-85217000D01*
X84963000Y-85217000D01*
X84943000Y-85217000D01*
X84943000Y-84963000D01*
X84963000Y-84963000D01*
X84963000Y-83769845D01*
X85217000Y-83769845D01*
X85217000Y-84963000D01*
X86410819Y-84963000D01*
X86531486Y-84733108D01*
X86285183Y-84208642D01*
X85856924Y-83818355D01*
X85446890Y-83648524D01*
X85217000Y-83769845D01*
X84963000Y-83769845D01*
X84733110Y-83648524D01*
X84323076Y-83818355D01*
X84098146Y-84023342D01*
X84084818Y-83956339D01*
X83924137Y-83715863D01*
X83683661Y-83555182D01*
X83400000Y-83498758D01*
X81700000Y-83498758D01*
X81416339Y-83555182D01*
X81175863Y-83715863D01*
X81077549Y-83863000D01*
X78202196Y-83863000D01*
X78026788Y-83745796D01*
X77610544Y-83663000D01*
X77329456Y-83663000D01*
X76913212Y-83745796D01*
X76441191Y-84061191D01*
X76125796Y-84533212D01*
X76015044Y-85090000D01*
X73817000Y-85090000D01*
X73817000Y-84806152D01*
X73617000Y-84323307D01*
X73617000Y-74445786D01*
X83213819Y-74445786D01*
X83465111Y-74842533D01*
X84527342Y-75277664D01*
X85675233Y-75273173D01*
X86714889Y-74842533D01*
X86966181Y-74445786D01*
X85090000Y-72569605D01*
X83213819Y-74445786D01*
X73617000Y-74445786D01*
X73617000Y-71827342D01*
X82202336Y-71827342D01*
X82206827Y-72975233D01*
X82637467Y-74014889D01*
X83034214Y-74266181D01*
X84910395Y-72390000D01*
X85269605Y-72390000D01*
X87145786Y-74266181D01*
X87542533Y-74014889D01*
X87977664Y-72952658D01*
X87973173Y-71804767D01*
X87542533Y-70765111D01*
X87145786Y-70513819D01*
X85269605Y-72390000D01*
X84910395Y-72390000D01*
X83034214Y-70513819D01*
X82637467Y-70765111D01*
X82202336Y-71827342D01*
X73617000Y-71827342D01*
X73617000Y-70334214D01*
X83213819Y-70334214D01*
X85090000Y-72210395D01*
X86966181Y-70334214D01*
X86714889Y-69937467D01*
X85652658Y-69502336D01*
X84504767Y-69506827D01*
X83465111Y-69937467D01*
X83213819Y-70334214D01*
X73617000Y-70334214D01*
X73617000Y-68953992D01*
X73642000Y-68828309D01*
X73642000Y-68331690D01*
X73569358Y-67966494D01*
X73292642Y-67552358D01*
X72878505Y-67275642D01*
X72390000Y-67178472D01*
X71901494Y-67275642D01*
X71487358Y-67552358D01*
X71210642Y-67966495D01*
X71138000Y-68331691D01*
X71138000Y-68828310D01*
X71163000Y-68953994D01*
X71163001Y-84323305D01*
X70963000Y-84806152D01*
X63092968Y-84806152D01*
X63094870Y-84804250D01*
X63094870Y-83463820D01*
X62998197Y-83230431D01*
X62819568Y-83051803D01*
X62586179Y-82955130D01*
X61245750Y-82955130D01*
X61087000Y-83113880D01*
X60833000Y-83113880D01*
X60674250Y-82955130D01*
X59333821Y-82955130D01*
X59100432Y-83051803D01*
X58921803Y-83230431D01*
X58825130Y-83463820D01*
X58825130Y-83836552D01*
X58663877Y-83755728D01*
X57329605Y-85090000D01*
X56970395Y-85090000D01*
X55636123Y-83755728D01*
X55317368Y-83915495D01*
X55291347Y-83981876D01*
X55227849Y-83828579D01*
X54975393Y-83576123D01*
X55815728Y-83576123D01*
X57150000Y-84910395D01*
X58484272Y-83576123D01*
X58324505Y-83257368D01*
X57533783Y-82947405D01*
X56684634Y-82963633D01*
X55975495Y-83257368D01*
X55815728Y-83576123D01*
X54975393Y-83576123D01*
X54601421Y-83202151D01*
X53782952Y-82863130D01*
X52897048Y-82863130D01*
X52078579Y-83202151D01*
X51452151Y-83828579D01*
X51113130Y-84647048D01*
X51113130Y-85532952D01*
X51452151Y-86351421D01*
X52078579Y-86977849D01*
X52113000Y-86992107D01*
X52113000Y-87121760D01*
X51561761Y-87673000D01*
X42458370Y-87673000D01*
X42116482Y-87331112D01*
X42139870Y-87331112D01*
X42423531Y-87274688D01*
X42664007Y-87114007D01*
X42824688Y-86873531D01*
X42867754Y-86657024D01*
X43188579Y-86977849D01*
X44007048Y-87316870D01*
X44892952Y-87316870D01*
X45711421Y-86977849D01*
X46337849Y-86351421D01*
X46355000Y-86310015D01*
X46372151Y-86351421D01*
X46998579Y-86977849D01*
X47817048Y-87316870D01*
X48702952Y-87316870D01*
X49521421Y-86977849D01*
X50147849Y-86351421D01*
X50486870Y-85532952D01*
X50486870Y-84647048D01*
X50147849Y-83828579D01*
X50067255Y-83747985D01*
X51086241Y-82728999D01*
X51376297Y-82671303D01*
X51622195Y-82507000D01*
X54489157Y-82507000D01*
X54610000Y-82531037D01*
X54730843Y-82507000D01*
X54730847Y-82507000D01*
X55088752Y-82435808D01*
X55494617Y-82164617D01*
X55563072Y-82062167D01*
X56088239Y-81537000D01*
X56183739Y-81537000D01*
X56744976Y-81304528D01*
X57174528Y-80874976D01*
X57407000Y-80313739D01*
X57407000Y-79706261D01*
X57174528Y-79145024D01*
X56744976Y-78715472D01*
X56183739Y-78483000D01*
X55576261Y-78483000D01*
X55015024Y-78715472D01*
X54585472Y-79145024D01*
X54353000Y-79706261D01*
X54353000Y-79801761D01*
X54101761Y-80053000D01*
X51622195Y-80053000D01*
X51376297Y-79888697D01*
X51086240Y-79831001D01*
X50483072Y-79227833D01*
X50414617Y-79125383D01*
X50008752Y-78854192D01*
X49650847Y-78783000D01*
X49650843Y-78783000D01*
X49530000Y-78758963D01*
X49409157Y-78783000D01*
X47722196Y-78783000D01*
X47546788Y-78665796D01*
X47339879Y-78624639D01*
X46673072Y-77957833D01*
X46604617Y-77855383D01*
X46198752Y-77584192D01*
X45840847Y-77513000D01*
X45840843Y-77513000D01*
X45720000Y-77488963D01*
X45599157Y-77513000D01*
X43596640Y-77513000D01*
X43594818Y-77503839D01*
X43543476Y-77427000D01*
X45599157Y-77427000D01*
X45720000Y-77451037D01*
X45840843Y-77427000D01*
X45840847Y-77427000D01*
X46198752Y-77355808D01*
X46604617Y-77084617D01*
X46673072Y-76982167D01*
X47315487Y-76339753D01*
X47756693Y-76157000D01*
X49409157Y-76157000D01*
X49530000Y-76181037D01*
X49650843Y-76157000D01*
X49650847Y-76157000D01*
X50008752Y-76085808D01*
X50110615Y-76017745D01*
X55051861Y-76017745D01*
X55125995Y-76263864D01*
X55663223Y-76456965D01*
X56233454Y-76429778D01*
X56634005Y-76263864D01*
X56708139Y-76017745D01*
X55880000Y-75189605D01*
X55051861Y-76017745D01*
X50110615Y-76017745D01*
X50414617Y-75814617D01*
X50483072Y-75712167D01*
X51043998Y-75151242D01*
X51550000Y-75151242D01*
X51833661Y-75094818D01*
X52074137Y-74934137D01*
X52168292Y-74793223D01*
X54433035Y-74793223D01*
X54460222Y-75363454D01*
X54626136Y-75764005D01*
X54872255Y-75838139D01*
X55700395Y-75010000D01*
X56059605Y-75010000D01*
X56887745Y-75838139D01*
X57133864Y-75764005D01*
X57326965Y-75226777D01*
X57299778Y-74656546D01*
X57133864Y-74255995D01*
X56887745Y-74181861D01*
X56059605Y-75010000D01*
X55700395Y-75010000D01*
X54872255Y-74181861D01*
X54626136Y-74255995D01*
X54433035Y-74793223D01*
X52168292Y-74793223D01*
X52234818Y-74693661D01*
X52291242Y-74410000D01*
X52291242Y-74002255D01*
X55051861Y-74002255D01*
X55880000Y-74830395D01*
X56708139Y-74002255D01*
X56634005Y-73756136D01*
X56096777Y-73563035D01*
X55526546Y-73590222D01*
X55125995Y-73756136D01*
X55051861Y-74002255D01*
X52291242Y-74002255D01*
X52291242Y-72910000D01*
X52234818Y-72626339D01*
X52074137Y-72385863D01*
X52027000Y-72354367D01*
X52027000Y-70135750D01*
X61965000Y-70135750D01*
X61965000Y-70876309D01*
X62061673Y-71109698D01*
X62240301Y-71288327D01*
X62473690Y-71385000D01*
X63214250Y-71385000D01*
X63373000Y-71226250D01*
X63373000Y-69977000D01*
X63627000Y-69977000D01*
X63627000Y-71226250D01*
X63785750Y-71385000D01*
X64526310Y-71385000D01*
X64759699Y-71288327D01*
X64938327Y-71109698D01*
X65035000Y-70876309D01*
X65035000Y-70135750D01*
X64876250Y-69977000D01*
X63627000Y-69977000D01*
X63373000Y-69977000D01*
X62123750Y-69977000D01*
X61965000Y-70135750D01*
X52027000Y-70135750D01*
X52027000Y-66986370D01*
X61873000Y-66986370D01*
X61873000Y-67633630D01*
X62120696Y-68231622D01*
X62283043Y-68393969D01*
X62240301Y-68411673D01*
X62061673Y-68590302D01*
X61965000Y-68823691D01*
X61965000Y-69564250D01*
X62123750Y-69723000D01*
X63373000Y-69723000D01*
X63373000Y-69703000D01*
X63627000Y-69703000D01*
X63627000Y-69723000D01*
X64876250Y-69723000D01*
X65035000Y-69564250D01*
X65035000Y-68888422D01*
X68704702Y-68888422D01*
X68862075Y-69312746D01*
X69169851Y-69644547D01*
X69544190Y-69823964D01*
X69723000Y-69698163D01*
X69723000Y-68707000D01*
X69977000Y-68707000D01*
X69977000Y-69698163D01*
X70155810Y-69823964D01*
X70530149Y-69644547D01*
X70837925Y-69312746D01*
X70995298Y-68888422D01*
X70851141Y-68707000D01*
X69977000Y-68707000D01*
X69723000Y-68707000D01*
X68848859Y-68707000D01*
X68704702Y-68888422D01*
X65035000Y-68888422D01*
X65035000Y-68823691D01*
X64938327Y-68590302D01*
X64759699Y-68411673D01*
X64716957Y-68393969D01*
X64839348Y-68271578D01*
X68704702Y-68271578D01*
X68848859Y-68453000D01*
X69723000Y-68453000D01*
X69723000Y-67461837D01*
X69977000Y-67461837D01*
X69977000Y-68453000D01*
X70851141Y-68453000D01*
X70995298Y-68271578D01*
X70837925Y-67847254D01*
X70530149Y-67515453D01*
X70155810Y-67336036D01*
X69977000Y-67461837D01*
X69723000Y-67461837D01*
X69544190Y-67336036D01*
X69169851Y-67515453D01*
X68862075Y-67847254D01*
X68704702Y-68271578D01*
X64839348Y-68271578D01*
X64879304Y-68231622D01*
X65127000Y-67633630D01*
X65127000Y-67418239D01*
X67818240Y-64727000D01*
X69117804Y-64727000D01*
X69293212Y-64844204D01*
X69709456Y-64927000D01*
X69990544Y-64927000D01*
X70406788Y-64844204D01*
X70878809Y-64528809D01*
X71194204Y-64056788D01*
X71304956Y-63500000D01*
X71194204Y-62943212D01*
X70878809Y-62471191D01*
X70406788Y-62155796D01*
X69990544Y-62073000D01*
X69709456Y-62073000D01*
X69293212Y-62155796D01*
X69117804Y-62273000D01*
X67430843Y-62273000D01*
X67310000Y-62248963D01*
X67189157Y-62273000D01*
X67189153Y-62273000D01*
X66831248Y-62344192D01*
X66425383Y-62615383D01*
X66356930Y-62717830D01*
X63391761Y-65683000D01*
X63176370Y-65683000D01*
X62578378Y-65930696D01*
X62120696Y-66388378D01*
X61873000Y-66986370D01*
X52027000Y-66986370D01*
X52027000Y-62738239D01*
X53824033Y-60941207D01*
X54033703Y-61081303D01*
X54464529Y-61167000D01*
X54755471Y-61167000D01*
X55186297Y-61081303D01*
X55674858Y-60754858D01*
X56001303Y-60266297D01*
X56059096Y-59975750D01*
X60845000Y-59975750D01*
X60845000Y-60566310D01*
X60941673Y-60799699D01*
X61120302Y-60978327D01*
X61353691Y-61075000D01*
X61944250Y-61075000D01*
X62103000Y-60916250D01*
X62103000Y-59817000D01*
X62357000Y-59817000D01*
X62357000Y-60916250D01*
X62515750Y-61075000D01*
X63106309Y-61075000D01*
X63339698Y-60978327D01*
X63518327Y-60799699D01*
X63615000Y-60566310D01*
X63615000Y-59975750D01*
X63456250Y-59817000D01*
X62357000Y-59817000D01*
X62103000Y-59817000D01*
X61003750Y-59817000D01*
X60845000Y-59975750D01*
X56059096Y-59975750D01*
X56115936Y-59690000D01*
X56001303Y-59113703D01*
X55800842Y-58813690D01*
X60845000Y-58813690D01*
X60845000Y-59404250D01*
X61003750Y-59563000D01*
X62103000Y-59563000D01*
X62103000Y-58463750D01*
X62357000Y-58463750D01*
X62357000Y-59563000D01*
X63456250Y-59563000D01*
X63615000Y-59404250D01*
X63615000Y-58813690D01*
X63518327Y-58580301D01*
X63339698Y-58401673D01*
X63106309Y-58305000D01*
X62515750Y-58305000D01*
X62357000Y-58463750D01*
X62103000Y-58463750D01*
X61944250Y-58305000D01*
X61353691Y-58305000D01*
X61120302Y-58401673D01*
X60941673Y-58580301D01*
X60845000Y-58813690D01*
X55800842Y-58813690D01*
X55674858Y-58625142D01*
X55186297Y-58298697D01*
X54896241Y-58241001D01*
X53297000Y-56641761D01*
X53297000Y-55537745D01*
X53781861Y-55537745D01*
X53855995Y-55783864D01*
X54393223Y-55976965D01*
X54963454Y-55949778D01*
X55364005Y-55783864D01*
X55438139Y-55537745D01*
X54610000Y-54709605D01*
X53781861Y-55537745D01*
X53297000Y-55537745D01*
X53297000Y-55141238D01*
X53356136Y-55284005D01*
X53602255Y-55358139D01*
X54430395Y-54530000D01*
X54789605Y-54530000D01*
X55617745Y-55358139D01*
X55863864Y-55284005D01*
X56056965Y-54746777D01*
X56036034Y-54307745D01*
X61401861Y-54307745D01*
X61475995Y-54553864D01*
X62013223Y-54746965D01*
X62583454Y-54719778D01*
X62984005Y-54553864D01*
X63058139Y-54307745D01*
X62230000Y-53479605D01*
X61401861Y-54307745D01*
X56036034Y-54307745D01*
X56029778Y-54176546D01*
X55863864Y-53775995D01*
X55617745Y-53701861D01*
X54789605Y-54530000D01*
X54430395Y-54530000D01*
X53602255Y-53701861D01*
X53356136Y-53775995D01*
X53297000Y-53940518D01*
X53297000Y-53522255D01*
X53781861Y-53522255D01*
X54610000Y-54350395D01*
X55438139Y-53522255D01*
X55364005Y-53276136D01*
X54826777Y-53083035D01*
X54256546Y-53110222D01*
X53855995Y-53276136D01*
X53781861Y-53522255D01*
X53297000Y-53522255D01*
X53297000Y-52578239D01*
X54163437Y-51711802D01*
X54390662Y-51757000D01*
X54390666Y-51757000D01*
X54609999Y-51800628D01*
X54829332Y-51757000D01*
X58639338Y-51757000D01*
X59288932Y-51627788D01*
X60025577Y-51135577D01*
X60044672Y-51107000D01*
X60683171Y-51107000D01*
X60688758Y-51135086D01*
X60688758Y-51600000D01*
X60745182Y-51883661D01*
X60905863Y-52124137D01*
X61146339Y-52284818D01*
X61174037Y-52290327D01*
X61107378Y-52356986D01*
X61222253Y-52471861D01*
X60976136Y-52545995D01*
X60783035Y-53083223D01*
X60810222Y-53653454D01*
X60976136Y-54054005D01*
X61222255Y-54128139D01*
X62050395Y-53300000D01*
X62036252Y-53285858D01*
X62215858Y-53106252D01*
X62230000Y-53120395D01*
X62244142Y-53106252D01*
X62423748Y-53285858D01*
X62409605Y-53300000D01*
X63237745Y-54128139D01*
X63483864Y-54054005D01*
X63676965Y-53516777D01*
X63649778Y-52946546D01*
X63483864Y-52545995D01*
X63237747Y-52471861D01*
X63352622Y-52356986D01*
X63285963Y-52290327D01*
X63313661Y-52284818D01*
X63340701Y-52266750D01*
X72083000Y-52266750D01*
X72083000Y-53053250D01*
X72383980Y-53779881D01*
X72940119Y-54336020D01*
X73666750Y-54637000D01*
X74301760Y-54637000D01*
X74973001Y-55308241D01*
X74973000Y-58867805D01*
X74808697Y-59113703D01*
X74694064Y-59690000D01*
X74808697Y-60266297D01*
X74973001Y-60512196D01*
X74973000Y-61721760D01*
X74604513Y-62090247D01*
X74121669Y-62290247D01*
X73720247Y-62691669D01*
X73503000Y-63216152D01*
X73503000Y-63783848D01*
X73703001Y-64266695D01*
X73703000Y-67732717D01*
X73663758Y-67930000D01*
X73663758Y-69230000D01*
X73720182Y-69513661D01*
X73880863Y-69754137D01*
X74121339Y-69914818D01*
X74405000Y-69971242D01*
X75455000Y-69971242D01*
X75738661Y-69914818D01*
X75979137Y-69754137D01*
X76139818Y-69513661D01*
X76196242Y-69230000D01*
X76196242Y-67930000D01*
X76157000Y-67732718D01*
X76157000Y-64266693D01*
X76339753Y-63825487D01*
X76982170Y-63183070D01*
X77084617Y-63114617D01*
X77199147Y-62943212D01*
X77355808Y-62708752D01*
X77384287Y-62565577D01*
X77427000Y-62350847D01*
X77427000Y-62350844D01*
X77451037Y-62230001D01*
X77427000Y-62109158D01*
X77427000Y-60512195D01*
X77591303Y-60266297D01*
X77705936Y-59690000D01*
X77591303Y-59113703D01*
X77427000Y-58867805D01*
X77427000Y-54920842D01*
X77451037Y-54799999D01*
X77427000Y-54679156D01*
X77427000Y-54679153D01*
X77355808Y-54321248D01*
X77210485Y-54103757D01*
X77153071Y-54017831D01*
X77153070Y-54017830D01*
X77084617Y-53915383D01*
X76982170Y-53846930D01*
X76037000Y-52901760D01*
X76037000Y-52266750D01*
X75736020Y-51540119D01*
X75179881Y-50983980D01*
X74453250Y-50683000D01*
X73666750Y-50683000D01*
X72940119Y-50983980D01*
X72383980Y-51540119D01*
X72083000Y-52266750D01*
X63340701Y-52266750D01*
X63554137Y-52124137D01*
X63714818Y-51883661D01*
X63771242Y-51600000D01*
X63771242Y-51135086D01*
X63807000Y-50955318D01*
X63807000Y-50125313D01*
X63837894Y-49969997D01*
X63807000Y-49814680D01*
X63807000Y-49814679D01*
X63715501Y-49354683D01*
X63366953Y-48833045D01*
X63235280Y-48745064D01*
X63014937Y-48524721D01*
X62926955Y-48393047D01*
X62405317Y-48044499D01*
X61945321Y-47953000D01*
X61945317Y-47953000D01*
X61790002Y-47922106D01*
X61634687Y-47953000D01*
X60147000Y-47953000D01*
X60147000Y-47447000D01*
X62400091Y-47447000D01*
X62903842Y-47346798D01*
X62957055Y-47311242D01*
X63080000Y-47311242D01*
X63363661Y-47254818D01*
X63604137Y-47094137D01*
X63722625Y-46916807D01*
X64154685Y-47205501D01*
X64614681Y-47297000D01*
X68544685Y-47297000D01*
X68700000Y-47327894D01*
X68855315Y-47297000D01*
X68855319Y-47297000D01*
X69315315Y-47205501D01*
X69836953Y-46856953D01*
X69924935Y-46725279D01*
X74013215Y-42637000D01*
X74452978Y-42637000D01*
X75271494Y-42297960D01*
X75897960Y-41671494D01*
X76237000Y-40852978D01*
X76237000Y-39967022D01*
X76169979Y-39805218D01*
X84833000Y-48468240D01*
X84833001Y-51091098D01*
X84383980Y-51540119D01*
X84083000Y-52266750D01*
X84083000Y-52901760D01*
X83037831Y-53946930D01*
X82935384Y-54015383D01*
X82866931Y-54117830D01*
X82866929Y-54117832D01*
X82664192Y-54421250D01*
X82568963Y-54900000D01*
X82593001Y-55020847D01*
X82593000Y-58384367D01*
X82545863Y-58415863D01*
X82385182Y-58656339D01*
X82328758Y-58940000D01*
X82328758Y-60129305D01*
X82237000Y-60037547D01*
X82237000Y-54167022D01*
X82151417Y-53960406D01*
X82107788Y-53741068D01*
X81983544Y-53555123D01*
X81897960Y-53348506D01*
X81739821Y-53190367D01*
X81615577Y-53004423D01*
X81429633Y-52880179D01*
X81271494Y-52722040D01*
X81064877Y-52636456D01*
X80878932Y-52512212D01*
X80659594Y-52468583D01*
X80452978Y-52383000D01*
X80229338Y-52383000D01*
X80010000Y-52339371D01*
X79790662Y-52383000D01*
X79567022Y-52383000D01*
X79360405Y-52468583D01*
X79141069Y-52512212D01*
X78955126Y-52636455D01*
X78748506Y-52722040D01*
X78590365Y-52880181D01*
X78404424Y-53004423D01*
X78280182Y-53190364D01*
X78122040Y-53348506D01*
X78036455Y-53555127D01*
X77912213Y-53741068D01*
X77868585Y-53960401D01*
X77783000Y-54167022D01*
X77783000Y-55052978D01*
X77783001Y-55052980D01*
X77783000Y-60740667D01*
X77739372Y-60960000D01*
X77783000Y-61179333D01*
X77783000Y-61179337D01*
X77912212Y-61828931D01*
X78404423Y-62565577D01*
X78590370Y-62689823D01*
X82098318Y-66197772D01*
X82098318Y-68290440D01*
X82154742Y-68574101D01*
X82315423Y-68814577D01*
X82555899Y-68975258D01*
X82839560Y-69031682D01*
X87340440Y-69031682D01*
X87624101Y-68975258D01*
X87864577Y-68814577D01*
X88025258Y-68574101D01*
X88081682Y-68290440D01*
X88081682Y-63789560D01*
X88025258Y-63505899D01*
X87864577Y-63265423D01*
X87624101Y-63104742D01*
X87340440Y-63048318D01*
X85247772Y-63048318D01*
X83380695Y-61181242D01*
X84570000Y-61181242D01*
X84853661Y-61124818D01*
X85094137Y-60964137D01*
X85254818Y-60723661D01*
X85311242Y-60440000D01*
X85311242Y-58940000D01*
X85254818Y-58656339D01*
X85094137Y-58415863D01*
X85047000Y-58384367D01*
X85047000Y-55408239D01*
X85818240Y-54637000D01*
X86453250Y-54637000D01*
X87179881Y-54336020D01*
X87736020Y-53779881D01*
X88037000Y-53053250D01*
X88037000Y-52266750D01*
X87736020Y-51540119D01*
X87287000Y-51091099D01*
X87287000Y-48080843D01*
X87311037Y-47960000D01*
X87287000Y-47839157D01*
X87287000Y-47839153D01*
X87215808Y-47481248D01*
X86944617Y-47075383D01*
X86842170Y-47006930D01*
X79852262Y-40017022D01*
X83833000Y-40017022D01*
X83833000Y-40902978D01*
X84172040Y-41721494D01*
X84798506Y-42347960D01*
X85617022Y-42687000D01*
X86502978Y-42687000D01*
X87321494Y-42347960D01*
X87947960Y-41721494D01*
X88287000Y-40902978D01*
X88287000Y-40017022D01*
X87947960Y-39198506D01*
X87321494Y-38572040D01*
X86502978Y-38233000D01*
X85617022Y-38233000D01*
X84798506Y-38572040D01*
X84172040Y-39198506D01*
X83833000Y-40017022D01*
X79852262Y-40017022D01*
X75883072Y-36047833D01*
X75814617Y-35945383D01*
X75408752Y-35674192D01*
X75050847Y-35603000D01*
X75050843Y-35603000D01*
X74930000Y-35578963D01*
X74809157Y-35603000D01*
X72510842Y-35603000D01*
X72389999Y-35578963D01*
X72269156Y-35603000D01*
X72269153Y-35603000D01*
X71951175Y-35666250D01*
X71911248Y-35674192D01*
X71697574Y-35816965D01*
X71505383Y-35945383D01*
X71436930Y-36047830D01*
X69341761Y-38143000D01*
X60278534Y-38143000D01*
X60025577Y-37764423D01*
X59288932Y-37272212D01*
X58639338Y-37143000D01*
X46027000Y-37143000D01*
X46027000Y-36674681D01*
X45991242Y-36494914D01*
X45991242Y-36030000D01*
X45934818Y-35746339D01*
X45774137Y-35505863D01*
X45582395Y-35377745D01*
X51241861Y-35377745D01*
X51315995Y-35623864D01*
X51853223Y-35816965D01*
X52423454Y-35789778D01*
X52824005Y-35623864D01*
X52898139Y-35377745D01*
X52070000Y-34549605D01*
X51241861Y-35377745D01*
X45582395Y-35377745D01*
X45533661Y-35345182D01*
X45505963Y-35339673D01*
X45572622Y-35273014D01*
X45457747Y-35158139D01*
X45703864Y-35084005D01*
X45896965Y-34546777D01*
X45878202Y-34153223D01*
X50623035Y-34153223D01*
X50650222Y-34723454D01*
X50816136Y-35124005D01*
X51062255Y-35198139D01*
X51890395Y-34370000D01*
X52249605Y-34370000D01*
X53077745Y-35198139D01*
X53323864Y-35124005D01*
X53516965Y-34586777D01*
X53489778Y-34016546D01*
X53485473Y-34006152D01*
X56993000Y-34006152D01*
X56993000Y-34573848D01*
X57210247Y-35098331D01*
X57611669Y-35499753D01*
X58136152Y-35717000D01*
X58703848Y-35717000D01*
X59186693Y-35517000D01*
X63696074Y-35517000D01*
X63848378Y-35669304D01*
X64446370Y-35917000D01*
X65093630Y-35917000D01*
X65691622Y-35669304D01*
X65853969Y-35506957D01*
X65871673Y-35549699D01*
X66050302Y-35728327D01*
X66283691Y-35825000D01*
X67024250Y-35825000D01*
X67183000Y-35666250D01*
X67183000Y-34417000D01*
X67437000Y-34417000D01*
X67437000Y-35666250D01*
X67595750Y-35825000D01*
X68336309Y-35825000D01*
X68569698Y-35728327D01*
X68748327Y-35549699D01*
X68845000Y-35316310D01*
X68845000Y-34575750D01*
X68686250Y-34417000D01*
X67437000Y-34417000D01*
X67183000Y-34417000D01*
X67163000Y-34417000D01*
X67163000Y-34163000D01*
X67183000Y-34163000D01*
X67183000Y-32913750D01*
X67437000Y-32913750D01*
X67437000Y-34163000D01*
X68686250Y-34163000D01*
X68845000Y-34004250D01*
X68845000Y-33263690D01*
X68748327Y-33030301D01*
X68569698Y-32851673D01*
X68336309Y-32755000D01*
X67595750Y-32755000D01*
X67437000Y-32913750D01*
X67183000Y-32913750D01*
X67024250Y-32755000D01*
X66283691Y-32755000D01*
X66050302Y-32851673D01*
X65871673Y-33030301D01*
X65853969Y-33073043D01*
X65691622Y-32910696D01*
X65093630Y-32663000D01*
X64446370Y-32663000D01*
X63848378Y-32910696D01*
X63696074Y-33063000D01*
X59186693Y-33063000D01*
X58703848Y-32863000D01*
X58136152Y-32863000D01*
X57611669Y-33080247D01*
X57210247Y-33481669D01*
X56993000Y-34006152D01*
X53485473Y-34006152D01*
X53323864Y-33615995D01*
X53077745Y-33541861D01*
X52249605Y-34370000D01*
X51890395Y-34370000D01*
X51062255Y-33541861D01*
X50816136Y-33615995D01*
X50623035Y-34153223D01*
X45878202Y-34153223D01*
X45869778Y-33976546D01*
X45703864Y-33575995D01*
X45457745Y-33501861D01*
X44629605Y-34330000D01*
X44643748Y-34344142D01*
X44464142Y-34523748D01*
X44450000Y-34509605D01*
X44435858Y-34523748D01*
X44256252Y-34344142D01*
X44270395Y-34330000D01*
X43442255Y-33501861D01*
X43196136Y-33575995D01*
X43003035Y-34113223D01*
X43030222Y-34683454D01*
X43196136Y-35084005D01*
X43442253Y-35158139D01*
X43327378Y-35273014D01*
X43394037Y-35339673D01*
X43366339Y-35345182D01*
X43125863Y-35505863D01*
X42965182Y-35746339D01*
X42908758Y-36030000D01*
X42908758Y-36494915D01*
X42873000Y-36674682D01*
X42873000Y-37143000D01*
X42229339Y-37143000D01*
X42010001Y-37099371D01*
X41790663Y-37143000D01*
X38813735Y-37143000D01*
X38516584Y-36845849D01*
X37422250Y-36392560D01*
X36237750Y-36392560D01*
X35143416Y-36845849D01*
X34305849Y-37683416D01*
X33852560Y-38777750D01*
X33852560Y-39962250D01*
X34305849Y-41056584D01*
X35143416Y-41894151D01*
X35285490Y-41953000D01*
X34410842Y-41953000D01*
X34289999Y-41928963D01*
X34169156Y-41953000D01*
X34169153Y-41953000D01*
X33811248Y-42024192D01*
X33405383Y-42295383D01*
X33336930Y-42397831D01*
X32237831Y-43496930D01*
X32135384Y-43565383D01*
X32066931Y-43667830D01*
X32066929Y-43667832D01*
X31937347Y-43861765D01*
X31870260Y-43962169D01*
X31864192Y-43971250D01*
X31768963Y-44450000D01*
X28067000Y-44450000D01*
X28067000Y-33305750D01*
X33944560Y-33305750D01*
X33944560Y-35396749D01*
X34041233Y-35630138D01*
X34219861Y-35808767D01*
X34453250Y-35905440D01*
X36544250Y-35905440D01*
X36703000Y-35746690D01*
X36703000Y-33147000D01*
X36957000Y-33147000D01*
X36957000Y-35746690D01*
X37115750Y-35905440D01*
X39206750Y-35905440D01*
X39440139Y-35808767D01*
X39618767Y-35630138D01*
X39715440Y-35396749D01*
X39715440Y-33322255D01*
X43621861Y-33322255D01*
X44450000Y-34150395D01*
X45238139Y-33362255D01*
X51241861Y-33362255D01*
X52070000Y-34190395D01*
X52898139Y-33362255D01*
X52824005Y-33116136D01*
X52286777Y-32923035D01*
X51716546Y-32950222D01*
X51315995Y-33116136D01*
X51241861Y-33362255D01*
X45238139Y-33362255D01*
X45278139Y-33322255D01*
X45204005Y-33076136D01*
X44666777Y-32883035D01*
X44096546Y-32910222D01*
X43695995Y-33076136D01*
X43621861Y-33322255D01*
X39715440Y-33322255D01*
X39715440Y-33305750D01*
X39556690Y-33147000D01*
X36957000Y-33147000D01*
X36703000Y-33147000D01*
X34103310Y-33147000D01*
X33944560Y-33305750D01*
X28067000Y-33305750D01*
X28067000Y-30643251D01*
X33944560Y-30643251D01*
X33944560Y-32734250D01*
X34103310Y-32893000D01*
X36703000Y-32893000D01*
X36703000Y-30293310D01*
X36957000Y-30293310D01*
X36957000Y-32893000D01*
X39556690Y-32893000D01*
X39715440Y-32734250D01*
X39715440Y-30643251D01*
X39618767Y-30409862D01*
X39440139Y-30231233D01*
X39206750Y-30134560D01*
X37115750Y-30134560D01*
X36957000Y-30293310D01*
X36703000Y-30293310D01*
X36544250Y-30134560D01*
X34453250Y-30134560D01*
X34219861Y-30231233D01*
X34041233Y-30409862D01*
X33944560Y-30643251D01*
X28067000Y-30643251D01*
X28067000Y-26797000D01*
X92583000Y-26797000D01*
X92583000Y-91313000D01*
X92583000Y-91313000D01*
G37*
X92583000Y-91313000D02*
X28067000Y-91313000D01*
X28067000Y-68317745D01*
X36081861Y-68317745D01*
X36155995Y-68563864D01*
X36693223Y-68756965D01*
X37263454Y-68729778D01*
X37664005Y-68563864D01*
X37738139Y-68317745D01*
X36910000Y-67489605D01*
X36081861Y-68317745D01*
X28067000Y-68317745D01*
X28067000Y-67093223D01*
X35463035Y-67093223D01*
X35490222Y-67663454D01*
X35656136Y-68064005D01*
X35902255Y-68138139D01*
X36730395Y-67310000D01*
X37089605Y-67310000D01*
X37917745Y-68138139D01*
X38163864Y-68064005D01*
X38356965Y-67526777D01*
X38329778Y-66956546D01*
X38163864Y-66555995D01*
X37917745Y-66481861D01*
X37089605Y-67310000D01*
X36730395Y-67310000D01*
X35902255Y-66481861D01*
X35656136Y-66555995D01*
X35463035Y-67093223D01*
X28067000Y-67093223D01*
X28067000Y-66302255D01*
X36081861Y-66302255D01*
X36910000Y-67130395D01*
X37738139Y-66302255D01*
X37664005Y-66056136D01*
X37126777Y-65863035D01*
X36556546Y-65890222D01*
X36155995Y-66056136D01*
X36081861Y-66302255D01*
X28067000Y-66302255D01*
X28067000Y-44450000D01*
X31768963Y-44450000D01*
X31793001Y-44570847D01*
X31793000Y-57029157D01*
X31768963Y-57150000D01*
X31793000Y-57270843D01*
X31793000Y-57270846D01*
X31864192Y-57628751D01*
X32135383Y-58034617D01*
X32237833Y-58103072D01*
X35511334Y-61376574D01*
X35525642Y-61448506D01*
X35603001Y-61564282D01*
X35603000Y-62733306D01*
X35403000Y-63216152D01*
X35403000Y-63783848D01*
X35620247Y-64308331D01*
X36021669Y-64709753D01*
X36546152Y-64927000D01*
X37113848Y-64927000D01*
X37638331Y-64709753D01*
X38039753Y-64308331D01*
X38257000Y-63783848D01*
X38257000Y-63216152D01*
X38057000Y-62733307D01*
X38057000Y-61564281D01*
X38134358Y-61448506D01*
X38231528Y-60960000D01*
X38134358Y-60471494D01*
X37857642Y-60057358D01*
X37443506Y-59780642D01*
X37371574Y-59766334D01*
X37252240Y-59647000D01*
X39249157Y-59647000D01*
X39370000Y-59671037D01*
X39490843Y-59647000D01*
X39490847Y-59647000D01*
X39848752Y-59575808D01*
X40254617Y-59304617D01*
X40323072Y-59202167D01*
X43505487Y-56019752D01*
X43988331Y-55819753D01*
X44389753Y-55418331D01*
X44607000Y-54893848D01*
X44607000Y-54326152D01*
X44487229Y-54036999D01*
X46926629Y-54036999D01*
X46915796Y-54053212D01*
X46805044Y-54610000D01*
X46915796Y-55166788D01*
X47231191Y-55638809D01*
X47703212Y-55954204D01*
X48119456Y-56037000D01*
X48400544Y-56037000D01*
X48816788Y-55954204D01*
X49288809Y-55638809D01*
X49604204Y-55166788D01*
X49714956Y-54610000D01*
X49604204Y-54053212D01*
X49487000Y-53877804D01*
X49487000Y-53460843D01*
X49511037Y-53340000D01*
X49487000Y-53219157D01*
X49487000Y-53219153D01*
X49415808Y-52861248D01*
X49281338Y-52660000D01*
X49213072Y-52557832D01*
X49213070Y-52557830D01*
X49144617Y-52455383D01*
X49042169Y-52386929D01*
X48683071Y-52027831D01*
X48614616Y-51925382D01*
X48208751Y-51654191D01*
X47850846Y-51582999D01*
X47850842Y-51582999D01*
X47729999Y-51558962D01*
X47609156Y-51582999D01*
X40020844Y-51582999D01*
X39900001Y-51558962D01*
X39779158Y-51582999D01*
X39779154Y-51582999D01*
X39421249Y-51654191D01*
X39294274Y-51739033D01*
X38268906Y-50713666D01*
X38363661Y-50694818D01*
X38604137Y-50534137D01*
X38764818Y-50293661D01*
X38821242Y-50010000D01*
X38821242Y-46510000D01*
X38764818Y-46226339D01*
X38604137Y-45985863D01*
X38363661Y-45825182D01*
X38080000Y-45768758D01*
X35580000Y-45768758D01*
X35296339Y-45825182D01*
X35055863Y-45985863D01*
X34895182Y-46226339D01*
X34838758Y-46510000D01*
X34838758Y-50010000D01*
X34895182Y-50293661D01*
X35055863Y-50534137D01*
X35296339Y-50694818D01*
X35580000Y-50751242D01*
X35603001Y-50751242D01*
X35603001Y-50889153D01*
X35578963Y-51010000D01*
X35674192Y-51488750D01*
X35674193Y-51488751D01*
X35674193Y-51488752D01*
X35721106Y-51558962D01*
X35876929Y-51792168D01*
X35876931Y-51792170D01*
X35945384Y-51894617D01*
X36047831Y-51963070D01*
X37529760Y-53445000D01*
X36361003Y-54613758D01*
X36180000Y-54613758D01*
X35896339Y-54670182D01*
X35655863Y-54830863D01*
X35495182Y-55071339D01*
X35438758Y-55355000D01*
X35438758Y-56405000D01*
X35495182Y-56688661D01*
X35655863Y-56929137D01*
X35896339Y-57089818D01*
X36180000Y-57146242D01*
X37480000Y-57146242D01*
X37763661Y-57089818D01*
X38004137Y-56929137D01*
X38164818Y-56688661D01*
X38221242Y-56405000D01*
X38221242Y-56223997D01*
X40152170Y-54293070D01*
X40254617Y-54224617D01*
X40323072Y-54122168D01*
X40408240Y-54036999D01*
X41872771Y-54036999D01*
X41770248Y-54284513D01*
X38861761Y-57193000D01*
X37203993Y-57193000D01*
X37078310Y-57168000D01*
X36581690Y-57168000D01*
X36216494Y-57240642D01*
X35802358Y-57517358D01*
X35530085Y-57924845D01*
X34247000Y-56641761D01*
X34247000Y-44958239D01*
X34798240Y-44407000D01*
X37138189Y-44407000D01*
X37314150Y-44442001D01*
X37314154Y-44442001D01*
X37434997Y-44466038D01*
X37555840Y-44442001D01*
X40078001Y-44442001D01*
X40078000Y-48479337D01*
X40207212Y-49128931D01*
X40428542Y-49460175D01*
X40442707Y-49531387D01*
X40879664Y-50185337D01*
X41533614Y-50622293D01*
X42305000Y-50775731D01*
X43076387Y-50622293D01*
X43730337Y-50185337D01*
X44167293Y-49531387D01*
X44181458Y-49460176D01*
X44402788Y-49128932D01*
X44532000Y-48479338D01*
X44532000Y-43729338D01*
X44575629Y-43510000D01*
X44402788Y-42641068D01*
X44237001Y-42392951D01*
X44237001Y-41597000D01*
X58639338Y-41597000D01*
X59288932Y-41467788D01*
X60025577Y-40975577D01*
X60278534Y-40597000D01*
X69729157Y-40597000D01*
X69850000Y-40621037D01*
X69970843Y-40597000D01*
X69970847Y-40597000D01*
X70328752Y-40525808D01*
X70734617Y-40254617D01*
X70803072Y-40152167D01*
X72898240Y-38057000D01*
X74421761Y-38057000D01*
X74614782Y-38250022D01*
X74452978Y-38183000D01*
X73567022Y-38183000D01*
X72748506Y-38522040D01*
X72122040Y-39148506D01*
X71783000Y-39967022D01*
X71783000Y-40406785D01*
X68046786Y-44143000D01*
X64614681Y-44143000D01*
X64154685Y-44234499D01*
X63722625Y-44523193D01*
X63604137Y-44345863D01*
X63363661Y-44185182D01*
X63080000Y-44128758D01*
X62957055Y-44128758D01*
X62903842Y-44093202D01*
X62400091Y-43993000D01*
X59550090Y-43993000D01*
X59379999Y-43959167D01*
X59209909Y-43993000D01*
X58706158Y-44093202D01*
X58134903Y-44474903D01*
X58038550Y-44619105D01*
X57319105Y-45338550D01*
X57174903Y-45434903D01*
X56806763Y-45985863D01*
X56793202Y-46006159D01*
X56659167Y-46680000D01*
X56693000Y-46850091D01*
X56693000Y-47303000D01*
X55532453Y-47303000D01*
X55069823Y-46840370D01*
X54945577Y-46654423D01*
X54208932Y-46162212D01*
X53559338Y-46033000D01*
X53559333Y-46033000D01*
X53340000Y-45989372D01*
X53120667Y-46033000D01*
X48753866Y-46033000D01*
X48551386Y-45897707D01*
X47780000Y-45744269D01*
X47008613Y-45897707D01*
X46354663Y-46334663D01*
X45917707Y-46988614D01*
X45903543Y-47059824D01*
X45682212Y-47391068D01*
X45509371Y-48260000D01*
X45682212Y-49128932D01*
X45903542Y-49460176D01*
X45917707Y-49531387D01*
X46354664Y-50185337D01*
X47008614Y-50622293D01*
X47780000Y-50775731D01*
X48551387Y-50622293D01*
X48753867Y-50487000D01*
X51917761Y-50487000D01*
X51287831Y-51116930D01*
X51185384Y-51185383D01*
X51116931Y-51287830D01*
X51116929Y-51287832D01*
X51114924Y-51290833D01*
X50921017Y-51581036D01*
X50914192Y-51591250D01*
X50818963Y-52070000D01*
X50843001Y-52190847D01*
X50843000Y-57029157D01*
X50818963Y-57150000D01*
X50843000Y-57270843D01*
X50843000Y-57270846D01*
X50914192Y-57628751D01*
X51185383Y-58034617D01*
X51287833Y-58103072D01*
X52239760Y-59055000D01*
X50800000Y-60494760D01*
X49669753Y-59364514D01*
X49469753Y-58881669D01*
X49068331Y-58480247D01*
X48543848Y-58263000D01*
X47976152Y-58263000D01*
X47451669Y-58480247D01*
X47050247Y-58881669D01*
X46833000Y-59406152D01*
X46833000Y-59973848D01*
X47050247Y-60498331D01*
X47451669Y-60899753D01*
X47934514Y-61099753D01*
X49573001Y-62738241D01*
X49573000Y-72354367D01*
X49525863Y-72385863D01*
X49365182Y-72626339D01*
X49308758Y-72910000D01*
X49308758Y-73416002D01*
X49021761Y-73703000D01*
X47756693Y-73703000D01*
X47273848Y-73503000D01*
X46706152Y-73503000D01*
X46181669Y-73720247D01*
X45780247Y-74121669D01*
X45580247Y-74604513D01*
X45211761Y-74973000D01*
X43144185Y-74973000D01*
X43079831Y-74930000D01*
X43168352Y-74870852D01*
X43539554Y-74315308D01*
X43669903Y-73660000D01*
X43539554Y-73004692D01*
X43168352Y-72449148D01*
X43137000Y-72428199D01*
X43137000Y-68242504D01*
X43204528Y-68174976D01*
X43437000Y-67613739D01*
X43437000Y-67006261D01*
X43204528Y-66445024D01*
X43137000Y-66377496D01*
X43137000Y-64232196D01*
X43254204Y-64056788D01*
X43295361Y-63849879D01*
X43962170Y-63183070D01*
X44064617Y-63114617D01*
X44179147Y-62943212D01*
X44335808Y-62708752D01*
X44364287Y-62565577D01*
X44407000Y-62350847D01*
X44407000Y-62350844D01*
X44431037Y-62230001D01*
X44407000Y-62109158D01*
X44407000Y-60422196D01*
X44524204Y-60246788D01*
X44634956Y-59690000D01*
X44524204Y-59133212D01*
X44208809Y-58661191D01*
X43736788Y-58345796D01*
X43320544Y-58263000D01*
X43039456Y-58263000D01*
X42623212Y-58345796D01*
X42151191Y-58661191D01*
X41835796Y-59133212D01*
X41725044Y-59690000D01*
X41835796Y-60246788D01*
X41953001Y-60422197D01*
X41953000Y-61721760D01*
X41560121Y-62114639D01*
X41353212Y-62155796D01*
X40881191Y-62471191D01*
X40565796Y-62943212D01*
X40455044Y-63500000D01*
X40565796Y-64056788D01*
X40683001Y-64232197D01*
X40683000Y-66377496D01*
X40615472Y-66445024D01*
X40383000Y-67006261D01*
X40383000Y-67613739D01*
X40615472Y-68174976D01*
X40683001Y-68242505D01*
X40683000Y-72428199D01*
X40651648Y-72449148D01*
X40280446Y-73004692D01*
X40150097Y-73660000D01*
X40280446Y-74315308D01*
X40651648Y-74870852D01*
X40740169Y-74930000D01*
X40651648Y-74989148D01*
X40280446Y-75544692D01*
X40150097Y-76200000D01*
X40280446Y-76855308D01*
X40501480Y-77186110D01*
X40385863Y-77263363D01*
X40225182Y-77503839D01*
X40168758Y-77787500D01*
X40168758Y-79692500D01*
X40225182Y-79976161D01*
X40385863Y-80216637D01*
X40626339Y-80377318D01*
X40910000Y-80433742D01*
X42910000Y-80433742D01*
X43193661Y-80377318D01*
X43434137Y-80216637D01*
X43594818Y-79976161D01*
X43596640Y-79967000D01*
X45211761Y-79967000D01*
X45604639Y-80359879D01*
X45645796Y-80566788D01*
X45961191Y-81038809D01*
X46433212Y-81354204D01*
X46849456Y-81437000D01*
X47130544Y-81437000D01*
X47546788Y-81354204D01*
X47722196Y-81237000D01*
X49021761Y-81237000D01*
X49064761Y-81280000D01*
X47477831Y-82866930D01*
X47375384Y-82935383D01*
X47306930Y-83037831D01*
X47306929Y-83037832D01*
X47273119Y-83088433D01*
X46998579Y-83202151D01*
X46372151Y-83828579D01*
X46355000Y-83869985D01*
X46337849Y-83828579D01*
X45711421Y-83202151D01*
X44892952Y-82863130D01*
X44007048Y-82863130D01*
X43188579Y-83202151D01*
X42867754Y-83522976D01*
X42824688Y-83306469D01*
X42664007Y-83065993D01*
X42423531Y-82905312D01*
X42139870Y-82848888D01*
X39140130Y-82848888D01*
X38856469Y-82905312D01*
X38615993Y-83065993D01*
X38455312Y-83306469D01*
X38398888Y-83590130D01*
X38398888Y-86589870D01*
X38455312Y-86873531D01*
X38615993Y-87114007D01*
X38856469Y-87274688D01*
X39140130Y-87331112D01*
X39413001Y-87331112D01*
X39413001Y-87469023D01*
X39388963Y-87589870D01*
X39484192Y-88068620D01*
X39484193Y-88068621D01*
X39484193Y-88068622D01*
X39517074Y-88117832D01*
X39686929Y-88372038D01*
X39686931Y-88372040D01*
X39755384Y-88474487D01*
X39857831Y-88542940D01*
X40997061Y-89682172D01*
X41065513Y-89784617D01*
X41167957Y-89853068D01*
X41167961Y-89853072D01*
X41366451Y-89985698D01*
X41471378Y-90055808D01*
X41829283Y-90127000D01*
X41829287Y-90127000D01*
X41950130Y-90151037D01*
X42070973Y-90127000D01*
X51949157Y-90127000D01*
X52070000Y-90151037D01*
X52190843Y-90127000D01*
X52190847Y-90127000D01*
X52548752Y-90055808D01*
X52954617Y-89784617D01*
X53023072Y-89682167D01*
X54122170Y-88583070D01*
X54224617Y-88514617D01*
X54319886Y-88372038D01*
X54495808Y-88108752D01*
X54514380Y-88015383D01*
X54567000Y-87750847D01*
X54567000Y-87750844D01*
X54591037Y-87630001D01*
X54567000Y-87509158D01*
X54567000Y-86992107D01*
X54601421Y-86977849D01*
X54975393Y-86603877D01*
X55815728Y-86603877D01*
X55975495Y-86922632D01*
X56766217Y-87232595D01*
X57615366Y-87216367D01*
X58324505Y-86922632D01*
X58484272Y-86603877D01*
X57150000Y-85269605D01*
X55815728Y-86603877D01*
X54975393Y-86603877D01*
X55227849Y-86351421D01*
X55290609Y-86199904D01*
X55317368Y-86264505D01*
X55636123Y-86424272D01*
X56970395Y-85090000D01*
X57329605Y-85090000D01*
X58663877Y-86424272D01*
X58825130Y-86343448D01*
X58825130Y-86716180D01*
X58921803Y-86949569D01*
X59100432Y-87128197D01*
X59333821Y-87224870D01*
X60674250Y-87224870D01*
X60833000Y-87066120D01*
X60833000Y-85217000D01*
X61087000Y-85217000D01*
X61087000Y-87066120D01*
X61245750Y-87224870D01*
X62586179Y-87224870D01*
X62819568Y-87128197D01*
X62998197Y-86949569D01*
X63094870Y-86716180D01*
X63094870Y-85375750D01*
X62936120Y-85217000D01*
X61087000Y-85217000D01*
X60833000Y-85217000D01*
X60813000Y-85217000D01*
X60813000Y-84963000D01*
X60833000Y-84963000D01*
X60833000Y-83113880D01*
X61087000Y-83113880D01*
X61087000Y-84963000D01*
X62936120Y-84963000D01*
X63092968Y-84806152D01*
X70963000Y-84806152D01*
X70963000Y-85373848D01*
X71180247Y-85898331D01*
X71581669Y-86299753D01*
X72106152Y-86517000D01*
X72673848Y-86517000D01*
X73198331Y-86299753D01*
X73599753Y-85898331D01*
X73817000Y-85373848D01*
X73817000Y-85090000D01*
X76015044Y-85090000D01*
X76125796Y-85646788D01*
X76441191Y-86118809D01*
X76913212Y-86434204D01*
X77329456Y-86517000D01*
X77610544Y-86517000D01*
X78026788Y-86434204D01*
X78202196Y-86317000D01*
X81077549Y-86317000D01*
X81175863Y-86464137D01*
X81416339Y-86624818D01*
X81700000Y-86681242D01*
X83400000Y-86681242D01*
X83683661Y-86624818D01*
X83924137Y-86464137D01*
X84084818Y-86223661D01*
X84098146Y-86156658D01*
X84323076Y-86361645D01*
X84733110Y-86531476D01*
X84963000Y-86410155D01*
X84963000Y-85217000D01*
X85217000Y-85217000D01*
X85217000Y-86410155D01*
X85446890Y-86531476D01*
X85856924Y-86361645D01*
X86285183Y-85971358D01*
X86531486Y-85446892D01*
X86410819Y-85217000D01*
X85217000Y-85217000D01*
X84963000Y-85217000D01*
X84943000Y-85217000D01*
X84943000Y-84963000D01*
X84963000Y-84963000D01*
X84963000Y-83769845D01*
X85217000Y-83769845D01*
X85217000Y-84963000D01*
X86410819Y-84963000D01*
X86531486Y-84733108D01*
X86285183Y-84208642D01*
X85856924Y-83818355D01*
X85446890Y-83648524D01*
X85217000Y-83769845D01*
X84963000Y-83769845D01*
X84733110Y-83648524D01*
X84323076Y-83818355D01*
X84098146Y-84023342D01*
X84084818Y-83956339D01*
X83924137Y-83715863D01*
X83683661Y-83555182D01*
X83400000Y-83498758D01*
X81700000Y-83498758D01*
X81416339Y-83555182D01*
X81175863Y-83715863D01*
X81077549Y-83863000D01*
X78202196Y-83863000D01*
X78026788Y-83745796D01*
X77610544Y-83663000D01*
X77329456Y-83663000D01*
X76913212Y-83745796D01*
X76441191Y-84061191D01*
X76125796Y-84533212D01*
X76015044Y-85090000D01*
X73817000Y-85090000D01*
X73817000Y-84806152D01*
X73617000Y-84323307D01*
X73617000Y-74445786D01*
X83213819Y-74445786D01*
X83465111Y-74842533D01*
X84527342Y-75277664D01*
X85675233Y-75273173D01*
X86714889Y-74842533D01*
X86966181Y-74445786D01*
X85090000Y-72569605D01*
X83213819Y-74445786D01*
X73617000Y-74445786D01*
X73617000Y-71827342D01*
X82202336Y-71827342D01*
X82206827Y-72975233D01*
X82637467Y-74014889D01*
X83034214Y-74266181D01*
X84910395Y-72390000D01*
X85269605Y-72390000D01*
X87145786Y-74266181D01*
X87542533Y-74014889D01*
X87977664Y-72952658D01*
X87973173Y-71804767D01*
X87542533Y-70765111D01*
X87145786Y-70513819D01*
X85269605Y-72390000D01*
X84910395Y-72390000D01*
X83034214Y-70513819D01*
X82637467Y-70765111D01*
X82202336Y-71827342D01*
X73617000Y-71827342D01*
X73617000Y-70334214D01*
X83213819Y-70334214D01*
X85090000Y-72210395D01*
X86966181Y-70334214D01*
X86714889Y-69937467D01*
X85652658Y-69502336D01*
X84504767Y-69506827D01*
X83465111Y-69937467D01*
X83213819Y-70334214D01*
X73617000Y-70334214D01*
X73617000Y-68953992D01*
X73642000Y-68828309D01*
X73642000Y-68331690D01*
X73569358Y-67966494D01*
X73292642Y-67552358D01*
X72878505Y-67275642D01*
X72390000Y-67178472D01*
X71901494Y-67275642D01*
X71487358Y-67552358D01*
X71210642Y-67966495D01*
X71138000Y-68331691D01*
X71138000Y-68828310D01*
X71163000Y-68953994D01*
X71163001Y-84323305D01*
X70963000Y-84806152D01*
X63092968Y-84806152D01*
X63094870Y-84804250D01*
X63094870Y-83463820D01*
X62998197Y-83230431D01*
X62819568Y-83051803D01*
X62586179Y-82955130D01*
X61245750Y-82955130D01*
X61087000Y-83113880D01*
X60833000Y-83113880D01*
X60674250Y-82955130D01*
X59333821Y-82955130D01*
X59100432Y-83051803D01*
X58921803Y-83230431D01*
X58825130Y-83463820D01*
X58825130Y-83836552D01*
X58663877Y-83755728D01*
X57329605Y-85090000D01*
X56970395Y-85090000D01*
X55636123Y-83755728D01*
X55317368Y-83915495D01*
X55291347Y-83981876D01*
X55227849Y-83828579D01*
X54975393Y-83576123D01*
X55815728Y-83576123D01*
X57150000Y-84910395D01*
X58484272Y-83576123D01*
X58324505Y-83257368D01*
X57533783Y-82947405D01*
X56684634Y-82963633D01*
X55975495Y-83257368D01*
X55815728Y-83576123D01*
X54975393Y-83576123D01*
X54601421Y-83202151D01*
X53782952Y-82863130D01*
X52897048Y-82863130D01*
X52078579Y-83202151D01*
X51452151Y-83828579D01*
X51113130Y-84647048D01*
X51113130Y-85532952D01*
X51452151Y-86351421D01*
X52078579Y-86977849D01*
X52113000Y-86992107D01*
X52113000Y-87121760D01*
X51561761Y-87673000D01*
X42458370Y-87673000D01*
X42116482Y-87331112D01*
X42139870Y-87331112D01*
X42423531Y-87274688D01*
X42664007Y-87114007D01*
X42824688Y-86873531D01*
X42867754Y-86657024D01*
X43188579Y-86977849D01*
X44007048Y-87316870D01*
X44892952Y-87316870D01*
X45711421Y-86977849D01*
X46337849Y-86351421D01*
X46355000Y-86310015D01*
X46372151Y-86351421D01*
X46998579Y-86977849D01*
X47817048Y-87316870D01*
X48702952Y-87316870D01*
X49521421Y-86977849D01*
X50147849Y-86351421D01*
X50486870Y-85532952D01*
X50486870Y-84647048D01*
X50147849Y-83828579D01*
X50067255Y-83747985D01*
X51086241Y-82728999D01*
X51376297Y-82671303D01*
X51622195Y-82507000D01*
X54489157Y-82507000D01*
X54610000Y-82531037D01*
X54730843Y-82507000D01*
X54730847Y-82507000D01*
X55088752Y-82435808D01*
X55494617Y-82164617D01*
X55563072Y-82062167D01*
X56088239Y-81537000D01*
X56183739Y-81537000D01*
X56744976Y-81304528D01*
X57174528Y-80874976D01*
X57407000Y-80313739D01*
X57407000Y-79706261D01*
X57174528Y-79145024D01*
X56744976Y-78715472D01*
X56183739Y-78483000D01*
X55576261Y-78483000D01*
X55015024Y-78715472D01*
X54585472Y-79145024D01*
X54353000Y-79706261D01*
X54353000Y-79801761D01*
X54101761Y-80053000D01*
X51622195Y-80053000D01*
X51376297Y-79888697D01*
X51086240Y-79831001D01*
X50483072Y-79227833D01*
X50414617Y-79125383D01*
X50008752Y-78854192D01*
X49650847Y-78783000D01*
X49650843Y-78783000D01*
X49530000Y-78758963D01*
X49409157Y-78783000D01*
X47722196Y-78783000D01*
X47546788Y-78665796D01*
X47339879Y-78624639D01*
X46673072Y-77957833D01*
X46604617Y-77855383D01*
X46198752Y-77584192D01*
X45840847Y-77513000D01*
X45840843Y-77513000D01*
X45720000Y-77488963D01*
X45599157Y-77513000D01*
X43596640Y-77513000D01*
X43594818Y-77503839D01*
X43543476Y-77427000D01*
X45599157Y-77427000D01*
X45720000Y-77451037D01*
X45840843Y-77427000D01*
X45840847Y-77427000D01*
X46198752Y-77355808D01*
X46604617Y-77084617D01*
X46673072Y-76982167D01*
X47315487Y-76339753D01*
X47756693Y-76157000D01*
X49409157Y-76157000D01*
X49530000Y-76181037D01*
X49650843Y-76157000D01*
X49650847Y-76157000D01*
X50008752Y-76085808D01*
X50110615Y-76017745D01*
X55051861Y-76017745D01*
X55125995Y-76263864D01*
X55663223Y-76456965D01*
X56233454Y-76429778D01*
X56634005Y-76263864D01*
X56708139Y-76017745D01*
X55880000Y-75189605D01*
X55051861Y-76017745D01*
X50110615Y-76017745D01*
X50414617Y-75814617D01*
X50483072Y-75712167D01*
X51043998Y-75151242D01*
X51550000Y-75151242D01*
X51833661Y-75094818D01*
X52074137Y-74934137D01*
X52168292Y-74793223D01*
X54433035Y-74793223D01*
X54460222Y-75363454D01*
X54626136Y-75764005D01*
X54872255Y-75838139D01*
X55700395Y-75010000D01*
X56059605Y-75010000D01*
X56887745Y-75838139D01*
X57133864Y-75764005D01*
X57326965Y-75226777D01*
X57299778Y-74656546D01*
X57133864Y-74255995D01*
X56887745Y-74181861D01*
X56059605Y-75010000D01*
X55700395Y-75010000D01*
X54872255Y-74181861D01*
X54626136Y-74255995D01*
X54433035Y-74793223D01*
X52168292Y-74793223D01*
X52234818Y-74693661D01*
X52291242Y-74410000D01*
X52291242Y-74002255D01*
X55051861Y-74002255D01*
X55880000Y-74830395D01*
X56708139Y-74002255D01*
X56634005Y-73756136D01*
X56096777Y-73563035D01*
X55526546Y-73590222D01*
X55125995Y-73756136D01*
X55051861Y-74002255D01*
X52291242Y-74002255D01*
X52291242Y-72910000D01*
X52234818Y-72626339D01*
X52074137Y-72385863D01*
X52027000Y-72354367D01*
X52027000Y-70135750D01*
X61965000Y-70135750D01*
X61965000Y-70876309D01*
X62061673Y-71109698D01*
X62240301Y-71288327D01*
X62473690Y-71385000D01*
X63214250Y-71385000D01*
X63373000Y-71226250D01*
X63373000Y-69977000D01*
X63627000Y-69977000D01*
X63627000Y-71226250D01*
X63785750Y-71385000D01*
X64526310Y-71385000D01*
X64759699Y-71288327D01*
X64938327Y-71109698D01*
X65035000Y-70876309D01*
X65035000Y-70135750D01*
X64876250Y-69977000D01*
X63627000Y-69977000D01*
X63373000Y-69977000D01*
X62123750Y-69977000D01*
X61965000Y-70135750D01*
X52027000Y-70135750D01*
X52027000Y-66986370D01*
X61873000Y-66986370D01*
X61873000Y-67633630D01*
X62120696Y-68231622D01*
X62283043Y-68393969D01*
X62240301Y-68411673D01*
X62061673Y-68590302D01*
X61965000Y-68823691D01*
X61965000Y-69564250D01*
X62123750Y-69723000D01*
X63373000Y-69723000D01*
X63373000Y-69703000D01*
X63627000Y-69703000D01*
X63627000Y-69723000D01*
X64876250Y-69723000D01*
X65035000Y-69564250D01*
X65035000Y-68888422D01*
X68704702Y-68888422D01*
X68862075Y-69312746D01*
X69169851Y-69644547D01*
X69544190Y-69823964D01*
X69723000Y-69698163D01*
X69723000Y-68707000D01*
X69977000Y-68707000D01*
X69977000Y-69698163D01*
X70155810Y-69823964D01*
X70530149Y-69644547D01*
X70837925Y-69312746D01*
X70995298Y-68888422D01*
X70851141Y-68707000D01*
X69977000Y-68707000D01*
X69723000Y-68707000D01*
X68848859Y-68707000D01*
X68704702Y-68888422D01*
X65035000Y-68888422D01*
X65035000Y-68823691D01*
X64938327Y-68590302D01*
X64759699Y-68411673D01*
X64716957Y-68393969D01*
X64839348Y-68271578D01*
X68704702Y-68271578D01*
X68848859Y-68453000D01*
X69723000Y-68453000D01*
X69723000Y-67461837D01*
X69977000Y-67461837D01*
X69977000Y-68453000D01*
X70851141Y-68453000D01*
X70995298Y-68271578D01*
X70837925Y-67847254D01*
X70530149Y-67515453D01*
X70155810Y-67336036D01*
X69977000Y-67461837D01*
X69723000Y-67461837D01*
X69544190Y-67336036D01*
X69169851Y-67515453D01*
X68862075Y-67847254D01*
X68704702Y-68271578D01*
X64839348Y-68271578D01*
X64879304Y-68231622D01*
X65127000Y-67633630D01*
X65127000Y-67418239D01*
X67818240Y-64727000D01*
X69117804Y-64727000D01*
X69293212Y-64844204D01*
X69709456Y-64927000D01*
X69990544Y-64927000D01*
X70406788Y-64844204D01*
X70878809Y-64528809D01*
X71194204Y-64056788D01*
X71304956Y-63500000D01*
X71194204Y-62943212D01*
X70878809Y-62471191D01*
X70406788Y-62155796D01*
X69990544Y-62073000D01*
X69709456Y-62073000D01*
X69293212Y-62155796D01*
X69117804Y-62273000D01*
X67430843Y-62273000D01*
X67310000Y-62248963D01*
X67189157Y-62273000D01*
X67189153Y-62273000D01*
X66831248Y-62344192D01*
X66425383Y-62615383D01*
X66356930Y-62717830D01*
X63391761Y-65683000D01*
X63176370Y-65683000D01*
X62578378Y-65930696D01*
X62120696Y-66388378D01*
X61873000Y-66986370D01*
X52027000Y-66986370D01*
X52027000Y-62738239D01*
X53824033Y-60941207D01*
X54033703Y-61081303D01*
X54464529Y-61167000D01*
X54755471Y-61167000D01*
X55186297Y-61081303D01*
X55674858Y-60754858D01*
X56001303Y-60266297D01*
X56059096Y-59975750D01*
X60845000Y-59975750D01*
X60845000Y-60566310D01*
X60941673Y-60799699D01*
X61120302Y-60978327D01*
X61353691Y-61075000D01*
X61944250Y-61075000D01*
X62103000Y-60916250D01*
X62103000Y-59817000D01*
X62357000Y-59817000D01*
X62357000Y-60916250D01*
X62515750Y-61075000D01*
X63106309Y-61075000D01*
X63339698Y-60978327D01*
X63518327Y-60799699D01*
X63615000Y-60566310D01*
X63615000Y-59975750D01*
X63456250Y-59817000D01*
X62357000Y-59817000D01*
X62103000Y-59817000D01*
X61003750Y-59817000D01*
X60845000Y-59975750D01*
X56059096Y-59975750D01*
X56115936Y-59690000D01*
X56001303Y-59113703D01*
X55800842Y-58813690D01*
X60845000Y-58813690D01*
X60845000Y-59404250D01*
X61003750Y-59563000D01*
X62103000Y-59563000D01*
X62103000Y-58463750D01*
X62357000Y-58463750D01*
X62357000Y-59563000D01*
X63456250Y-59563000D01*
X63615000Y-59404250D01*
X63615000Y-58813690D01*
X63518327Y-58580301D01*
X63339698Y-58401673D01*
X63106309Y-58305000D01*
X62515750Y-58305000D01*
X62357000Y-58463750D01*
X62103000Y-58463750D01*
X61944250Y-58305000D01*
X61353691Y-58305000D01*
X61120302Y-58401673D01*
X60941673Y-58580301D01*
X60845000Y-58813690D01*
X55800842Y-58813690D01*
X55674858Y-58625142D01*
X55186297Y-58298697D01*
X54896241Y-58241001D01*
X53297000Y-56641761D01*
X53297000Y-55537745D01*
X53781861Y-55537745D01*
X53855995Y-55783864D01*
X54393223Y-55976965D01*
X54963454Y-55949778D01*
X55364005Y-55783864D01*
X55438139Y-55537745D01*
X54610000Y-54709605D01*
X53781861Y-55537745D01*
X53297000Y-55537745D01*
X53297000Y-55141238D01*
X53356136Y-55284005D01*
X53602255Y-55358139D01*
X54430395Y-54530000D01*
X54789605Y-54530000D01*
X55617745Y-55358139D01*
X55863864Y-55284005D01*
X56056965Y-54746777D01*
X56036034Y-54307745D01*
X61401861Y-54307745D01*
X61475995Y-54553864D01*
X62013223Y-54746965D01*
X62583454Y-54719778D01*
X62984005Y-54553864D01*
X63058139Y-54307745D01*
X62230000Y-53479605D01*
X61401861Y-54307745D01*
X56036034Y-54307745D01*
X56029778Y-54176546D01*
X55863864Y-53775995D01*
X55617745Y-53701861D01*
X54789605Y-54530000D01*
X54430395Y-54530000D01*
X53602255Y-53701861D01*
X53356136Y-53775995D01*
X53297000Y-53940518D01*
X53297000Y-53522255D01*
X53781861Y-53522255D01*
X54610000Y-54350395D01*
X55438139Y-53522255D01*
X55364005Y-53276136D01*
X54826777Y-53083035D01*
X54256546Y-53110222D01*
X53855995Y-53276136D01*
X53781861Y-53522255D01*
X53297000Y-53522255D01*
X53297000Y-52578239D01*
X54163437Y-51711802D01*
X54390662Y-51757000D01*
X54390666Y-51757000D01*
X54609999Y-51800628D01*
X54829332Y-51757000D01*
X58639338Y-51757000D01*
X59288932Y-51627788D01*
X60025577Y-51135577D01*
X60044672Y-51107000D01*
X60683171Y-51107000D01*
X60688758Y-51135086D01*
X60688758Y-51600000D01*
X60745182Y-51883661D01*
X60905863Y-52124137D01*
X61146339Y-52284818D01*
X61174037Y-52290327D01*
X61107378Y-52356986D01*
X61222253Y-52471861D01*
X60976136Y-52545995D01*
X60783035Y-53083223D01*
X60810222Y-53653454D01*
X60976136Y-54054005D01*
X61222255Y-54128139D01*
X62050395Y-53300000D01*
X62036252Y-53285858D01*
X62215858Y-53106252D01*
X62230000Y-53120395D01*
X62244142Y-53106252D01*
X62423748Y-53285858D01*
X62409605Y-53300000D01*
X63237745Y-54128139D01*
X63483864Y-54054005D01*
X63676965Y-53516777D01*
X63649778Y-52946546D01*
X63483864Y-52545995D01*
X63237747Y-52471861D01*
X63352622Y-52356986D01*
X63285963Y-52290327D01*
X63313661Y-52284818D01*
X63340701Y-52266750D01*
X72083000Y-52266750D01*
X72083000Y-53053250D01*
X72383980Y-53779881D01*
X72940119Y-54336020D01*
X73666750Y-54637000D01*
X74301760Y-54637000D01*
X74973001Y-55308241D01*
X74973000Y-58867805D01*
X74808697Y-59113703D01*
X74694064Y-59690000D01*
X74808697Y-60266297D01*
X74973001Y-60512196D01*
X74973000Y-61721760D01*
X74604513Y-62090247D01*
X74121669Y-62290247D01*
X73720247Y-62691669D01*
X73503000Y-63216152D01*
X73503000Y-63783848D01*
X73703001Y-64266695D01*
X73703000Y-67732717D01*
X73663758Y-67930000D01*
X73663758Y-69230000D01*
X73720182Y-69513661D01*
X73880863Y-69754137D01*
X74121339Y-69914818D01*
X74405000Y-69971242D01*
X75455000Y-69971242D01*
X75738661Y-69914818D01*
X75979137Y-69754137D01*
X76139818Y-69513661D01*
X76196242Y-69230000D01*
X76196242Y-67930000D01*
X76157000Y-67732718D01*
X76157000Y-64266693D01*
X76339753Y-63825487D01*
X76982170Y-63183070D01*
X77084617Y-63114617D01*
X77199147Y-62943212D01*
X77355808Y-62708752D01*
X77384287Y-62565577D01*
X77427000Y-62350847D01*
X77427000Y-62350844D01*
X77451037Y-62230001D01*
X77427000Y-62109158D01*
X77427000Y-60512195D01*
X77591303Y-60266297D01*
X77705936Y-59690000D01*
X77591303Y-59113703D01*
X77427000Y-58867805D01*
X77427000Y-54920842D01*
X77451037Y-54799999D01*
X77427000Y-54679156D01*
X77427000Y-54679153D01*
X77355808Y-54321248D01*
X77210485Y-54103757D01*
X77153071Y-54017831D01*
X77153070Y-54017830D01*
X77084617Y-53915383D01*
X76982170Y-53846930D01*
X76037000Y-52901760D01*
X76037000Y-52266750D01*
X75736020Y-51540119D01*
X75179881Y-50983980D01*
X74453250Y-50683000D01*
X73666750Y-50683000D01*
X72940119Y-50983980D01*
X72383980Y-51540119D01*
X72083000Y-52266750D01*
X63340701Y-52266750D01*
X63554137Y-52124137D01*
X63714818Y-51883661D01*
X63771242Y-51600000D01*
X63771242Y-51135086D01*
X63807000Y-50955318D01*
X63807000Y-50125313D01*
X63837894Y-49969997D01*
X63807000Y-49814680D01*
X63807000Y-49814679D01*
X63715501Y-49354683D01*
X63366953Y-48833045D01*
X63235280Y-48745064D01*
X63014937Y-48524721D01*
X62926955Y-48393047D01*
X62405317Y-48044499D01*
X61945321Y-47953000D01*
X61945317Y-47953000D01*
X61790002Y-47922106D01*
X61634687Y-47953000D01*
X60147000Y-47953000D01*
X60147000Y-47447000D01*
X62400091Y-47447000D01*
X62903842Y-47346798D01*
X62957055Y-47311242D01*
X63080000Y-47311242D01*
X63363661Y-47254818D01*
X63604137Y-47094137D01*
X63722625Y-46916807D01*
X64154685Y-47205501D01*
X64614681Y-47297000D01*
X68544685Y-47297000D01*
X68700000Y-47327894D01*
X68855315Y-47297000D01*
X68855319Y-47297000D01*
X69315315Y-47205501D01*
X69836953Y-46856953D01*
X69924935Y-46725279D01*
X74013215Y-42637000D01*
X74452978Y-42637000D01*
X75271494Y-42297960D01*
X75897960Y-41671494D01*
X76237000Y-40852978D01*
X76237000Y-39967022D01*
X76169979Y-39805218D01*
X84833000Y-48468240D01*
X84833001Y-51091098D01*
X84383980Y-51540119D01*
X84083000Y-52266750D01*
X84083000Y-52901760D01*
X83037831Y-53946930D01*
X82935384Y-54015383D01*
X82866931Y-54117830D01*
X82866929Y-54117832D01*
X82664192Y-54421250D01*
X82568963Y-54900000D01*
X82593001Y-55020847D01*
X82593000Y-58384367D01*
X82545863Y-58415863D01*
X82385182Y-58656339D01*
X82328758Y-58940000D01*
X82328758Y-60129305D01*
X82237000Y-60037547D01*
X82237000Y-54167022D01*
X82151417Y-53960406D01*
X82107788Y-53741068D01*
X81983544Y-53555123D01*
X81897960Y-53348506D01*
X81739821Y-53190367D01*
X81615577Y-53004423D01*
X81429633Y-52880179D01*
X81271494Y-52722040D01*
X81064877Y-52636456D01*
X80878932Y-52512212D01*
X80659594Y-52468583D01*
X80452978Y-52383000D01*
X80229338Y-52383000D01*
X80010000Y-52339371D01*
X79790662Y-52383000D01*
X79567022Y-52383000D01*
X79360405Y-52468583D01*
X79141069Y-52512212D01*
X78955126Y-52636455D01*
X78748506Y-52722040D01*
X78590365Y-52880181D01*
X78404424Y-53004423D01*
X78280182Y-53190364D01*
X78122040Y-53348506D01*
X78036455Y-53555127D01*
X77912213Y-53741068D01*
X77868585Y-53960401D01*
X77783000Y-54167022D01*
X77783000Y-55052978D01*
X77783001Y-55052980D01*
X77783000Y-60740667D01*
X77739372Y-60960000D01*
X77783000Y-61179333D01*
X77783000Y-61179337D01*
X77912212Y-61828931D01*
X78404423Y-62565577D01*
X78590370Y-62689823D01*
X82098318Y-66197772D01*
X82098318Y-68290440D01*
X82154742Y-68574101D01*
X82315423Y-68814577D01*
X82555899Y-68975258D01*
X82839560Y-69031682D01*
X87340440Y-69031682D01*
X87624101Y-68975258D01*
X87864577Y-68814577D01*
X88025258Y-68574101D01*
X88081682Y-68290440D01*
X88081682Y-63789560D01*
X88025258Y-63505899D01*
X87864577Y-63265423D01*
X87624101Y-63104742D01*
X87340440Y-63048318D01*
X85247772Y-63048318D01*
X83380695Y-61181242D01*
X84570000Y-61181242D01*
X84853661Y-61124818D01*
X85094137Y-60964137D01*
X85254818Y-60723661D01*
X85311242Y-60440000D01*
X85311242Y-58940000D01*
X85254818Y-58656339D01*
X85094137Y-58415863D01*
X85047000Y-58384367D01*
X85047000Y-55408239D01*
X85818240Y-54637000D01*
X86453250Y-54637000D01*
X87179881Y-54336020D01*
X87736020Y-53779881D01*
X88037000Y-53053250D01*
X88037000Y-52266750D01*
X87736020Y-51540119D01*
X87287000Y-51091099D01*
X87287000Y-48080843D01*
X87311037Y-47960000D01*
X87287000Y-47839157D01*
X87287000Y-47839153D01*
X87215808Y-47481248D01*
X86944617Y-47075383D01*
X86842170Y-47006930D01*
X79852262Y-40017022D01*
X83833000Y-40017022D01*
X83833000Y-40902978D01*
X84172040Y-41721494D01*
X84798506Y-42347960D01*
X85617022Y-42687000D01*
X86502978Y-42687000D01*
X87321494Y-42347960D01*
X87947960Y-41721494D01*
X88287000Y-40902978D01*
X88287000Y-40017022D01*
X87947960Y-39198506D01*
X87321494Y-38572040D01*
X86502978Y-38233000D01*
X85617022Y-38233000D01*
X84798506Y-38572040D01*
X84172040Y-39198506D01*
X83833000Y-40017022D01*
X79852262Y-40017022D01*
X75883072Y-36047833D01*
X75814617Y-35945383D01*
X75408752Y-35674192D01*
X75050847Y-35603000D01*
X75050843Y-35603000D01*
X74930000Y-35578963D01*
X74809157Y-35603000D01*
X72510842Y-35603000D01*
X72389999Y-35578963D01*
X72269156Y-35603000D01*
X72269153Y-35603000D01*
X71951175Y-35666250D01*
X71911248Y-35674192D01*
X71697574Y-35816965D01*
X71505383Y-35945383D01*
X71436930Y-36047830D01*
X69341761Y-38143000D01*
X60278534Y-38143000D01*
X60025577Y-37764423D01*
X59288932Y-37272212D01*
X58639338Y-37143000D01*
X46027000Y-37143000D01*
X46027000Y-36674681D01*
X45991242Y-36494914D01*
X45991242Y-36030000D01*
X45934818Y-35746339D01*
X45774137Y-35505863D01*
X45582395Y-35377745D01*
X51241861Y-35377745D01*
X51315995Y-35623864D01*
X51853223Y-35816965D01*
X52423454Y-35789778D01*
X52824005Y-35623864D01*
X52898139Y-35377745D01*
X52070000Y-34549605D01*
X51241861Y-35377745D01*
X45582395Y-35377745D01*
X45533661Y-35345182D01*
X45505963Y-35339673D01*
X45572622Y-35273014D01*
X45457747Y-35158139D01*
X45703864Y-35084005D01*
X45896965Y-34546777D01*
X45878202Y-34153223D01*
X50623035Y-34153223D01*
X50650222Y-34723454D01*
X50816136Y-35124005D01*
X51062255Y-35198139D01*
X51890395Y-34370000D01*
X52249605Y-34370000D01*
X53077745Y-35198139D01*
X53323864Y-35124005D01*
X53516965Y-34586777D01*
X53489778Y-34016546D01*
X53485473Y-34006152D01*
X56993000Y-34006152D01*
X56993000Y-34573848D01*
X57210247Y-35098331D01*
X57611669Y-35499753D01*
X58136152Y-35717000D01*
X58703848Y-35717000D01*
X59186693Y-35517000D01*
X63696074Y-35517000D01*
X63848378Y-35669304D01*
X64446370Y-35917000D01*
X65093630Y-35917000D01*
X65691622Y-35669304D01*
X65853969Y-35506957D01*
X65871673Y-35549699D01*
X66050302Y-35728327D01*
X66283691Y-35825000D01*
X67024250Y-35825000D01*
X67183000Y-35666250D01*
X67183000Y-34417000D01*
X67437000Y-34417000D01*
X67437000Y-35666250D01*
X67595750Y-35825000D01*
X68336309Y-35825000D01*
X68569698Y-35728327D01*
X68748327Y-35549699D01*
X68845000Y-35316310D01*
X68845000Y-34575750D01*
X68686250Y-34417000D01*
X67437000Y-34417000D01*
X67183000Y-34417000D01*
X67163000Y-34417000D01*
X67163000Y-34163000D01*
X67183000Y-34163000D01*
X67183000Y-32913750D01*
X67437000Y-32913750D01*
X67437000Y-34163000D01*
X68686250Y-34163000D01*
X68845000Y-34004250D01*
X68845000Y-33263690D01*
X68748327Y-33030301D01*
X68569698Y-32851673D01*
X68336309Y-32755000D01*
X67595750Y-32755000D01*
X67437000Y-32913750D01*
X67183000Y-32913750D01*
X67024250Y-32755000D01*
X66283691Y-32755000D01*
X66050302Y-32851673D01*
X65871673Y-33030301D01*
X65853969Y-33073043D01*
X65691622Y-32910696D01*
X65093630Y-32663000D01*
X64446370Y-32663000D01*
X63848378Y-32910696D01*
X63696074Y-33063000D01*
X59186693Y-33063000D01*
X58703848Y-32863000D01*
X58136152Y-32863000D01*
X57611669Y-33080247D01*
X57210247Y-33481669D01*
X56993000Y-34006152D01*
X53485473Y-34006152D01*
X53323864Y-33615995D01*
X53077745Y-33541861D01*
X52249605Y-34370000D01*
X51890395Y-34370000D01*
X51062255Y-33541861D01*
X50816136Y-33615995D01*
X50623035Y-34153223D01*
X45878202Y-34153223D01*
X45869778Y-33976546D01*
X45703864Y-33575995D01*
X45457745Y-33501861D01*
X44629605Y-34330000D01*
X44643748Y-34344142D01*
X44464142Y-34523748D01*
X44450000Y-34509605D01*
X44435858Y-34523748D01*
X44256252Y-34344142D01*
X44270395Y-34330000D01*
X43442255Y-33501861D01*
X43196136Y-33575995D01*
X43003035Y-34113223D01*
X43030222Y-34683454D01*
X43196136Y-35084005D01*
X43442253Y-35158139D01*
X43327378Y-35273014D01*
X43394037Y-35339673D01*
X43366339Y-35345182D01*
X43125863Y-35505863D01*
X42965182Y-35746339D01*
X42908758Y-36030000D01*
X42908758Y-36494915D01*
X42873000Y-36674682D01*
X42873000Y-37143000D01*
X42229339Y-37143000D01*
X42010001Y-37099371D01*
X41790663Y-37143000D01*
X38813735Y-37143000D01*
X38516584Y-36845849D01*
X37422250Y-36392560D01*
X36237750Y-36392560D01*
X35143416Y-36845849D01*
X34305849Y-37683416D01*
X33852560Y-38777750D01*
X33852560Y-39962250D01*
X34305849Y-41056584D01*
X35143416Y-41894151D01*
X35285490Y-41953000D01*
X34410842Y-41953000D01*
X34289999Y-41928963D01*
X34169156Y-41953000D01*
X34169153Y-41953000D01*
X33811248Y-42024192D01*
X33405383Y-42295383D01*
X33336930Y-42397831D01*
X32237831Y-43496930D01*
X32135384Y-43565383D01*
X32066931Y-43667830D01*
X32066929Y-43667832D01*
X31937347Y-43861765D01*
X31870260Y-43962169D01*
X31864192Y-43971250D01*
X31768963Y-44450000D01*
X28067000Y-44450000D01*
X28067000Y-33305750D01*
X33944560Y-33305750D01*
X33944560Y-35396749D01*
X34041233Y-35630138D01*
X34219861Y-35808767D01*
X34453250Y-35905440D01*
X36544250Y-35905440D01*
X36703000Y-35746690D01*
X36703000Y-33147000D01*
X36957000Y-33147000D01*
X36957000Y-35746690D01*
X37115750Y-35905440D01*
X39206750Y-35905440D01*
X39440139Y-35808767D01*
X39618767Y-35630138D01*
X39715440Y-35396749D01*
X39715440Y-33322255D01*
X43621861Y-33322255D01*
X44450000Y-34150395D01*
X45238139Y-33362255D01*
X51241861Y-33362255D01*
X52070000Y-34190395D01*
X52898139Y-33362255D01*
X52824005Y-33116136D01*
X52286777Y-32923035D01*
X51716546Y-32950222D01*
X51315995Y-33116136D01*
X51241861Y-33362255D01*
X45238139Y-33362255D01*
X45278139Y-33322255D01*
X45204005Y-33076136D01*
X44666777Y-32883035D01*
X44096546Y-32910222D01*
X43695995Y-33076136D01*
X43621861Y-33322255D01*
X39715440Y-33322255D01*
X39715440Y-33305750D01*
X39556690Y-33147000D01*
X36957000Y-33147000D01*
X36703000Y-33147000D01*
X34103310Y-33147000D01*
X33944560Y-33305750D01*
X28067000Y-33305750D01*
X28067000Y-30643251D01*
X33944560Y-30643251D01*
X33944560Y-32734250D01*
X34103310Y-32893000D01*
X36703000Y-32893000D01*
X36703000Y-30293310D01*
X36957000Y-30293310D01*
X36957000Y-32893000D01*
X39556690Y-32893000D01*
X39715440Y-32734250D01*
X39715440Y-30643251D01*
X39618767Y-30409862D01*
X39440139Y-30231233D01*
X39206750Y-30134560D01*
X37115750Y-30134560D01*
X36957000Y-30293310D01*
X36703000Y-30293310D01*
X36544250Y-30134560D01*
X34453250Y-30134560D01*
X34219861Y-30231233D01*
X34041233Y-30409862D01*
X33944560Y-30643251D01*
X28067000Y-30643251D01*
X28067000Y-26797000D01*
X92583000Y-26797000D01*
X92583000Y-91313000D01*
G04 #@! TD*
M02*
