G04 #@! TF.GenerationSoftware,KiCad,Pcbnew,5.0.2+dfsg1-1~bpo9+1*
G04 #@! TF.CreationDate,2019-07-05T17:02:56-03:00*
G04 #@! TF.ProjectId,FonteAssimetrica,466f6e74-6541-4737-9369-6d6574726963,rev?*
G04 #@! TF.SameCoordinates,PX196f3b0PY586a470*
G04 #@! TF.FileFunction,Copper,L2,Bot*
G04 #@! TF.FilePolarity,Positive*
%FSLAX46Y46*%
G04 Gerber Fmt 4.6, Leading zero omitted, Abs format (unit mm)*
G04 Created by KiCad (PCBNEW 5.0.2+dfsg1-1~bpo9+1) date Fri 05 Jul 2019 05:02:56 PM -03*
%MOMM*%
%LPD*%
G01*
G04 APERTURE LIST*
G04 #@! TA.AperFunction,ComponentPad*
%ADD10C,1.400000*%
G04 #@! TD*
G04 #@! TA.AperFunction,ComponentPad*
%ADD11O,1.400000X1.400000*%
G04 #@! TD*
G04 #@! TA.AperFunction,ComponentPad*
%ADD12R,1.300000X1.050000*%
G04 #@! TD*
G04 #@! TA.AperFunction,ComponentPad*
%ADD13O,1.300000X1.050000*%
G04 #@! TD*
G04 #@! TA.AperFunction,ComponentPad*
%ADD14O,1.050000X1.300000*%
G04 #@! TD*
G04 #@! TA.AperFunction,ComponentPad*
%ADD15R,1.050000X1.300000*%
G04 #@! TD*
G04 #@! TA.AperFunction,ComponentPad*
%ADD16R,1.500000X1.500000*%
G04 #@! TD*
G04 #@! TA.AperFunction,ComponentPad*
%ADD17O,1.500000X1.500000*%
G04 #@! TD*
G04 #@! TA.AperFunction,ComponentPad*
%ADD18R,1.800000X1.800000*%
G04 #@! TD*
G04 #@! TA.AperFunction,ComponentPad*
%ADD19C,1.800000*%
G04 #@! TD*
G04 #@! TA.AperFunction,ComponentPad*
%ADD20O,1.700000X1.700000*%
G04 #@! TD*
G04 #@! TA.AperFunction,ComponentPad*
%ADD21R,1.700000X1.700000*%
G04 #@! TD*
G04 #@! TA.AperFunction,ComponentPad*
%ADD22C,1.600000*%
G04 #@! TD*
G04 #@! TA.AperFunction,ComponentPad*
%ADD23R,1.600000X1.600000*%
G04 #@! TD*
G04 #@! TA.AperFunction,ComponentPad*
%ADD24C,4.500880*%
G04 #@! TD*
G04 #@! TA.AperFunction,ComponentPad*
%ADD25R,4.500880X4.500880*%
G04 #@! TD*
G04 #@! TA.AperFunction,ComponentPad*
%ADD26C,2.999740*%
G04 #@! TD*
G04 #@! TA.AperFunction,ComponentPad*
%ADD27R,2.999740X2.999740*%
G04 #@! TD*
G04 #@! TA.AperFunction,ComponentPad*
%ADD28R,2.500000X3.500000*%
G04 #@! TD*
G04 #@! TA.AperFunction,ComponentPad*
%ADD29O,2.500000X3.500000*%
G04 #@! TD*
G04 #@! TA.AperFunction,ComponentPad*
%ADD30O,2.000000X1.905000*%
G04 #@! TD*
G04 #@! TA.AperFunction,ComponentPad*
%ADD31R,2.000000X1.905000*%
G04 #@! TD*
G04 #@! TA.AperFunction,ComponentPad*
%ADD32C,2.500000*%
G04 #@! TD*
G04 #@! TA.AperFunction,ComponentPad*
%ADD33C,3.000000*%
G04 #@! TD*
G04 #@! TA.AperFunction,Conductor*
%ADD34C,1.000000*%
G04 #@! TD*
G04 #@! TA.AperFunction,Conductor*
%ADD35C,3.000000*%
G04 #@! TD*
G04 #@! TA.AperFunction,Conductor*
%ADD36C,1.700000*%
G04 #@! TD*
G04 #@! TA.AperFunction,Conductor*
%ADD37C,2.000000*%
G04 #@! TD*
G04 #@! TA.AperFunction,Conductor*
%ADD38C,0.254000*%
G04 #@! TD*
G04 APERTURE END LIST*
D10*
G04 #@! TO.P,R7,1*
G04 #@! TO.N,Net-(Q3-Pad2)*
X45720000Y7620000D03*
D11*
G04 #@! TO.P,R7,2*
G04 #@! TO.N,Net-(J3-Pad1)*
X50800000Y7620000D03*
G04 #@! TD*
D12*
G04 #@! TO.P,Q2,1*
G04 #@! TO.N,Net-(Q1-Pad1)*
X10160000Y36830000D03*
D13*
G04 #@! TO.P,Q2,3*
G04 #@! TO.N,VDC*
X10160000Y31750000D03*
G04 #@! TO.P,Q2,2*
G04 #@! TO.N,Net-(Q2-Pad2)*
X10160000Y34290000D03*
G04 #@! TD*
D14*
G04 #@! TO.P,Q3,2*
G04 #@! TO.N,Net-(Q3-Pad2)*
X45720000Y24130000D03*
G04 #@! TO.P,Q3,3*
G04 #@! TO.N,GND*
X43180000Y24130000D03*
D15*
G04 #@! TO.P,Q3,1*
G04 #@! TO.N,Net-(D4-Pad2)*
X48260000Y24130000D03*
G04 #@! TD*
D16*
G04 #@! TO.P,D4,1*
G04 #@! TO.N,VDC*
X57150000Y33020000D03*
D17*
G04 #@! TO.P,D4,2*
G04 #@! TO.N,Net-(D4-Pad2)*
X49530000Y33020000D03*
G04 #@! TD*
D18*
G04 #@! TO.P,D5,1*
G04 #@! TO.N,GND*
X36830000Y22860000D03*
D19*
G04 #@! TO.P,D5,2*
G04 #@! TO.N,Net-(D5-Pad2)*
X36830000Y25400000D03*
G04 #@! TD*
D10*
G04 #@! TO.P,R6,1*
G04 #@! TO.N,Net-(D4-Pad2)*
X48260000Y29210000D03*
D11*
G04 #@! TO.P,R6,2*
G04 #@! TO.N,Net-(D5-Pad2)*
X43180000Y29210000D03*
G04 #@! TD*
D20*
G04 #@! TO.P,JP1,2*
G04 #@! TO.N,Net-(JP1-Pad2)*
X38100000Y46990000D03*
D21*
G04 #@! TO.P,JP1,1*
G04 #@! TO.N,Vout*
X35560000Y46990000D03*
G04 #@! TD*
G04 #@! TO.P,J3,1*
G04 #@! TO.N,Net-(J3-Pad1)*
X55880000Y7620000D03*
D20*
G04 #@! TO.P,J3,2*
G04 #@! TO.N,GND*
X58420000Y7620000D03*
G04 #@! TD*
D22*
G04 #@! TO.P,C1,2*
G04 #@! TO.N,GND*
X17780000Y58380000D03*
D23*
G04 #@! TO.P,C1,1*
G04 #@! TO.N,VDC*
X17780000Y55880000D03*
G04 #@! TD*
G04 #@! TO.P,C5,1*
G04 #@! TO.N,Vout*
X35560000Y41910000D03*
D22*
G04 #@! TO.P,C5,2*
G04 #@! TO.N,GND*
X35560000Y39410000D03*
G04 #@! TD*
G04 #@! TO.P,C6,2*
G04 #@! TO.N,GND*
X29210000Y17700000D03*
G04 #@! TO.P,C6,1*
G04 #@! TO.N,Net-(C6-Pad1)*
X29210000Y12700000D03*
G04 #@! TD*
G04 #@! TO.P,C4,1*
G04 #@! TO.N,Vout*
X27940000Y43180000D03*
G04 #@! TO.P,C4,2*
G04 #@! TO.N,GND*
X27940000Y38180000D03*
G04 #@! TD*
G04 #@! TO.P,C3,1*
G04 #@! TO.N,Net-(C3-Pad1)*
X15240000Y25400000D03*
G04 #@! TO.P,C3,2*
G04 #@! TO.N,GND*
X10240000Y25400000D03*
G04 #@! TD*
G04 #@! TO.P,C2,2*
G04 #@! TO.N,GND*
X25400000Y58340000D03*
G04 #@! TO.P,C2,1*
G04 #@! TO.N,VDC*
X25400000Y53340000D03*
G04 #@! TD*
D24*
G04 #@! TO.P,J2,2*
G04 #@! TO.N,GND*
X58420000Y20320000D03*
D25*
G04 #@! TO.P,J2,1*
G04 #@! TO.N,Vl*
X58420000Y26670000D03*
G04 #@! TD*
G04 #@! TO.P,J1,1*
G04 #@! TO.N,GND*
X10160000Y59690000D03*
D24*
G04 #@! TO.P,J1,2*
G04 #@! TO.N,VDC*
X10160000Y53340000D03*
G04 #@! TD*
D26*
G04 #@! TO.P,RV1,3*
G04 #@! TO.N,Net-(C6-Pad1)*
X21590000Y7620000D03*
G04 #@! TO.P,RV1,2*
G04 #@! TO.N,Net-(RV1-Pad1)*
X17780000Y7620000D03*
D27*
G04 #@! TO.P,RV1,1*
X13970000Y7620000D03*
G04 #@! TD*
G04 #@! TO.P,RV2,1*
G04 #@! TO.N,GND*
X34290000Y7620000D03*
D26*
G04 #@! TO.P,RV2,2*
X30480000Y7620000D03*
G04 #@! TO.P,RV2,3*
G04 #@! TO.N,Net-(RV1-Pad1)*
X26670000Y7620000D03*
G04 #@! TD*
D17*
G04 #@! TO.P,D2,2*
G04 #@! TO.N,Net-(C6-Pad1)*
X24130000Y11430000D03*
D16*
G04 #@! TO.P,D2,1*
G04 #@! TO.N,Vout*
X24130000Y19050000D03*
G04 #@! TD*
G04 #@! TO.P,D3,1*
G04 #@! TO.N,GND*
X35560000Y33020000D03*
D17*
G04 #@! TO.P,D3,2*
G04 #@! TO.N,Vout*
X27940000Y33020000D03*
G04 #@! TD*
D19*
G04 #@! TO.P,D1,2*
G04 #@! TO.N,Net-(D1-Pad2)*
X38100000Y58420000D03*
D18*
G04 #@! TO.P,D1,1*
G04 #@! TO.N,GND*
X40640000Y58420000D03*
G04 #@! TD*
D28*
G04 #@! TO.P,Q1,1*
G04 #@! TO.N,Net-(Q1-Pad1)*
X10160000Y44450000D03*
D29*
G04 #@! TO.P,Q1,2*
G04 #@! TO.N,VDC*
X15635000Y44450000D03*
G04 #@! TO.P,Q1,3*
G04 #@! TO.N,Vout*
X21110000Y44450000D03*
G04 #@! TD*
D30*
G04 #@! TO.P,U1,3*
G04 #@! TO.N,Net-(C3-Pad1)*
X15240000Y19050000D03*
G04 #@! TO.P,U1,2*
G04 #@! TO.N,Vout*
X15240000Y16510000D03*
D31*
G04 #@! TO.P,U1,1*
G04 #@! TO.N,Net-(C6-Pad1)*
X15240000Y13970000D03*
G04 #@! TD*
D32*
G04 #@! TO.P,K1,2*
G04 #@! TO.N,VDC*
X59390000Y40050000D03*
D33*
G04 #@! TO.P,K1,3*
G04 #@! TO.N,Net-(K1-Pad3)*
X59390000Y52250000D03*
G04 #@! TO.P,K1,4*
G04 #@! TO.N,Net-(JP1-Pad2)*
X47340000Y52300000D03*
D32*
G04 #@! TO.P,K1,5*
G04 #@! TO.N,Net-(D4-Pad2)*
X47390000Y40050000D03*
D33*
G04 #@! TO.P,K1,1*
G04 #@! TO.N,Vl*
X53340000Y38100000D03*
G04 #@! TD*
D10*
G04 #@! TO.P,R5,1*
G04 #@! TO.N,Vout*
X20320000Y17780000D03*
D11*
G04 #@! TO.P,R5,2*
G04 #@! TO.N,Net-(C6-Pad1)*
X20320000Y12700000D03*
G04 #@! TD*
G04 #@! TO.P,R4,2*
G04 #@! TO.N,Net-(C3-Pad1)*
X15240000Y29210000D03*
D10*
G04 #@! TO.P,R4,1*
G04 #@! TO.N,VDC*
X10160000Y29210000D03*
G04 #@! TD*
G04 #@! TO.P,R3,1*
G04 #@! TO.N,Net-(Q2-Pad2)*
X16510000Y38100000D03*
D11*
G04 #@! TO.P,R3,2*
G04 #@! TO.N,Net-(C3-Pad1)*
X16510000Y33020000D03*
G04 #@! TD*
G04 #@! TO.P,R2,2*
G04 #@! TO.N,VDC*
X31750000Y53340000D03*
D10*
G04 #@! TO.P,R2,1*
G04 #@! TO.N,Net-(D1-Pad2)*
X31750000Y58420000D03*
G04 #@! TD*
G04 #@! TO.P,R1,1*
G04 #@! TO.N,Vout*
X21590000Y33020000D03*
D11*
G04 #@! TO.P,R1,2*
G04 #@! TO.N,Net-(Q1-Pad1)*
X21590000Y38100000D03*
G04 #@! TD*
D34*
G04 #@! TO.N,Net-(Q3-Pad2)*
X45720000Y24130000D02*
X45720000Y7620000D01*
G04 #@! TO.N,Net-(D4-Pad2)*
X49530000Y37910000D02*
X47390000Y40050000D01*
X49530000Y33020000D02*
X49530000Y37910000D01*
X48260000Y29210000D02*
X49530000Y30480000D01*
X49530000Y30480000D02*
X49530000Y33020000D01*
X48260000Y24130000D02*
X48260000Y29210000D01*
G04 #@! TO.N,Net-(Q1-Pad1)*
X21590000Y38100000D02*
X21590000Y39370000D01*
X21059999Y39900001D02*
X13230001Y39900001D01*
X21590000Y39370000D02*
X21059999Y39900001D01*
X12490000Y39370000D02*
X12700000Y39370000D01*
X10160000Y41700000D02*
X12490000Y39370000D01*
X10160000Y44450000D02*
X10160000Y41700000D01*
X12700000Y39370000D02*
X10160000Y36830000D01*
X13230001Y39900001D02*
X12700000Y39370000D01*
G04 #@! TO.N,VDC*
X57150000Y37810000D02*
X59390000Y40050000D01*
X57150000Y33020000D02*
X57150000Y37810000D01*
D35*
X10160000Y53340000D02*
X15340001Y53340000D01*
X25400000Y53340000D02*
X31750000Y53340000D01*
X15635000Y49200000D02*
X15340001Y49494999D01*
X15340001Y49494999D02*
X15340001Y53340000D01*
X15635000Y44450000D02*
X15635000Y49200000D01*
D34*
X10764997Y49494999D02*
X15340001Y49494999D01*
X10729996Y49530000D02*
X10764997Y49494999D01*
X7620000Y49530000D02*
X10729996Y49530000D01*
X6350000Y48260000D02*
X7620000Y49530000D01*
X6350000Y35560000D02*
X6350000Y48260000D01*
X31750000Y53340000D02*
X43180000Y53340000D01*
X48260000Y55880000D02*
X59390000Y44750000D01*
X43180000Y53340000D02*
X45720000Y55880000D01*
X59390000Y44750000D02*
X59390000Y40050000D01*
X45720000Y55880000D02*
X48260000Y55880000D01*
D36*
X17780000Y55880000D02*
X17780000Y53340000D01*
D35*
X17780000Y53340000D02*
X15340001Y53340000D01*
X25400000Y53340000D02*
X17780000Y53340000D01*
D34*
X10160000Y29210000D02*
X10160000Y31750000D01*
X6350000Y35560000D02*
X10160000Y31750000D01*
G04 #@! TO.N,Net-(D1-Pad2)*
X31750000Y58420000D02*
X38100000Y58420000D01*
G04 #@! TO.N,Net-(Q2-Pad2)*
X16510000Y38100000D02*
X12700000Y34290000D01*
X12700000Y34290000D02*
X10160000Y34290000D01*
G04 #@! TO.N,Net-(C3-Pad1)*
X15240000Y29210000D02*
X16510000Y30480000D01*
X16510000Y30480000D02*
X16510000Y33020000D01*
X15240000Y25400000D02*
X15240000Y29210000D01*
X15240000Y19050000D02*
X15240000Y25400000D01*
G04 #@! TO.N,Net-(C6-Pad1)*
X19050000Y13970000D02*
X20320000Y12700000D01*
X15240000Y13970000D02*
X19050000Y13970000D01*
X22860000Y12700000D02*
X24130000Y11430000D01*
X20320000Y12700000D02*
X22860000Y12700000D01*
X27940000Y11430000D02*
X29210000Y12700000D01*
X24130000Y11430000D02*
X27940000Y11430000D01*
X21590000Y8890000D02*
X24130000Y11430000D01*
X21590000Y7620000D02*
X21590000Y8890000D01*
G04 #@! TO.N,Net-(RV1-Pad1)*
X26670000Y5080000D02*
X26670000Y7620000D01*
X13970000Y5120130D02*
X15280130Y3810000D01*
X13970000Y7620000D02*
X13970000Y5120130D01*
X25400000Y3810000D02*
X26670000Y5080000D01*
X15280130Y3810000D02*
X25400000Y3810000D01*
X17780000Y7620000D02*
X13970000Y7620000D01*
G04 #@! TO.N,Vout*
X19050000Y16510000D02*
X20320000Y17780000D01*
X15240000Y16510000D02*
X19050000Y16510000D01*
X22860000Y17780000D02*
X24130000Y19050000D01*
X20320000Y17780000D02*
X22860000Y17780000D01*
X24130000Y30480000D02*
X21590000Y33020000D01*
X24130000Y19050000D02*
X24130000Y30480000D01*
X26670000Y33020000D02*
X24130000Y30480000D01*
X27940000Y33020000D02*
X26670000Y33020000D01*
X25400000Y40640000D02*
X27140001Y42380001D01*
X25400000Y35560000D02*
X25400000Y40640000D01*
X27140001Y42380001D02*
X27940000Y43180000D01*
X27940000Y33020000D02*
X25400000Y35560000D01*
D35*
X26670000Y44450000D02*
X27940000Y43180000D01*
X21110000Y44450000D02*
X26670000Y44450000D01*
X27940000Y43180000D02*
X29210000Y43180000D01*
D37*
X32710000Y46990000D02*
X31750000Y46030000D01*
X31750000Y46030000D02*
X31750000Y43180000D01*
X35560000Y46990000D02*
X32710000Y46990000D01*
D35*
X27940000Y43180000D02*
X31750000Y43180000D01*
D36*
X35560000Y42740002D02*
X35560000Y41910000D01*
X35120002Y43180000D02*
X35560000Y42740002D01*
X31750000Y43180000D02*
X35120002Y43180000D01*
D35*
G04 #@! TO.N,Vl*
X53340000Y31750000D02*
X53340000Y38100000D01*
X58420000Y26670000D02*
X53340000Y31750000D01*
D34*
G04 #@! TO.N,Net-(J3-Pad1)*
X50800000Y7620000D02*
X55880000Y7620000D01*
D36*
G04 #@! TO.N,Net-(JP1-Pad2)*
X42030000Y46990000D02*
X47340000Y52300000D01*
X38100000Y46990000D02*
X42030000Y46990000D01*
D34*
G04 #@! TO.N,Net-(D5-Pad2)*
X40640000Y29210000D02*
X36830000Y25400000D01*
X43180000Y29210000D02*
X40640000Y29210000D01*
G04 #@! TD*
D38*
G04 #@! TO.N,GND*
G36*
X65913000Y1397000D02*
X1397000Y1397000D01*
X1397000Y24392255D01*
X9411861Y24392255D01*
X9485995Y24146136D01*
X10023223Y23953035D01*
X10593454Y23980222D01*
X10994005Y24146136D01*
X11068139Y24392255D01*
X10240000Y25220395D01*
X9411861Y24392255D01*
X1397000Y24392255D01*
X1397000Y25616777D01*
X8793035Y25616777D01*
X8820222Y25046546D01*
X8986136Y24645995D01*
X9232255Y24571861D01*
X10060395Y25400000D01*
X10419605Y25400000D01*
X11247745Y24571861D01*
X11493864Y24645995D01*
X11686965Y25183223D01*
X11659778Y25753454D01*
X11493864Y26154005D01*
X11247745Y26228139D01*
X10419605Y25400000D01*
X10060395Y25400000D01*
X9232255Y26228139D01*
X8986136Y26154005D01*
X8793035Y25616777D01*
X1397000Y25616777D01*
X1397000Y26407745D01*
X9411861Y26407745D01*
X10240000Y25579605D01*
X11068139Y26407745D01*
X10994005Y26653864D01*
X10456777Y26846965D01*
X9886546Y26819778D01*
X9485995Y26653864D01*
X9411861Y26407745D01*
X1397000Y26407745D01*
X1397000Y48260000D01*
X5098963Y48260000D01*
X5123001Y48139153D01*
X5123000Y35680843D01*
X5098963Y35560000D01*
X5123000Y35439157D01*
X5123000Y35439154D01*
X5194192Y35081249D01*
X5465383Y34675383D01*
X5567833Y34606928D01*
X8841334Y31333426D01*
X8855642Y31261494D01*
X8933001Y31145718D01*
X8933000Y29976694D01*
X8733000Y29493848D01*
X8733000Y28926152D01*
X8950247Y28401669D01*
X9351669Y28000247D01*
X9876152Y27783000D01*
X10443848Y27783000D01*
X10968331Y28000247D01*
X11369753Y28401669D01*
X11587000Y28926152D01*
X11587000Y29493848D01*
X11387000Y29976693D01*
X11387000Y31145719D01*
X11464358Y31261494D01*
X11561528Y31750000D01*
X11464358Y32238506D01*
X11187642Y32652642D01*
X10773506Y32929358D01*
X10701574Y32943666D01*
X10582240Y33063000D01*
X12579157Y33063000D01*
X12700000Y33038963D01*
X12820843Y33063000D01*
X12820847Y33063000D01*
X13178752Y33134192D01*
X13584617Y33405383D01*
X13653072Y33507833D01*
X16835487Y36690248D01*
X17318331Y36890247D01*
X17719753Y37291669D01*
X17937000Y37816152D01*
X17937000Y38383848D01*
X17817229Y38673001D01*
X20256629Y38673001D01*
X20245796Y38656788D01*
X20135044Y38100000D01*
X20245796Y37543212D01*
X20561191Y37071191D01*
X21033212Y36755796D01*
X21449456Y36673000D01*
X21730544Y36673000D01*
X22146788Y36755796D01*
X22618809Y37071191D01*
X22934204Y37543212D01*
X23044956Y38100000D01*
X22934204Y38656788D01*
X22817000Y38832196D01*
X22817000Y39249157D01*
X22841037Y39370000D01*
X22817000Y39490843D01*
X22817000Y39490847D01*
X22745808Y39848752D01*
X22611338Y40050000D01*
X22543072Y40152168D01*
X22543070Y40152170D01*
X22474617Y40254617D01*
X22372169Y40323071D01*
X22013071Y40682169D01*
X21944616Y40784618D01*
X21538751Y41055809D01*
X21180846Y41127001D01*
X21180842Y41127001D01*
X21059999Y41151038D01*
X20939156Y41127001D01*
X13350844Y41127001D01*
X13230001Y41151038D01*
X13109158Y41127001D01*
X13109154Y41127001D01*
X12751249Y41055809D01*
X12624274Y40970967D01*
X11598906Y41996334D01*
X11693661Y42015182D01*
X11934137Y42175863D01*
X12094818Y42416339D01*
X12151242Y42700000D01*
X12151242Y46200000D01*
X12094818Y46483661D01*
X11934137Y46724137D01*
X11693661Y46884818D01*
X11410000Y46941242D01*
X8910000Y46941242D01*
X8626339Y46884818D01*
X8385863Y46724137D01*
X8225182Y46483661D01*
X8168758Y46200000D01*
X8168758Y42700000D01*
X8225182Y42416339D01*
X8385863Y42175863D01*
X8626339Y42015182D01*
X8910000Y41958758D01*
X8933001Y41958758D01*
X8933001Y41820847D01*
X8908963Y41700000D01*
X9004192Y41221250D01*
X9004193Y41221249D01*
X9004193Y41221248D01*
X9051106Y41151038D01*
X9206929Y40917832D01*
X9206931Y40917830D01*
X9275384Y40815383D01*
X9377831Y40746930D01*
X10859760Y39265000D01*
X9691003Y38096242D01*
X9510000Y38096242D01*
X9226339Y38039818D01*
X8985863Y37879137D01*
X8825182Y37638661D01*
X8768758Y37355000D01*
X8768758Y36305000D01*
X8825182Y36021339D01*
X8985863Y35780863D01*
X9226339Y35620182D01*
X9510000Y35563758D01*
X10810000Y35563758D01*
X11093661Y35620182D01*
X11334137Y35780863D01*
X11494818Y36021339D01*
X11551242Y36305000D01*
X11551242Y36486003D01*
X13482170Y38416930D01*
X13584617Y38485383D01*
X13653072Y38587832D01*
X13738240Y38673001D01*
X15202771Y38673001D01*
X15100248Y38425487D01*
X12191761Y35517000D01*
X10533993Y35517000D01*
X10408310Y35542000D01*
X9911690Y35542000D01*
X9546494Y35469358D01*
X9132358Y35192642D01*
X8860085Y34785155D01*
X7577000Y36068239D01*
X7577000Y47751761D01*
X8128240Y48303000D01*
X10468189Y48303000D01*
X10644150Y48267999D01*
X10644154Y48267999D01*
X10764997Y48243962D01*
X10885840Y48267999D01*
X13408001Y48267999D01*
X13408000Y44230663D01*
X13537212Y43581069D01*
X13758542Y43249825D01*
X13772707Y43178613D01*
X14209664Y42524663D01*
X14863614Y42087707D01*
X15635000Y41934269D01*
X16406387Y42087707D01*
X17060337Y42524663D01*
X17497293Y43178613D01*
X17511458Y43249824D01*
X17732788Y43581068D01*
X17862000Y44230662D01*
X17862000Y48980662D01*
X17905629Y49200000D01*
X17732788Y50068932D01*
X17567001Y50317049D01*
X17567001Y51113000D01*
X31969338Y51113000D01*
X32618932Y51242212D01*
X33355577Y51734423D01*
X33608534Y52113000D01*
X43059157Y52113000D01*
X43180000Y52088963D01*
X43300843Y52113000D01*
X43300847Y52113000D01*
X43658752Y52184192D01*
X44064617Y52455383D01*
X44133072Y52557833D01*
X46228240Y54653000D01*
X47751761Y54653000D01*
X47944782Y54459978D01*
X47782978Y54527000D01*
X46897022Y54527000D01*
X46078506Y54187960D01*
X45452040Y53561494D01*
X45113000Y52742978D01*
X45113000Y52303215D01*
X41376786Y48567000D01*
X37944681Y48567000D01*
X37484685Y48475501D01*
X37052625Y48186807D01*
X36934137Y48364137D01*
X36693661Y48524818D01*
X36410000Y48581242D01*
X36287055Y48581242D01*
X36233842Y48616798D01*
X35730091Y48717000D01*
X32880090Y48717000D01*
X32709999Y48750833D01*
X32539909Y48717000D01*
X32036158Y48616798D01*
X31464903Y48235097D01*
X31368550Y48090895D01*
X30649105Y47371450D01*
X30504903Y47275097D01*
X30136763Y46724137D01*
X30123202Y46703841D01*
X29989167Y46030000D01*
X30023000Y45859909D01*
X30023000Y45407000D01*
X28862453Y45407000D01*
X28399823Y45869630D01*
X28275577Y46055577D01*
X27538932Y46547788D01*
X26889338Y46677000D01*
X26889333Y46677000D01*
X26670000Y46720628D01*
X26450667Y46677000D01*
X22083866Y46677000D01*
X21881386Y46812293D01*
X21110000Y46965731D01*
X20338613Y46812293D01*
X19684663Y46375337D01*
X19247707Y45721386D01*
X19233543Y45650176D01*
X19012212Y45318932D01*
X18839371Y44450000D01*
X19012212Y43581068D01*
X19233542Y43249824D01*
X19247707Y43178613D01*
X19684664Y42524663D01*
X20338614Y42087707D01*
X21110000Y41934269D01*
X21881387Y42087707D01*
X22083867Y42223000D01*
X25247761Y42223000D01*
X24617831Y41593070D01*
X24515384Y41524617D01*
X24446931Y41422170D01*
X24446929Y41422168D01*
X24444924Y41419167D01*
X24251017Y41128964D01*
X24244192Y41118750D01*
X24148963Y40640000D01*
X24173001Y40519153D01*
X24173000Y35680843D01*
X24148963Y35560000D01*
X24173000Y35439157D01*
X24173000Y35439154D01*
X24244192Y35081249D01*
X24515383Y34675383D01*
X24617833Y34606928D01*
X25569760Y33655000D01*
X24130000Y32215240D01*
X22999753Y33345486D01*
X22799753Y33828331D01*
X22398331Y34229753D01*
X21873848Y34447000D01*
X21306152Y34447000D01*
X20781669Y34229753D01*
X20380247Y33828331D01*
X20163000Y33303848D01*
X20163000Y32736152D01*
X20380247Y32211669D01*
X20781669Y31810247D01*
X21264514Y31610247D01*
X22903001Y29971759D01*
X22903000Y20355633D01*
X22855863Y20324137D01*
X22695182Y20083661D01*
X22638758Y19800000D01*
X22638758Y19293998D01*
X22351761Y19007000D01*
X21086693Y19007000D01*
X20603848Y19207000D01*
X20036152Y19207000D01*
X19511669Y18989753D01*
X19110247Y18588331D01*
X18910247Y18105487D01*
X18541761Y17737000D01*
X16474185Y17737000D01*
X16409831Y17780000D01*
X16498352Y17839148D01*
X16869554Y18394692D01*
X16999903Y19050000D01*
X16869554Y19705308D01*
X16498352Y20260852D01*
X16467000Y20281801D01*
X16467000Y24467496D01*
X16534528Y24535024D01*
X16767000Y25096261D01*
X16767000Y25703739D01*
X16534528Y26264976D01*
X16467000Y26332504D01*
X16467000Y28477804D01*
X16584204Y28653212D01*
X16625361Y28860121D01*
X17292170Y29526930D01*
X17394617Y29595383D01*
X17509147Y29766788D01*
X17665808Y30001248D01*
X17694287Y30144423D01*
X17737000Y30359153D01*
X17737000Y30359156D01*
X17761037Y30479999D01*
X17737000Y30600842D01*
X17737000Y32287804D01*
X17854204Y32463212D01*
X17964956Y33020000D01*
X17854204Y33576788D01*
X17538809Y34048809D01*
X17066788Y34364204D01*
X16650544Y34447000D01*
X16369456Y34447000D01*
X15953212Y34364204D01*
X15481191Y34048809D01*
X15165796Y33576788D01*
X15055044Y33020000D01*
X15165796Y32463212D01*
X15283001Y32287803D01*
X15283000Y30988240D01*
X14890121Y30595361D01*
X14683212Y30554204D01*
X14211191Y30238809D01*
X13895796Y29766788D01*
X13785044Y29210000D01*
X13895796Y28653212D01*
X14013001Y28477803D01*
X14013000Y26332504D01*
X13945472Y26264976D01*
X13713000Y25703739D01*
X13713000Y25096261D01*
X13945472Y24535024D01*
X14013001Y24467495D01*
X14013000Y20281801D01*
X13981648Y20260852D01*
X13610446Y19705308D01*
X13480097Y19050000D01*
X13610446Y18394692D01*
X13981648Y17839148D01*
X14070169Y17780000D01*
X13981648Y17720852D01*
X13610446Y17165308D01*
X13480097Y16510000D01*
X13610446Y15854692D01*
X13831480Y15523890D01*
X13715863Y15446637D01*
X13555182Y15206161D01*
X13498758Y14922500D01*
X13498758Y13017500D01*
X13555182Y12733839D01*
X13715863Y12493363D01*
X13956339Y12332682D01*
X14240000Y12276258D01*
X16240000Y12276258D01*
X16523661Y12332682D01*
X16764137Y12493363D01*
X16924818Y12733839D01*
X16926640Y12743000D01*
X18541761Y12743000D01*
X18934639Y12350121D01*
X18975796Y12143212D01*
X19291191Y11671191D01*
X19763212Y11355796D01*
X20179456Y11273000D01*
X20460544Y11273000D01*
X20876788Y11355796D01*
X21052196Y11473000D01*
X22351761Y11473000D01*
X22394761Y11430000D01*
X20807831Y9843070D01*
X20705384Y9774617D01*
X20636930Y9672169D01*
X20636929Y9672168D01*
X20603119Y9621567D01*
X20328579Y9507849D01*
X19702151Y8881421D01*
X19685000Y8840015D01*
X19667849Y8881421D01*
X19041421Y9507849D01*
X18222952Y9846870D01*
X17337048Y9846870D01*
X16518579Y9507849D01*
X16197754Y9187024D01*
X16154688Y9403531D01*
X15994007Y9644007D01*
X15753531Y9804688D01*
X15469870Y9861112D01*
X12470130Y9861112D01*
X12186469Y9804688D01*
X11945993Y9644007D01*
X11785312Y9403531D01*
X11728888Y9119870D01*
X11728888Y6120130D01*
X11785312Y5836469D01*
X11945993Y5595993D01*
X12186469Y5435312D01*
X12470130Y5378888D01*
X12743001Y5378888D01*
X12743001Y5240977D01*
X12718963Y5120130D01*
X12814192Y4641380D01*
X12814193Y4641379D01*
X12814193Y4641378D01*
X12847074Y4592168D01*
X13016929Y4337962D01*
X13016931Y4337960D01*
X13085384Y4235513D01*
X13187831Y4167060D01*
X14327061Y3027828D01*
X14395513Y2925383D01*
X14497957Y2856932D01*
X14497961Y2856928D01*
X14696451Y2724302D01*
X14801378Y2654192D01*
X15159283Y2583000D01*
X15159287Y2583000D01*
X15280130Y2558963D01*
X15400973Y2583000D01*
X25279157Y2583000D01*
X25400000Y2558963D01*
X25520843Y2583000D01*
X25520847Y2583000D01*
X25878752Y2654192D01*
X26284617Y2925383D01*
X26353072Y3027833D01*
X27452170Y4126930D01*
X27554617Y4195383D01*
X27649886Y4337962D01*
X27825808Y4601248D01*
X27844380Y4694617D01*
X27897000Y4959153D01*
X27897000Y4959156D01*
X27921037Y5079999D01*
X27897000Y5200842D01*
X27897000Y5717893D01*
X27931421Y5732151D01*
X28305393Y6106123D01*
X29145728Y6106123D01*
X29305495Y5787368D01*
X30096217Y5477405D01*
X30945366Y5493633D01*
X31654505Y5787368D01*
X31814272Y6106123D01*
X30480000Y7440395D01*
X29145728Y6106123D01*
X28305393Y6106123D01*
X28557849Y6358579D01*
X28620609Y6510096D01*
X28647368Y6445495D01*
X28966123Y6285728D01*
X30300395Y7620000D01*
X30659605Y7620000D01*
X31993877Y6285728D01*
X32155130Y6366552D01*
X32155130Y5993820D01*
X32251803Y5760431D01*
X32430432Y5581803D01*
X32663821Y5485130D01*
X34004250Y5485130D01*
X34163000Y5643880D01*
X34163000Y7493000D01*
X34417000Y7493000D01*
X34417000Y5643880D01*
X34575750Y5485130D01*
X35916179Y5485130D01*
X36149568Y5581803D01*
X36328197Y5760431D01*
X36424870Y5993820D01*
X36424870Y7334250D01*
X36266120Y7493000D01*
X34417000Y7493000D01*
X34163000Y7493000D01*
X34143000Y7493000D01*
X34143000Y7747000D01*
X34163000Y7747000D01*
X34163000Y9596120D01*
X34417000Y9596120D01*
X34417000Y7747000D01*
X36266120Y7747000D01*
X36422968Y7903848D01*
X44293000Y7903848D01*
X44293000Y7336152D01*
X44510247Y6811669D01*
X44911669Y6410247D01*
X45436152Y6193000D01*
X46003848Y6193000D01*
X46528331Y6410247D01*
X46929753Y6811669D01*
X47147000Y7336152D01*
X47147000Y7620000D01*
X49345044Y7620000D01*
X49455796Y7063212D01*
X49771191Y6591191D01*
X50243212Y6275796D01*
X50659456Y6193000D01*
X50940544Y6193000D01*
X51356788Y6275796D01*
X51532196Y6393000D01*
X54407549Y6393000D01*
X54505863Y6245863D01*
X54746339Y6085182D01*
X55030000Y6028758D01*
X56730000Y6028758D01*
X57013661Y6085182D01*
X57254137Y6245863D01*
X57414818Y6486339D01*
X57428146Y6553342D01*
X57653076Y6348355D01*
X58063110Y6178524D01*
X58293000Y6299845D01*
X58293000Y7493000D01*
X58547000Y7493000D01*
X58547000Y6299845D01*
X58776890Y6178524D01*
X59186924Y6348355D01*
X59615183Y6738642D01*
X59861486Y7263108D01*
X59740819Y7493000D01*
X58547000Y7493000D01*
X58293000Y7493000D01*
X58273000Y7493000D01*
X58273000Y7747000D01*
X58293000Y7747000D01*
X58293000Y8940155D01*
X58547000Y8940155D01*
X58547000Y7747000D01*
X59740819Y7747000D01*
X59861486Y7976892D01*
X59615183Y8501358D01*
X59186924Y8891645D01*
X58776890Y9061476D01*
X58547000Y8940155D01*
X58293000Y8940155D01*
X58063110Y9061476D01*
X57653076Y8891645D01*
X57428146Y8686658D01*
X57414818Y8753661D01*
X57254137Y8994137D01*
X57013661Y9154818D01*
X56730000Y9211242D01*
X55030000Y9211242D01*
X54746339Y9154818D01*
X54505863Y8994137D01*
X54407549Y8847000D01*
X51532196Y8847000D01*
X51356788Y8964204D01*
X50940544Y9047000D01*
X50659456Y9047000D01*
X50243212Y8964204D01*
X49771191Y8648809D01*
X49455796Y8176788D01*
X49345044Y7620000D01*
X47147000Y7620000D01*
X47147000Y7903848D01*
X46947000Y8386693D01*
X46947000Y18264214D01*
X56543819Y18264214D01*
X56795111Y17867467D01*
X57857342Y17432336D01*
X59005233Y17436827D01*
X60044889Y17867467D01*
X60296181Y18264214D01*
X58420000Y20140395D01*
X56543819Y18264214D01*
X46947000Y18264214D01*
X46947000Y20882658D01*
X55532336Y20882658D01*
X55536827Y19734767D01*
X55967467Y18695111D01*
X56364214Y18443819D01*
X58240395Y20320000D01*
X58599605Y20320000D01*
X60475786Y18443819D01*
X60872533Y18695111D01*
X61307664Y19757342D01*
X61303173Y20905233D01*
X60872533Y21944889D01*
X60475786Y22196181D01*
X58599605Y20320000D01*
X58240395Y20320000D01*
X56364214Y22196181D01*
X55967467Y21944889D01*
X55532336Y20882658D01*
X46947000Y20882658D01*
X46947000Y22375786D01*
X56543819Y22375786D01*
X58420000Y20499605D01*
X60296181Y22375786D01*
X60044889Y22772533D01*
X58982658Y23207664D01*
X57834767Y23203173D01*
X56795111Y22772533D01*
X56543819Y22375786D01*
X46947000Y22375786D01*
X46947000Y23756008D01*
X46972000Y23881691D01*
X46972000Y24378310D01*
X46899358Y24743506D01*
X46622642Y25157642D01*
X46208505Y25434358D01*
X45720000Y25531528D01*
X45231494Y25434358D01*
X44817358Y25157642D01*
X44540642Y24743505D01*
X44468000Y24378309D01*
X44468000Y23881690D01*
X44493000Y23756006D01*
X44493001Y8386695D01*
X44293000Y7903848D01*
X36422968Y7903848D01*
X36424870Y7905750D01*
X36424870Y9246180D01*
X36328197Y9479569D01*
X36149568Y9658197D01*
X35916179Y9754870D01*
X34575750Y9754870D01*
X34417000Y9596120D01*
X34163000Y9596120D01*
X34004250Y9754870D01*
X32663821Y9754870D01*
X32430432Y9658197D01*
X32251803Y9479569D01*
X32155130Y9246180D01*
X32155130Y8873448D01*
X31993877Y8954272D01*
X30659605Y7620000D01*
X30300395Y7620000D01*
X28966123Y8954272D01*
X28647368Y8794505D01*
X28621347Y8728124D01*
X28557849Y8881421D01*
X28305393Y9133877D01*
X29145728Y9133877D01*
X30480000Y7799605D01*
X31814272Y9133877D01*
X31654505Y9452632D01*
X30863783Y9762595D01*
X30014634Y9746367D01*
X29305495Y9452632D01*
X29145728Y9133877D01*
X28305393Y9133877D01*
X27931421Y9507849D01*
X27112952Y9846870D01*
X26227048Y9846870D01*
X25408579Y9507849D01*
X24782151Y8881421D01*
X24443130Y8062952D01*
X24443130Y7177048D01*
X24782151Y6358579D01*
X25408579Y5732151D01*
X25443000Y5717893D01*
X25443000Y5588240D01*
X24891761Y5037000D01*
X15788370Y5037000D01*
X15446482Y5378888D01*
X15469870Y5378888D01*
X15753531Y5435312D01*
X15994007Y5595993D01*
X16154688Y5836469D01*
X16197754Y6052976D01*
X16518579Y5732151D01*
X17337048Y5393130D01*
X18222952Y5393130D01*
X19041421Y5732151D01*
X19667849Y6358579D01*
X19685000Y6399985D01*
X19702151Y6358579D01*
X20328579Y5732151D01*
X21147048Y5393130D01*
X22032952Y5393130D01*
X22851421Y5732151D01*
X23477849Y6358579D01*
X23816870Y7177048D01*
X23816870Y8062952D01*
X23477849Y8881421D01*
X23397255Y8962015D01*
X24416241Y9981001D01*
X24706297Y10038697D01*
X24952195Y10203000D01*
X27819157Y10203000D01*
X27940000Y10178963D01*
X28060843Y10203000D01*
X28060847Y10203000D01*
X28418752Y10274192D01*
X28824617Y10545383D01*
X28893072Y10647833D01*
X29418239Y11173000D01*
X29513739Y11173000D01*
X30074976Y11405472D01*
X30504528Y11835024D01*
X30737000Y12396261D01*
X30737000Y13003739D01*
X30504528Y13564976D01*
X30074976Y13994528D01*
X29513739Y14227000D01*
X28906261Y14227000D01*
X28345024Y13994528D01*
X27915472Y13564976D01*
X27683000Y13003739D01*
X27683000Y12908239D01*
X27431761Y12657000D01*
X24952195Y12657000D01*
X24706297Y12821303D01*
X24416240Y12878999D01*
X23813072Y13482167D01*
X23744617Y13584617D01*
X23338752Y13855808D01*
X22980847Y13927000D01*
X22980843Y13927000D01*
X22860000Y13951037D01*
X22739157Y13927000D01*
X21052196Y13927000D01*
X20876788Y14044204D01*
X20669879Y14085361D01*
X20003072Y14752167D01*
X19934617Y14854617D01*
X19528752Y15125808D01*
X19170847Y15197000D01*
X19170843Y15197000D01*
X19050000Y15221037D01*
X18929157Y15197000D01*
X16926640Y15197000D01*
X16924818Y15206161D01*
X16873476Y15283000D01*
X18929157Y15283000D01*
X19050000Y15258963D01*
X19170843Y15283000D01*
X19170847Y15283000D01*
X19528752Y15354192D01*
X19934617Y15625383D01*
X20003072Y15727833D01*
X20645487Y16370247D01*
X21086693Y16553000D01*
X22739157Y16553000D01*
X22860000Y16528963D01*
X22980843Y16553000D01*
X22980847Y16553000D01*
X23338752Y16624192D01*
X23440615Y16692255D01*
X28381861Y16692255D01*
X28455995Y16446136D01*
X28993223Y16253035D01*
X29563454Y16280222D01*
X29964005Y16446136D01*
X30038139Y16692255D01*
X29210000Y17520395D01*
X28381861Y16692255D01*
X23440615Y16692255D01*
X23744617Y16895383D01*
X23813072Y16997833D01*
X24373998Y17558758D01*
X24880000Y17558758D01*
X25163661Y17615182D01*
X25404137Y17775863D01*
X25498292Y17916777D01*
X27763035Y17916777D01*
X27790222Y17346546D01*
X27956136Y16945995D01*
X28202255Y16871861D01*
X29030395Y17700000D01*
X29389605Y17700000D01*
X30217745Y16871861D01*
X30463864Y16945995D01*
X30656965Y17483223D01*
X30629778Y18053454D01*
X30463864Y18454005D01*
X30217745Y18528139D01*
X29389605Y17700000D01*
X29030395Y17700000D01*
X28202255Y18528139D01*
X27956136Y18454005D01*
X27763035Y17916777D01*
X25498292Y17916777D01*
X25564818Y18016339D01*
X25621242Y18300000D01*
X25621242Y18707745D01*
X28381861Y18707745D01*
X29210000Y17879605D01*
X30038139Y18707745D01*
X29964005Y18953864D01*
X29426777Y19146965D01*
X28856546Y19119778D01*
X28455995Y18953864D01*
X28381861Y18707745D01*
X25621242Y18707745D01*
X25621242Y19800000D01*
X25564818Y20083661D01*
X25404137Y20324137D01*
X25357000Y20355633D01*
X25357000Y22574250D01*
X35295000Y22574250D01*
X35295000Y21833691D01*
X35391673Y21600302D01*
X35570301Y21421673D01*
X35803690Y21325000D01*
X36544250Y21325000D01*
X36703000Y21483750D01*
X36703000Y22733000D01*
X36957000Y22733000D01*
X36957000Y21483750D01*
X37115750Y21325000D01*
X37856310Y21325000D01*
X38089699Y21421673D01*
X38268327Y21600302D01*
X38365000Y21833691D01*
X38365000Y22574250D01*
X38206250Y22733000D01*
X36957000Y22733000D01*
X36703000Y22733000D01*
X35453750Y22733000D01*
X35295000Y22574250D01*
X25357000Y22574250D01*
X25357000Y25723630D01*
X35203000Y25723630D01*
X35203000Y25076370D01*
X35450696Y24478378D01*
X35613043Y24316031D01*
X35570301Y24298327D01*
X35391673Y24119698D01*
X35295000Y23886309D01*
X35295000Y23145750D01*
X35453750Y22987000D01*
X36703000Y22987000D01*
X36703000Y23007000D01*
X36957000Y23007000D01*
X36957000Y22987000D01*
X38206250Y22987000D01*
X38365000Y23145750D01*
X38365000Y23821578D01*
X42034702Y23821578D01*
X42192075Y23397254D01*
X42499851Y23065453D01*
X42874190Y22886036D01*
X43053000Y23011837D01*
X43053000Y24003000D01*
X43307000Y24003000D01*
X43307000Y23011837D01*
X43485810Y22886036D01*
X43860149Y23065453D01*
X44167925Y23397254D01*
X44325298Y23821578D01*
X44181141Y24003000D01*
X43307000Y24003000D01*
X43053000Y24003000D01*
X42178859Y24003000D01*
X42034702Y23821578D01*
X38365000Y23821578D01*
X38365000Y23886309D01*
X38268327Y24119698D01*
X38089699Y24298327D01*
X38046957Y24316031D01*
X38169348Y24438422D01*
X42034702Y24438422D01*
X42178859Y24257000D01*
X43053000Y24257000D01*
X43053000Y25248163D01*
X43307000Y25248163D01*
X43307000Y24257000D01*
X44181141Y24257000D01*
X44325298Y24438422D01*
X44167925Y24862746D01*
X43860149Y25194547D01*
X43485810Y25373964D01*
X43307000Y25248163D01*
X43053000Y25248163D01*
X42874190Y25373964D01*
X42499851Y25194547D01*
X42192075Y24862746D01*
X42034702Y24438422D01*
X38169348Y24438422D01*
X38209304Y24478378D01*
X38457000Y25076370D01*
X38457000Y25291761D01*
X41148240Y27983000D01*
X42447804Y27983000D01*
X42623212Y27865796D01*
X43039456Y27783000D01*
X43320544Y27783000D01*
X43736788Y27865796D01*
X44208809Y28181191D01*
X44524204Y28653212D01*
X44634956Y29210000D01*
X44524204Y29766788D01*
X44208809Y30238809D01*
X43736788Y30554204D01*
X43320544Y30637000D01*
X43039456Y30637000D01*
X42623212Y30554204D01*
X42447804Y30437000D01*
X40760843Y30437000D01*
X40640000Y30461037D01*
X40519157Y30437000D01*
X40519153Y30437000D01*
X40161248Y30365808D01*
X39755383Y30094617D01*
X39686930Y29992170D01*
X36721761Y27027000D01*
X36506370Y27027000D01*
X35908378Y26779304D01*
X35450696Y26321622D01*
X35203000Y25723630D01*
X25357000Y25723630D01*
X25357000Y29971761D01*
X27154033Y31768793D01*
X27363703Y31628697D01*
X27794529Y31543000D01*
X28085471Y31543000D01*
X28516297Y31628697D01*
X29004858Y31955142D01*
X29331303Y32443703D01*
X29389096Y32734250D01*
X34175000Y32734250D01*
X34175000Y32143690D01*
X34271673Y31910301D01*
X34450302Y31731673D01*
X34683691Y31635000D01*
X35274250Y31635000D01*
X35433000Y31793750D01*
X35433000Y32893000D01*
X35687000Y32893000D01*
X35687000Y31793750D01*
X35845750Y31635000D01*
X36436309Y31635000D01*
X36669698Y31731673D01*
X36848327Y31910301D01*
X36945000Y32143690D01*
X36945000Y32734250D01*
X36786250Y32893000D01*
X35687000Y32893000D01*
X35433000Y32893000D01*
X34333750Y32893000D01*
X34175000Y32734250D01*
X29389096Y32734250D01*
X29445936Y33020000D01*
X29331303Y33596297D01*
X29130842Y33896310D01*
X34175000Y33896310D01*
X34175000Y33305750D01*
X34333750Y33147000D01*
X35433000Y33147000D01*
X35433000Y34246250D01*
X35687000Y34246250D01*
X35687000Y33147000D01*
X36786250Y33147000D01*
X36945000Y33305750D01*
X36945000Y33896310D01*
X36848327Y34129699D01*
X36669698Y34308327D01*
X36436309Y34405000D01*
X35845750Y34405000D01*
X35687000Y34246250D01*
X35433000Y34246250D01*
X35274250Y34405000D01*
X34683691Y34405000D01*
X34450302Y34308327D01*
X34271673Y34129699D01*
X34175000Y33896310D01*
X29130842Y33896310D01*
X29004858Y34084858D01*
X28516297Y34411303D01*
X28226241Y34468999D01*
X26627000Y36068239D01*
X26627000Y37172255D01*
X27111861Y37172255D01*
X27185995Y36926136D01*
X27723223Y36733035D01*
X28293454Y36760222D01*
X28694005Y36926136D01*
X28768139Y37172255D01*
X27940000Y38000395D01*
X27111861Y37172255D01*
X26627000Y37172255D01*
X26627000Y37568762D01*
X26686136Y37425995D01*
X26932255Y37351861D01*
X27760395Y38180000D01*
X28119605Y38180000D01*
X28947745Y37351861D01*
X29193864Y37425995D01*
X29386965Y37963223D01*
X29366034Y38402255D01*
X34731861Y38402255D01*
X34805995Y38156136D01*
X35343223Y37963035D01*
X35913454Y37990222D01*
X36314005Y38156136D01*
X36388139Y38402255D01*
X35560000Y39230395D01*
X34731861Y38402255D01*
X29366034Y38402255D01*
X29359778Y38533454D01*
X29193864Y38934005D01*
X28947745Y39008139D01*
X28119605Y38180000D01*
X27760395Y38180000D01*
X26932255Y39008139D01*
X26686136Y38934005D01*
X26627000Y38769482D01*
X26627000Y39187745D01*
X27111861Y39187745D01*
X27940000Y38359605D01*
X28768139Y39187745D01*
X28694005Y39433864D01*
X28156777Y39626965D01*
X27586546Y39599778D01*
X27185995Y39433864D01*
X27111861Y39187745D01*
X26627000Y39187745D01*
X26627000Y40131761D01*
X27493437Y40998198D01*
X27720662Y40953000D01*
X27720666Y40953000D01*
X27939999Y40909372D01*
X28159332Y40953000D01*
X31969338Y40953000D01*
X32618932Y41082212D01*
X33355577Y41574423D01*
X33374672Y41603000D01*
X34013171Y41603000D01*
X34018758Y41574914D01*
X34018758Y41110000D01*
X34075182Y40826339D01*
X34235863Y40585863D01*
X34476339Y40425182D01*
X34504037Y40419673D01*
X34437378Y40353014D01*
X34552253Y40238139D01*
X34306136Y40164005D01*
X34113035Y39626777D01*
X34140222Y39056546D01*
X34306136Y38655995D01*
X34552255Y38581861D01*
X35380395Y39410000D01*
X35366252Y39424142D01*
X35545858Y39603748D01*
X35560000Y39589605D01*
X35574142Y39603748D01*
X35753748Y39424142D01*
X35739605Y39410000D01*
X36567745Y38581861D01*
X36813864Y38655995D01*
X37006965Y39193223D01*
X36979778Y39763454D01*
X36813864Y40164005D01*
X36567747Y40238139D01*
X36682622Y40353014D01*
X36615963Y40419673D01*
X36643661Y40425182D01*
X36670701Y40443250D01*
X45413000Y40443250D01*
X45413000Y39656750D01*
X45713980Y38930119D01*
X46270119Y38373980D01*
X46996750Y38073000D01*
X47631760Y38073000D01*
X48303001Y37401759D01*
X48303000Y33842195D01*
X48138697Y33596297D01*
X48024064Y33020000D01*
X48138697Y32443703D01*
X48303001Y32197804D01*
X48303000Y30988240D01*
X47934513Y30619753D01*
X47451669Y30419753D01*
X47050247Y30018331D01*
X46833000Y29493848D01*
X46833000Y28926152D01*
X47033001Y28443305D01*
X47033000Y24977283D01*
X46993758Y24780000D01*
X46993758Y23480000D01*
X47050182Y23196339D01*
X47210863Y22955863D01*
X47451339Y22795182D01*
X47735000Y22738758D01*
X48785000Y22738758D01*
X49068661Y22795182D01*
X49309137Y22955863D01*
X49469818Y23196339D01*
X49526242Y23480000D01*
X49526242Y24780000D01*
X49487000Y24977282D01*
X49487000Y28443307D01*
X49669753Y28884513D01*
X50312170Y29526930D01*
X50414617Y29595383D01*
X50529147Y29766788D01*
X50685808Y30001248D01*
X50714287Y30144423D01*
X50757000Y30359153D01*
X50757000Y30359156D01*
X50781037Y30479999D01*
X50757000Y30600842D01*
X50757000Y32197805D01*
X50921303Y32443703D01*
X51035936Y33020000D01*
X50921303Y33596297D01*
X50757000Y33842195D01*
X50757000Y37789158D01*
X50781037Y37910001D01*
X50757000Y38030844D01*
X50757000Y38030847D01*
X50685808Y38388752D01*
X50540485Y38606243D01*
X50483071Y38692169D01*
X50483070Y38692170D01*
X50414617Y38794617D01*
X50312170Y38863070D01*
X49367000Y39808240D01*
X49367000Y40443250D01*
X49066020Y41169881D01*
X48509881Y41726020D01*
X47783250Y42027000D01*
X46996750Y42027000D01*
X46270119Y41726020D01*
X45713980Y41169881D01*
X45413000Y40443250D01*
X36670701Y40443250D01*
X36884137Y40585863D01*
X37044818Y40826339D01*
X37101242Y41110000D01*
X37101242Y41574914D01*
X37137000Y41754682D01*
X37137000Y42584687D01*
X37167894Y42740003D01*
X37137000Y42895320D01*
X37137000Y42895321D01*
X37045501Y43355317D01*
X36696953Y43876955D01*
X36565280Y43964936D01*
X36344937Y44185279D01*
X36256955Y44316953D01*
X35735317Y44665501D01*
X35275321Y44757000D01*
X35275317Y44757000D01*
X35120002Y44787894D01*
X34964687Y44757000D01*
X33477000Y44757000D01*
X33477000Y45263000D01*
X35730091Y45263000D01*
X36233842Y45363202D01*
X36287055Y45398758D01*
X36410000Y45398758D01*
X36693661Y45455182D01*
X36934137Y45615863D01*
X37052625Y45793193D01*
X37484685Y45504499D01*
X37944681Y45413000D01*
X41874685Y45413000D01*
X42030000Y45382106D01*
X42185315Y45413000D01*
X42185319Y45413000D01*
X42645315Y45504499D01*
X43166953Y45853047D01*
X43254935Y45984721D01*
X47343215Y50073000D01*
X47782978Y50073000D01*
X48601494Y50412040D01*
X49227960Y51038506D01*
X49567000Y51857022D01*
X49567000Y52742978D01*
X49499979Y52904782D01*
X58163000Y44241760D01*
X58163001Y41618902D01*
X57713980Y41169881D01*
X57413000Y40443250D01*
X57413000Y39808240D01*
X56367831Y38763070D01*
X56265384Y38694617D01*
X56196931Y38592170D01*
X56196929Y38592168D01*
X55994192Y38288750D01*
X55898963Y37810000D01*
X55923001Y37689153D01*
X55923000Y34325633D01*
X55875863Y34294137D01*
X55715182Y34053661D01*
X55658758Y33770000D01*
X55658758Y32580695D01*
X55567000Y32672453D01*
X55567000Y38542978D01*
X55481417Y38749594D01*
X55437788Y38968932D01*
X55313544Y39154877D01*
X55227960Y39361494D01*
X55069821Y39519633D01*
X54945577Y39705577D01*
X54759633Y39829821D01*
X54601494Y39987960D01*
X54394877Y40073544D01*
X54208932Y40197788D01*
X53989594Y40241417D01*
X53782978Y40327000D01*
X53559338Y40327000D01*
X53340000Y40370629D01*
X53120662Y40327000D01*
X52897022Y40327000D01*
X52690405Y40241417D01*
X52471069Y40197788D01*
X52285126Y40073545D01*
X52078506Y39987960D01*
X51920365Y39829819D01*
X51734424Y39705577D01*
X51610182Y39519636D01*
X51452040Y39361494D01*
X51366455Y39154873D01*
X51242213Y38968932D01*
X51198585Y38749599D01*
X51113000Y38542978D01*
X51113000Y37657022D01*
X51113001Y37657020D01*
X51113000Y31969333D01*
X51069372Y31750000D01*
X51113000Y31530667D01*
X51113000Y31530663D01*
X51242212Y30881069D01*
X51734423Y30144423D01*
X51920370Y30020177D01*
X55428318Y26512228D01*
X55428318Y24419560D01*
X55484742Y24135899D01*
X55645423Y23895423D01*
X55885899Y23734742D01*
X56169560Y23678318D01*
X60670440Y23678318D01*
X60954101Y23734742D01*
X61194577Y23895423D01*
X61355258Y24135899D01*
X61411682Y24419560D01*
X61411682Y28920440D01*
X61355258Y29204101D01*
X61194577Y29444577D01*
X60954101Y29605258D01*
X60670440Y29661682D01*
X58577772Y29661682D01*
X56710695Y31528758D01*
X57900000Y31528758D01*
X58183661Y31585182D01*
X58424137Y31745863D01*
X58584818Y31986339D01*
X58641242Y32270000D01*
X58641242Y33770000D01*
X58584818Y34053661D01*
X58424137Y34294137D01*
X58377000Y34325633D01*
X58377000Y37301761D01*
X59148240Y38073000D01*
X59783250Y38073000D01*
X60509881Y38373980D01*
X61066020Y38930119D01*
X61367000Y39656750D01*
X61367000Y40443250D01*
X61066020Y41169881D01*
X60617000Y41618901D01*
X60617000Y44629157D01*
X60641037Y44750000D01*
X60617000Y44870843D01*
X60617000Y44870847D01*
X60545808Y45228752D01*
X60274617Y45634617D01*
X60172170Y45703070D01*
X53182262Y52692978D01*
X57163000Y52692978D01*
X57163000Y51807022D01*
X57502040Y50988506D01*
X58128506Y50362040D01*
X58947022Y50023000D01*
X59832978Y50023000D01*
X60651494Y50362040D01*
X61277960Y50988506D01*
X61617000Y51807022D01*
X61617000Y52692978D01*
X61277960Y53511494D01*
X60651494Y54137960D01*
X59832978Y54477000D01*
X58947022Y54477000D01*
X58128506Y54137960D01*
X57502040Y53511494D01*
X57163000Y52692978D01*
X53182262Y52692978D01*
X49213072Y56662167D01*
X49144617Y56764617D01*
X48738752Y57035808D01*
X48380847Y57107000D01*
X48380843Y57107000D01*
X48260000Y57131037D01*
X48139157Y57107000D01*
X45840842Y57107000D01*
X45719999Y57131037D01*
X45599156Y57107000D01*
X45599153Y57107000D01*
X45281175Y57043750D01*
X45241248Y57035808D01*
X45027574Y56893035D01*
X44835383Y56764617D01*
X44766930Y56662170D01*
X42671761Y54567000D01*
X33608534Y54567000D01*
X33355577Y54945577D01*
X32618932Y55437788D01*
X31969338Y55567000D01*
X19357000Y55567000D01*
X19357000Y56035319D01*
X19321242Y56215086D01*
X19321242Y56680000D01*
X19264818Y56963661D01*
X19104137Y57204137D01*
X18912395Y57332255D01*
X24571861Y57332255D01*
X24645995Y57086136D01*
X25183223Y56893035D01*
X25753454Y56920222D01*
X26154005Y57086136D01*
X26228139Y57332255D01*
X25400000Y58160395D01*
X24571861Y57332255D01*
X18912395Y57332255D01*
X18863661Y57364818D01*
X18835963Y57370327D01*
X18902622Y57436986D01*
X18787747Y57551861D01*
X19033864Y57625995D01*
X19226965Y58163223D01*
X19208202Y58556777D01*
X23953035Y58556777D01*
X23980222Y57986546D01*
X24146136Y57585995D01*
X24392255Y57511861D01*
X25220395Y58340000D01*
X25579605Y58340000D01*
X26407745Y57511861D01*
X26653864Y57585995D01*
X26846965Y58123223D01*
X26819778Y58693454D01*
X26815473Y58703848D01*
X30323000Y58703848D01*
X30323000Y58136152D01*
X30540247Y57611669D01*
X30941669Y57210247D01*
X31466152Y56993000D01*
X32033848Y56993000D01*
X32516693Y57193000D01*
X37026074Y57193000D01*
X37178378Y57040696D01*
X37776370Y56793000D01*
X38423630Y56793000D01*
X39021622Y57040696D01*
X39183969Y57203043D01*
X39201673Y57160301D01*
X39380302Y56981673D01*
X39613691Y56885000D01*
X40354250Y56885000D01*
X40513000Y57043750D01*
X40513000Y58293000D01*
X40767000Y58293000D01*
X40767000Y57043750D01*
X40925750Y56885000D01*
X41666309Y56885000D01*
X41899698Y56981673D01*
X42078327Y57160301D01*
X42175000Y57393690D01*
X42175000Y58134250D01*
X42016250Y58293000D01*
X40767000Y58293000D01*
X40513000Y58293000D01*
X40493000Y58293000D01*
X40493000Y58547000D01*
X40513000Y58547000D01*
X40513000Y59796250D01*
X40767000Y59796250D01*
X40767000Y58547000D01*
X42016250Y58547000D01*
X42175000Y58705750D01*
X42175000Y59446310D01*
X42078327Y59679699D01*
X41899698Y59858327D01*
X41666309Y59955000D01*
X40925750Y59955000D01*
X40767000Y59796250D01*
X40513000Y59796250D01*
X40354250Y59955000D01*
X39613691Y59955000D01*
X39380302Y59858327D01*
X39201673Y59679699D01*
X39183969Y59636957D01*
X39021622Y59799304D01*
X38423630Y60047000D01*
X37776370Y60047000D01*
X37178378Y59799304D01*
X37026074Y59647000D01*
X32516693Y59647000D01*
X32033848Y59847000D01*
X31466152Y59847000D01*
X30941669Y59629753D01*
X30540247Y59228331D01*
X30323000Y58703848D01*
X26815473Y58703848D01*
X26653864Y59094005D01*
X26407745Y59168139D01*
X25579605Y58340000D01*
X25220395Y58340000D01*
X24392255Y59168139D01*
X24146136Y59094005D01*
X23953035Y58556777D01*
X19208202Y58556777D01*
X19199778Y58733454D01*
X19033864Y59134005D01*
X18787745Y59208139D01*
X17959605Y58380000D01*
X17973748Y58365858D01*
X17794142Y58186252D01*
X17780000Y58200395D01*
X17765858Y58186252D01*
X17586252Y58365858D01*
X17600395Y58380000D01*
X16772255Y59208139D01*
X16526136Y59134005D01*
X16333035Y58596777D01*
X16360222Y58026546D01*
X16526136Y57625995D01*
X16772253Y57551861D01*
X16657378Y57436986D01*
X16724037Y57370327D01*
X16696339Y57364818D01*
X16455863Y57204137D01*
X16295182Y56963661D01*
X16238758Y56680000D01*
X16238758Y56215085D01*
X16203000Y56035318D01*
X16203000Y55567000D01*
X15559339Y55567000D01*
X15340001Y55610629D01*
X15120663Y55567000D01*
X12143735Y55567000D01*
X11846584Y55864151D01*
X10752250Y56317440D01*
X9567750Y56317440D01*
X8473416Y55864151D01*
X7635849Y55026584D01*
X7182560Y53932250D01*
X7182560Y52747750D01*
X7635849Y51653416D01*
X8473416Y50815849D01*
X8615490Y50757000D01*
X7740842Y50757000D01*
X7619999Y50781037D01*
X7499156Y50757000D01*
X7499153Y50757000D01*
X7141248Y50685808D01*
X6735383Y50414617D01*
X6666930Y50312169D01*
X5567831Y49213070D01*
X5465384Y49144617D01*
X5396931Y49042170D01*
X5396929Y49042168D01*
X5267347Y48848235D01*
X5200260Y48747831D01*
X5194192Y48738750D01*
X5098963Y48260000D01*
X1397000Y48260000D01*
X1397000Y59404250D01*
X7274560Y59404250D01*
X7274560Y57313251D01*
X7371233Y57079862D01*
X7549861Y56901233D01*
X7783250Y56804560D01*
X9874250Y56804560D01*
X10033000Y56963310D01*
X10033000Y59563000D01*
X10287000Y59563000D01*
X10287000Y56963310D01*
X10445750Y56804560D01*
X12536750Y56804560D01*
X12770139Y56901233D01*
X12948767Y57079862D01*
X13045440Y57313251D01*
X13045440Y59387745D01*
X16951861Y59387745D01*
X17780000Y58559605D01*
X18568139Y59347745D01*
X24571861Y59347745D01*
X25400000Y58519605D01*
X26228139Y59347745D01*
X26154005Y59593864D01*
X25616777Y59786965D01*
X25046546Y59759778D01*
X24645995Y59593864D01*
X24571861Y59347745D01*
X18568139Y59347745D01*
X18608139Y59387745D01*
X18534005Y59633864D01*
X17996777Y59826965D01*
X17426546Y59799778D01*
X17025995Y59633864D01*
X16951861Y59387745D01*
X13045440Y59387745D01*
X13045440Y59404250D01*
X12886690Y59563000D01*
X10287000Y59563000D01*
X10033000Y59563000D01*
X7433310Y59563000D01*
X7274560Y59404250D01*
X1397000Y59404250D01*
X1397000Y62066749D01*
X7274560Y62066749D01*
X7274560Y59975750D01*
X7433310Y59817000D01*
X10033000Y59817000D01*
X10033000Y62416690D01*
X10287000Y62416690D01*
X10287000Y59817000D01*
X12886690Y59817000D01*
X13045440Y59975750D01*
X13045440Y62066749D01*
X12948767Y62300138D01*
X12770139Y62478767D01*
X12536750Y62575440D01*
X10445750Y62575440D01*
X10287000Y62416690D01*
X10033000Y62416690D01*
X9874250Y62575440D01*
X7783250Y62575440D01*
X7549861Y62478767D01*
X7371233Y62300138D01*
X7274560Y62066749D01*
X1397000Y62066749D01*
X1397000Y65913000D01*
X65913000Y65913000D01*
X65913000Y1397000D01*
X65913000Y1397000D01*
G37*
X65913000Y1397000D02*
X1397000Y1397000D01*
X1397000Y24392255D01*
X9411861Y24392255D01*
X9485995Y24146136D01*
X10023223Y23953035D01*
X10593454Y23980222D01*
X10994005Y24146136D01*
X11068139Y24392255D01*
X10240000Y25220395D01*
X9411861Y24392255D01*
X1397000Y24392255D01*
X1397000Y25616777D01*
X8793035Y25616777D01*
X8820222Y25046546D01*
X8986136Y24645995D01*
X9232255Y24571861D01*
X10060395Y25400000D01*
X10419605Y25400000D01*
X11247745Y24571861D01*
X11493864Y24645995D01*
X11686965Y25183223D01*
X11659778Y25753454D01*
X11493864Y26154005D01*
X11247745Y26228139D01*
X10419605Y25400000D01*
X10060395Y25400000D01*
X9232255Y26228139D01*
X8986136Y26154005D01*
X8793035Y25616777D01*
X1397000Y25616777D01*
X1397000Y26407745D01*
X9411861Y26407745D01*
X10240000Y25579605D01*
X11068139Y26407745D01*
X10994005Y26653864D01*
X10456777Y26846965D01*
X9886546Y26819778D01*
X9485995Y26653864D01*
X9411861Y26407745D01*
X1397000Y26407745D01*
X1397000Y48260000D01*
X5098963Y48260000D01*
X5123001Y48139153D01*
X5123000Y35680843D01*
X5098963Y35560000D01*
X5123000Y35439157D01*
X5123000Y35439154D01*
X5194192Y35081249D01*
X5465383Y34675383D01*
X5567833Y34606928D01*
X8841334Y31333426D01*
X8855642Y31261494D01*
X8933001Y31145718D01*
X8933000Y29976694D01*
X8733000Y29493848D01*
X8733000Y28926152D01*
X8950247Y28401669D01*
X9351669Y28000247D01*
X9876152Y27783000D01*
X10443848Y27783000D01*
X10968331Y28000247D01*
X11369753Y28401669D01*
X11587000Y28926152D01*
X11587000Y29493848D01*
X11387000Y29976693D01*
X11387000Y31145719D01*
X11464358Y31261494D01*
X11561528Y31750000D01*
X11464358Y32238506D01*
X11187642Y32652642D01*
X10773506Y32929358D01*
X10701574Y32943666D01*
X10582240Y33063000D01*
X12579157Y33063000D01*
X12700000Y33038963D01*
X12820843Y33063000D01*
X12820847Y33063000D01*
X13178752Y33134192D01*
X13584617Y33405383D01*
X13653072Y33507833D01*
X16835487Y36690248D01*
X17318331Y36890247D01*
X17719753Y37291669D01*
X17937000Y37816152D01*
X17937000Y38383848D01*
X17817229Y38673001D01*
X20256629Y38673001D01*
X20245796Y38656788D01*
X20135044Y38100000D01*
X20245796Y37543212D01*
X20561191Y37071191D01*
X21033212Y36755796D01*
X21449456Y36673000D01*
X21730544Y36673000D01*
X22146788Y36755796D01*
X22618809Y37071191D01*
X22934204Y37543212D01*
X23044956Y38100000D01*
X22934204Y38656788D01*
X22817000Y38832196D01*
X22817000Y39249157D01*
X22841037Y39370000D01*
X22817000Y39490843D01*
X22817000Y39490847D01*
X22745808Y39848752D01*
X22611338Y40050000D01*
X22543072Y40152168D01*
X22543070Y40152170D01*
X22474617Y40254617D01*
X22372169Y40323071D01*
X22013071Y40682169D01*
X21944616Y40784618D01*
X21538751Y41055809D01*
X21180846Y41127001D01*
X21180842Y41127001D01*
X21059999Y41151038D01*
X20939156Y41127001D01*
X13350844Y41127001D01*
X13230001Y41151038D01*
X13109158Y41127001D01*
X13109154Y41127001D01*
X12751249Y41055809D01*
X12624274Y40970967D01*
X11598906Y41996334D01*
X11693661Y42015182D01*
X11934137Y42175863D01*
X12094818Y42416339D01*
X12151242Y42700000D01*
X12151242Y46200000D01*
X12094818Y46483661D01*
X11934137Y46724137D01*
X11693661Y46884818D01*
X11410000Y46941242D01*
X8910000Y46941242D01*
X8626339Y46884818D01*
X8385863Y46724137D01*
X8225182Y46483661D01*
X8168758Y46200000D01*
X8168758Y42700000D01*
X8225182Y42416339D01*
X8385863Y42175863D01*
X8626339Y42015182D01*
X8910000Y41958758D01*
X8933001Y41958758D01*
X8933001Y41820847D01*
X8908963Y41700000D01*
X9004192Y41221250D01*
X9004193Y41221249D01*
X9004193Y41221248D01*
X9051106Y41151038D01*
X9206929Y40917832D01*
X9206931Y40917830D01*
X9275384Y40815383D01*
X9377831Y40746930D01*
X10859760Y39265000D01*
X9691003Y38096242D01*
X9510000Y38096242D01*
X9226339Y38039818D01*
X8985863Y37879137D01*
X8825182Y37638661D01*
X8768758Y37355000D01*
X8768758Y36305000D01*
X8825182Y36021339D01*
X8985863Y35780863D01*
X9226339Y35620182D01*
X9510000Y35563758D01*
X10810000Y35563758D01*
X11093661Y35620182D01*
X11334137Y35780863D01*
X11494818Y36021339D01*
X11551242Y36305000D01*
X11551242Y36486003D01*
X13482170Y38416930D01*
X13584617Y38485383D01*
X13653072Y38587832D01*
X13738240Y38673001D01*
X15202771Y38673001D01*
X15100248Y38425487D01*
X12191761Y35517000D01*
X10533993Y35517000D01*
X10408310Y35542000D01*
X9911690Y35542000D01*
X9546494Y35469358D01*
X9132358Y35192642D01*
X8860085Y34785155D01*
X7577000Y36068239D01*
X7577000Y47751761D01*
X8128240Y48303000D01*
X10468189Y48303000D01*
X10644150Y48267999D01*
X10644154Y48267999D01*
X10764997Y48243962D01*
X10885840Y48267999D01*
X13408001Y48267999D01*
X13408000Y44230663D01*
X13537212Y43581069D01*
X13758542Y43249825D01*
X13772707Y43178613D01*
X14209664Y42524663D01*
X14863614Y42087707D01*
X15635000Y41934269D01*
X16406387Y42087707D01*
X17060337Y42524663D01*
X17497293Y43178613D01*
X17511458Y43249824D01*
X17732788Y43581068D01*
X17862000Y44230662D01*
X17862000Y48980662D01*
X17905629Y49200000D01*
X17732788Y50068932D01*
X17567001Y50317049D01*
X17567001Y51113000D01*
X31969338Y51113000D01*
X32618932Y51242212D01*
X33355577Y51734423D01*
X33608534Y52113000D01*
X43059157Y52113000D01*
X43180000Y52088963D01*
X43300843Y52113000D01*
X43300847Y52113000D01*
X43658752Y52184192D01*
X44064617Y52455383D01*
X44133072Y52557833D01*
X46228240Y54653000D01*
X47751761Y54653000D01*
X47944782Y54459978D01*
X47782978Y54527000D01*
X46897022Y54527000D01*
X46078506Y54187960D01*
X45452040Y53561494D01*
X45113000Y52742978D01*
X45113000Y52303215D01*
X41376786Y48567000D01*
X37944681Y48567000D01*
X37484685Y48475501D01*
X37052625Y48186807D01*
X36934137Y48364137D01*
X36693661Y48524818D01*
X36410000Y48581242D01*
X36287055Y48581242D01*
X36233842Y48616798D01*
X35730091Y48717000D01*
X32880090Y48717000D01*
X32709999Y48750833D01*
X32539909Y48717000D01*
X32036158Y48616798D01*
X31464903Y48235097D01*
X31368550Y48090895D01*
X30649105Y47371450D01*
X30504903Y47275097D01*
X30136763Y46724137D01*
X30123202Y46703841D01*
X29989167Y46030000D01*
X30023000Y45859909D01*
X30023000Y45407000D01*
X28862453Y45407000D01*
X28399823Y45869630D01*
X28275577Y46055577D01*
X27538932Y46547788D01*
X26889338Y46677000D01*
X26889333Y46677000D01*
X26670000Y46720628D01*
X26450667Y46677000D01*
X22083866Y46677000D01*
X21881386Y46812293D01*
X21110000Y46965731D01*
X20338613Y46812293D01*
X19684663Y46375337D01*
X19247707Y45721386D01*
X19233543Y45650176D01*
X19012212Y45318932D01*
X18839371Y44450000D01*
X19012212Y43581068D01*
X19233542Y43249824D01*
X19247707Y43178613D01*
X19684664Y42524663D01*
X20338614Y42087707D01*
X21110000Y41934269D01*
X21881387Y42087707D01*
X22083867Y42223000D01*
X25247761Y42223000D01*
X24617831Y41593070D01*
X24515384Y41524617D01*
X24446931Y41422170D01*
X24446929Y41422168D01*
X24444924Y41419167D01*
X24251017Y41128964D01*
X24244192Y41118750D01*
X24148963Y40640000D01*
X24173001Y40519153D01*
X24173000Y35680843D01*
X24148963Y35560000D01*
X24173000Y35439157D01*
X24173000Y35439154D01*
X24244192Y35081249D01*
X24515383Y34675383D01*
X24617833Y34606928D01*
X25569760Y33655000D01*
X24130000Y32215240D01*
X22999753Y33345486D01*
X22799753Y33828331D01*
X22398331Y34229753D01*
X21873848Y34447000D01*
X21306152Y34447000D01*
X20781669Y34229753D01*
X20380247Y33828331D01*
X20163000Y33303848D01*
X20163000Y32736152D01*
X20380247Y32211669D01*
X20781669Y31810247D01*
X21264514Y31610247D01*
X22903001Y29971759D01*
X22903000Y20355633D01*
X22855863Y20324137D01*
X22695182Y20083661D01*
X22638758Y19800000D01*
X22638758Y19293998D01*
X22351761Y19007000D01*
X21086693Y19007000D01*
X20603848Y19207000D01*
X20036152Y19207000D01*
X19511669Y18989753D01*
X19110247Y18588331D01*
X18910247Y18105487D01*
X18541761Y17737000D01*
X16474185Y17737000D01*
X16409831Y17780000D01*
X16498352Y17839148D01*
X16869554Y18394692D01*
X16999903Y19050000D01*
X16869554Y19705308D01*
X16498352Y20260852D01*
X16467000Y20281801D01*
X16467000Y24467496D01*
X16534528Y24535024D01*
X16767000Y25096261D01*
X16767000Y25703739D01*
X16534528Y26264976D01*
X16467000Y26332504D01*
X16467000Y28477804D01*
X16584204Y28653212D01*
X16625361Y28860121D01*
X17292170Y29526930D01*
X17394617Y29595383D01*
X17509147Y29766788D01*
X17665808Y30001248D01*
X17694287Y30144423D01*
X17737000Y30359153D01*
X17737000Y30359156D01*
X17761037Y30479999D01*
X17737000Y30600842D01*
X17737000Y32287804D01*
X17854204Y32463212D01*
X17964956Y33020000D01*
X17854204Y33576788D01*
X17538809Y34048809D01*
X17066788Y34364204D01*
X16650544Y34447000D01*
X16369456Y34447000D01*
X15953212Y34364204D01*
X15481191Y34048809D01*
X15165796Y33576788D01*
X15055044Y33020000D01*
X15165796Y32463212D01*
X15283001Y32287803D01*
X15283000Y30988240D01*
X14890121Y30595361D01*
X14683212Y30554204D01*
X14211191Y30238809D01*
X13895796Y29766788D01*
X13785044Y29210000D01*
X13895796Y28653212D01*
X14013001Y28477803D01*
X14013000Y26332504D01*
X13945472Y26264976D01*
X13713000Y25703739D01*
X13713000Y25096261D01*
X13945472Y24535024D01*
X14013001Y24467495D01*
X14013000Y20281801D01*
X13981648Y20260852D01*
X13610446Y19705308D01*
X13480097Y19050000D01*
X13610446Y18394692D01*
X13981648Y17839148D01*
X14070169Y17780000D01*
X13981648Y17720852D01*
X13610446Y17165308D01*
X13480097Y16510000D01*
X13610446Y15854692D01*
X13831480Y15523890D01*
X13715863Y15446637D01*
X13555182Y15206161D01*
X13498758Y14922500D01*
X13498758Y13017500D01*
X13555182Y12733839D01*
X13715863Y12493363D01*
X13956339Y12332682D01*
X14240000Y12276258D01*
X16240000Y12276258D01*
X16523661Y12332682D01*
X16764137Y12493363D01*
X16924818Y12733839D01*
X16926640Y12743000D01*
X18541761Y12743000D01*
X18934639Y12350121D01*
X18975796Y12143212D01*
X19291191Y11671191D01*
X19763212Y11355796D01*
X20179456Y11273000D01*
X20460544Y11273000D01*
X20876788Y11355796D01*
X21052196Y11473000D01*
X22351761Y11473000D01*
X22394761Y11430000D01*
X20807831Y9843070D01*
X20705384Y9774617D01*
X20636930Y9672169D01*
X20636929Y9672168D01*
X20603119Y9621567D01*
X20328579Y9507849D01*
X19702151Y8881421D01*
X19685000Y8840015D01*
X19667849Y8881421D01*
X19041421Y9507849D01*
X18222952Y9846870D01*
X17337048Y9846870D01*
X16518579Y9507849D01*
X16197754Y9187024D01*
X16154688Y9403531D01*
X15994007Y9644007D01*
X15753531Y9804688D01*
X15469870Y9861112D01*
X12470130Y9861112D01*
X12186469Y9804688D01*
X11945993Y9644007D01*
X11785312Y9403531D01*
X11728888Y9119870D01*
X11728888Y6120130D01*
X11785312Y5836469D01*
X11945993Y5595993D01*
X12186469Y5435312D01*
X12470130Y5378888D01*
X12743001Y5378888D01*
X12743001Y5240977D01*
X12718963Y5120130D01*
X12814192Y4641380D01*
X12814193Y4641379D01*
X12814193Y4641378D01*
X12847074Y4592168D01*
X13016929Y4337962D01*
X13016931Y4337960D01*
X13085384Y4235513D01*
X13187831Y4167060D01*
X14327061Y3027828D01*
X14395513Y2925383D01*
X14497957Y2856932D01*
X14497961Y2856928D01*
X14696451Y2724302D01*
X14801378Y2654192D01*
X15159283Y2583000D01*
X15159287Y2583000D01*
X15280130Y2558963D01*
X15400973Y2583000D01*
X25279157Y2583000D01*
X25400000Y2558963D01*
X25520843Y2583000D01*
X25520847Y2583000D01*
X25878752Y2654192D01*
X26284617Y2925383D01*
X26353072Y3027833D01*
X27452170Y4126930D01*
X27554617Y4195383D01*
X27649886Y4337962D01*
X27825808Y4601248D01*
X27844380Y4694617D01*
X27897000Y4959153D01*
X27897000Y4959156D01*
X27921037Y5079999D01*
X27897000Y5200842D01*
X27897000Y5717893D01*
X27931421Y5732151D01*
X28305393Y6106123D01*
X29145728Y6106123D01*
X29305495Y5787368D01*
X30096217Y5477405D01*
X30945366Y5493633D01*
X31654505Y5787368D01*
X31814272Y6106123D01*
X30480000Y7440395D01*
X29145728Y6106123D01*
X28305393Y6106123D01*
X28557849Y6358579D01*
X28620609Y6510096D01*
X28647368Y6445495D01*
X28966123Y6285728D01*
X30300395Y7620000D01*
X30659605Y7620000D01*
X31993877Y6285728D01*
X32155130Y6366552D01*
X32155130Y5993820D01*
X32251803Y5760431D01*
X32430432Y5581803D01*
X32663821Y5485130D01*
X34004250Y5485130D01*
X34163000Y5643880D01*
X34163000Y7493000D01*
X34417000Y7493000D01*
X34417000Y5643880D01*
X34575750Y5485130D01*
X35916179Y5485130D01*
X36149568Y5581803D01*
X36328197Y5760431D01*
X36424870Y5993820D01*
X36424870Y7334250D01*
X36266120Y7493000D01*
X34417000Y7493000D01*
X34163000Y7493000D01*
X34143000Y7493000D01*
X34143000Y7747000D01*
X34163000Y7747000D01*
X34163000Y9596120D01*
X34417000Y9596120D01*
X34417000Y7747000D01*
X36266120Y7747000D01*
X36422968Y7903848D01*
X44293000Y7903848D01*
X44293000Y7336152D01*
X44510247Y6811669D01*
X44911669Y6410247D01*
X45436152Y6193000D01*
X46003848Y6193000D01*
X46528331Y6410247D01*
X46929753Y6811669D01*
X47147000Y7336152D01*
X47147000Y7620000D01*
X49345044Y7620000D01*
X49455796Y7063212D01*
X49771191Y6591191D01*
X50243212Y6275796D01*
X50659456Y6193000D01*
X50940544Y6193000D01*
X51356788Y6275796D01*
X51532196Y6393000D01*
X54407549Y6393000D01*
X54505863Y6245863D01*
X54746339Y6085182D01*
X55030000Y6028758D01*
X56730000Y6028758D01*
X57013661Y6085182D01*
X57254137Y6245863D01*
X57414818Y6486339D01*
X57428146Y6553342D01*
X57653076Y6348355D01*
X58063110Y6178524D01*
X58293000Y6299845D01*
X58293000Y7493000D01*
X58547000Y7493000D01*
X58547000Y6299845D01*
X58776890Y6178524D01*
X59186924Y6348355D01*
X59615183Y6738642D01*
X59861486Y7263108D01*
X59740819Y7493000D01*
X58547000Y7493000D01*
X58293000Y7493000D01*
X58273000Y7493000D01*
X58273000Y7747000D01*
X58293000Y7747000D01*
X58293000Y8940155D01*
X58547000Y8940155D01*
X58547000Y7747000D01*
X59740819Y7747000D01*
X59861486Y7976892D01*
X59615183Y8501358D01*
X59186924Y8891645D01*
X58776890Y9061476D01*
X58547000Y8940155D01*
X58293000Y8940155D01*
X58063110Y9061476D01*
X57653076Y8891645D01*
X57428146Y8686658D01*
X57414818Y8753661D01*
X57254137Y8994137D01*
X57013661Y9154818D01*
X56730000Y9211242D01*
X55030000Y9211242D01*
X54746339Y9154818D01*
X54505863Y8994137D01*
X54407549Y8847000D01*
X51532196Y8847000D01*
X51356788Y8964204D01*
X50940544Y9047000D01*
X50659456Y9047000D01*
X50243212Y8964204D01*
X49771191Y8648809D01*
X49455796Y8176788D01*
X49345044Y7620000D01*
X47147000Y7620000D01*
X47147000Y7903848D01*
X46947000Y8386693D01*
X46947000Y18264214D01*
X56543819Y18264214D01*
X56795111Y17867467D01*
X57857342Y17432336D01*
X59005233Y17436827D01*
X60044889Y17867467D01*
X60296181Y18264214D01*
X58420000Y20140395D01*
X56543819Y18264214D01*
X46947000Y18264214D01*
X46947000Y20882658D01*
X55532336Y20882658D01*
X55536827Y19734767D01*
X55967467Y18695111D01*
X56364214Y18443819D01*
X58240395Y20320000D01*
X58599605Y20320000D01*
X60475786Y18443819D01*
X60872533Y18695111D01*
X61307664Y19757342D01*
X61303173Y20905233D01*
X60872533Y21944889D01*
X60475786Y22196181D01*
X58599605Y20320000D01*
X58240395Y20320000D01*
X56364214Y22196181D01*
X55967467Y21944889D01*
X55532336Y20882658D01*
X46947000Y20882658D01*
X46947000Y22375786D01*
X56543819Y22375786D01*
X58420000Y20499605D01*
X60296181Y22375786D01*
X60044889Y22772533D01*
X58982658Y23207664D01*
X57834767Y23203173D01*
X56795111Y22772533D01*
X56543819Y22375786D01*
X46947000Y22375786D01*
X46947000Y23756008D01*
X46972000Y23881691D01*
X46972000Y24378310D01*
X46899358Y24743506D01*
X46622642Y25157642D01*
X46208505Y25434358D01*
X45720000Y25531528D01*
X45231494Y25434358D01*
X44817358Y25157642D01*
X44540642Y24743505D01*
X44468000Y24378309D01*
X44468000Y23881690D01*
X44493000Y23756006D01*
X44493001Y8386695D01*
X44293000Y7903848D01*
X36422968Y7903848D01*
X36424870Y7905750D01*
X36424870Y9246180D01*
X36328197Y9479569D01*
X36149568Y9658197D01*
X35916179Y9754870D01*
X34575750Y9754870D01*
X34417000Y9596120D01*
X34163000Y9596120D01*
X34004250Y9754870D01*
X32663821Y9754870D01*
X32430432Y9658197D01*
X32251803Y9479569D01*
X32155130Y9246180D01*
X32155130Y8873448D01*
X31993877Y8954272D01*
X30659605Y7620000D01*
X30300395Y7620000D01*
X28966123Y8954272D01*
X28647368Y8794505D01*
X28621347Y8728124D01*
X28557849Y8881421D01*
X28305393Y9133877D01*
X29145728Y9133877D01*
X30480000Y7799605D01*
X31814272Y9133877D01*
X31654505Y9452632D01*
X30863783Y9762595D01*
X30014634Y9746367D01*
X29305495Y9452632D01*
X29145728Y9133877D01*
X28305393Y9133877D01*
X27931421Y9507849D01*
X27112952Y9846870D01*
X26227048Y9846870D01*
X25408579Y9507849D01*
X24782151Y8881421D01*
X24443130Y8062952D01*
X24443130Y7177048D01*
X24782151Y6358579D01*
X25408579Y5732151D01*
X25443000Y5717893D01*
X25443000Y5588240D01*
X24891761Y5037000D01*
X15788370Y5037000D01*
X15446482Y5378888D01*
X15469870Y5378888D01*
X15753531Y5435312D01*
X15994007Y5595993D01*
X16154688Y5836469D01*
X16197754Y6052976D01*
X16518579Y5732151D01*
X17337048Y5393130D01*
X18222952Y5393130D01*
X19041421Y5732151D01*
X19667849Y6358579D01*
X19685000Y6399985D01*
X19702151Y6358579D01*
X20328579Y5732151D01*
X21147048Y5393130D01*
X22032952Y5393130D01*
X22851421Y5732151D01*
X23477849Y6358579D01*
X23816870Y7177048D01*
X23816870Y8062952D01*
X23477849Y8881421D01*
X23397255Y8962015D01*
X24416241Y9981001D01*
X24706297Y10038697D01*
X24952195Y10203000D01*
X27819157Y10203000D01*
X27940000Y10178963D01*
X28060843Y10203000D01*
X28060847Y10203000D01*
X28418752Y10274192D01*
X28824617Y10545383D01*
X28893072Y10647833D01*
X29418239Y11173000D01*
X29513739Y11173000D01*
X30074976Y11405472D01*
X30504528Y11835024D01*
X30737000Y12396261D01*
X30737000Y13003739D01*
X30504528Y13564976D01*
X30074976Y13994528D01*
X29513739Y14227000D01*
X28906261Y14227000D01*
X28345024Y13994528D01*
X27915472Y13564976D01*
X27683000Y13003739D01*
X27683000Y12908239D01*
X27431761Y12657000D01*
X24952195Y12657000D01*
X24706297Y12821303D01*
X24416240Y12878999D01*
X23813072Y13482167D01*
X23744617Y13584617D01*
X23338752Y13855808D01*
X22980847Y13927000D01*
X22980843Y13927000D01*
X22860000Y13951037D01*
X22739157Y13927000D01*
X21052196Y13927000D01*
X20876788Y14044204D01*
X20669879Y14085361D01*
X20003072Y14752167D01*
X19934617Y14854617D01*
X19528752Y15125808D01*
X19170847Y15197000D01*
X19170843Y15197000D01*
X19050000Y15221037D01*
X18929157Y15197000D01*
X16926640Y15197000D01*
X16924818Y15206161D01*
X16873476Y15283000D01*
X18929157Y15283000D01*
X19050000Y15258963D01*
X19170843Y15283000D01*
X19170847Y15283000D01*
X19528752Y15354192D01*
X19934617Y15625383D01*
X20003072Y15727833D01*
X20645487Y16370247D01*
X21086693Y16553000D01*
X22739157Y16553000D01*
X22860000Y16528963D01*
X22980843Y16553000D01*
X22980847Y16553000D01*
X23338752Y16624192D01*
X23440615Y16692255D01*
X28381861Y16692255D01*
X28455995Y16446136D01*
X28993223Y16253035D01*
X29563454Y16280222D01*
X29964005Y16446136D01*
X30038139Y16692255D01*
X29210000Y17520395D01*
X28381861Y16692255D01*
X23440615Y16692255D01*
X23744617Y16895383D01*
X23813072Y16997833D01*
X24373998Y17558758D01*
X24880000Y17558758D01*
X25163661Y17615182D01*
X25404137Y17775863D01*
X25498292Y17916777D01*
X27763035Y17916777D01*
X27790222Y17346546D01*
X27956136Y16945995D01*
X28202255Y16871861D01*
X29030395Y17700000D01*
X29389605Y17700000D01*
X30217745Y16871861D01*
X30463864Y16945995D01*
X30656965Y17483223D01*
X30629778Y18053454D01*
X30463864Y18454005D01*
X30217745Y18528139D01*
X29389605Y17700000D01*
X29030395Y17700000D01*
X28202255Y18528139D01*
X27956136Y18454005D01*
X27763035Y17916777D01*
X25498292Y17916777D01*
X25564818Y18016339D01*
X25621242Y18300000D01*
X25621242Y18707745D01*
X28381861Y18707745D01*
X29210000Y17879605D01*
X30038139Y18707745D01*
X29964005Y18953864D01*
X29426777Y19146965D01*
X28856546Y19119778D01*
X28455995Y18953864D01*
X28381861Y18707745D01*
X25621242Y18707745D01*
X25621242Y19800000D01*
X25564818Y20083661D01*
X25404137Y20324137D01*
X25357000Y20355633D01*
X25357000Y22574250D01*
X35295000Y22574250D01*
X35295000Y21833691D01*
X35391673Y21600302D01*
X35570301Y21421673D01*
X35803690Y21325000D01*
X36544250Y21325000D01*
X36703000Y21483750D01*
X36703000Y22733000D01*
X36957000Y22733000D01*
X36957000Y21483750D01*
X37115750Y21325000D01*
X37856310Y21325000D01*
X38089699Y21421673D01*
X38268327Y21600302D01*
X38365000Y21833691D01*
X38365000Y22574250D01*
X38206250Y22733000D01*
X36957000Y22733000D01*
X36703000Y22733000D01*
X35453750Y22733000D01*
X35295000Y22574250D01*
X25357000Y22574250D01*
X25357000Y25723630D01*
X35203000Y25723630D01*
X35203000Y25076370D01*
X35450696Y24478378D01*
X35613043Y24316031D01*
X35570301Y24298327D01*
X35391673Y24119698D01*
X35295000Y23886309D01*
X35295000Y23145750D01*
X35453750Y22987000D01*
X36703000Y22987000D01*
X36703000Y23007000D01*
X36957000Y23007000D01*
X36957000Y22987000D01*
X38206250Y22987000D01*
X38365000Y23145750D01*
X38365000Y23821578D01*
X42034702Y23821578D01*
X42192075Y23397254D01*
X42499851Y23065453D01*
X42874190Y22886036D01*
X43053000Y23011837D01*
X43053000Y24003000D01*
X43307000Y24003000D01*
X43307000Y23011837D01*
X43485810Y22886036D01*
X43860149Y23065453D01*
X44167925Y23397254D01*
X44325298Y23821578D01*
X44181141Y24003000D01*
X43307000Y24003000D01*
X43053000Y24003000D01*
X42178859Y24003000D01*
X42034702Y23821578D01*
X38365000Y23821578D01*
X38365000Y23886309D01*
X38268327Y24119698D01*
X38089699Y24298327D01*
X38046957Y24316031D01*
X38169348Y24438422D01*
X42034702Y24438422D01*
X42178859Y24257000D01*
X43053000Y24257000D01*
X43053000Y25248163D01*
X43307000Y25248163D01*
X43307000Y24257000D01*
X44181141Y24257000D01*
X44325298Y24438422D01*
X44167925Y24862746D01*
X43860149Y25194547D01*
X43485810Y25373964D01*
X43307000Y25248163D01*
X43053000Y25248163D01*
X42874190Y25373964D01*
X42499851Y25194547D01*
X42192075Y24862746D01*
X42034702Y24438422D01*
X38169348Y24438422D01*
X38209304Y24478378D01*
X38457000Y25076370D01*
X38457000Y25291761D01*
X41148240Y27983000D01*
X42447804Y27983000D01*
X42623212Y27865796D01*
X43039456Y27783000D01*
X43320544Y27783000D01*
X43736788Y27865796D01*
X44208809Y28181191D01*
X44524204Y28653212D01*
X44634956Y29210000D01*
X44524204Y29766788D01*
X44208809Y30238809D01*
X43736788Y30554204D01*
X43320544Y30637000D01*
X43039456Y30637000D01*
X42623212Y30554204D01*
X42447804Y30437000D01*
X40760843Y30437000D01*
X40640000Y30461037D01*
X40519157Y30437000D01*
X40519153Y30437000D01*
X40161248Y30365808D01*
X39755383Y30094617D01*
X39686930Y29992170D01*
X36721761Y27027000D01*
X36506370Y27027000D01*
X35908378Y26779304D01*
X35450696Y26321622D01*
X35203000Y25723630D01*
X25357000Y25723630D01*
X25357000Y29971761D01*
X27154033Y31768793D01*
X27363703Y31628697D01*
X27794529Y31543000D01*
X28085471Y31543000D01*
X28516297Y31628697D01*
X29004858Y31955142D01*
X29331303Y32443703D01*
X29389096Y32734250D01*
X34175000Y32734250D01*
X34175000Y32143690D01*
X34271673Y31910301D01*
X34450302Y31731673D01*
X34683691Y31635000D01*
X35274250Y31635000D01*
X35433000Y31793750D01*
X35433000Y32893000D01*
X35687000Y32893000D01*
X35687000Y31793750D01*
X35845750Y31635000D01*
X36436309Y31635000D01*
X36669698Y31731673D01*
X36848327Y31910301D01*
X36945000Y32143690D01*
X36945000Y32734250D01*
X36786250Y32893000D01*
X35687000Y32893000D01*
X35433000Y32893000D01*
X34333750Y32893000D01*
X34175000Y32734250D01*
X29389096Y32734250D01*
X29445936Y33020000D01*
X29331303Y33596297D01*
X29130842Y33896310D01*
X34175000Y33896310D01*
X34175000Y33305750D01*
X34333750Y33147000D01*
X35433000Y33147000D01*
X35433000Y34246250D01*
X35687000Y34246250D01*
X35687000Y33147000D01*
X36786250Y33147000D01*
X36945000Y33305750D01*
X36945000Y33896310D01*
X36848327Y34129699D01*
X36669698Y34308327D01*
X36436309Y34405000D01*
X35845750Y34405000D01*
X35687000Y34246250D01*
X35433000Y34246250D01*
X35274250Y34405000D01*
X34683691Y34405000D01*
X34450302Y34308327D01*
X34271673Y34129699D01*
X34175000Y33896310D01*
X29130842Y33896310D01*
X29004858Y34084858D01*
X28516297Y34411303D01*
X28226241Y34468999D01*
X26627000Y36068239D01*
X26627000Y37172255D01*
X27111861Y37172255D01*
X27185995Y36926136D01*
X27723223Y36733035D01*
X28293454Y36760222D01*
X28694005Y36926136D01*
X28768139Y37172255D01*
X27940000Y38000395D01*
X27111861Y37172255D01*
X26627000Y37172255D01*
X26627000Y37568762D01*
X26686136Y37425995D01*
X26932255Y37351861D01*
X27760395Y38180000D01*
X28119605Y38180000D01*
X28947745Y37351861D01*
X29193864Y37425995D01*
X29386965Y37963223D01*
X29366034Y38402255D01*
X34731861Y38402255D01*
X34805995Y38156136D01*
X35343223Y37963035D01*
X35913454Y37990222D01*
X36314005Y38156136D01*
X36388139Y38402255D01*
X35560000Y39230395D01*
X34731861Y38402255D01*
X29366034Y38402255D01*
X29359778Y38533454D01*
X29193864Y38934005D01*
X28947745Y39008139D01*
X28119605Y38180000D01*
X27760395Y38180000D01*
X26932255Y39008139D01*
X26686136Y38934005D01*
X26627000Y38769482D01*
X26627000Y39187745D01*
X27111861Y39187745D01*
X27940000Y38359605D01*
X28768139Y39187745D01*
X28694005Y39433864D01*
X28156777Y39626965D01*
X27586546Y39599778D01*
X27185995Y39433864D01*
X27111861Y39187745D01*
X26627000Y39187745D01*
X26627000Y40131761D01*
X27493437Y40998198D01*
X27720662Y40953000D01*
X27720666Y40953000D01*
X27939999Y40909372D01*
X28159332Y40953000D01*
X31969338Y40953000D01*
X32618932Y41082212D01*
X33355577Y41574423D01*
X33374672Y41603000D01*
X34013171Y41603000D01*
X34018758Y41574914D01*
X34018758Y41110000D01*
X34075182Y40826339D01*
X34235863Y40585863D01*
X34476339Y40425182D01*
X34504037Y40419673D01*
X34437378Y40353014D01*
X34552253Y40238139D01*
X34306136Y40164005D01*
X34113035Y39626777D01*
X34140222Y39056546D01*
X34306136Y38655995D01*
X34552255Y38581861D01*
X35380395Y39410000D01*
X35366252Y39424142D01*
X35545858Y39603748D01*
X35560000Y39589605D01*
X35574142Y39603748D01*
X35753748Y39424142D01*
X35739605Y39410000D01*
X36567745Y38581861D01*
X36813864Y38655995D01*
X37006965Y39193223D01*
X36979778Y39763454D01*
X36813864Y40164005D01*
X36567747Y40238139D01*
X36682622Y40353014D01*
X36615963Y40419673D01*
X36643661Y40425182D01*
X36670701Y40443250D01*
X45413000Y40443250D01*
X45413000Y39656750D01*
X45713980Y38930119D01*
X46270119Y38373980D01*
X46996750Y38073000D01*
X47631760Y38073000D01*
X48303001Y37401759D01*
X48303000Y33842195D01*
X48138697Y33596297D01*
X48024064Y33020000D01*
X48138697Y32443703D01*
X48303001Y32197804D01*
X48303000Y30988240D01*
X47934513Y30619753D01*
X47451669Y30419753D01*
X47050247Y30018331D01*
X46833000Y29493848D01*
X46833000Y28926152D01*
X47033001Y28443305D01*
X47033000Y24977283D01*
X46993758Y24780000D01*
X46993758Y23480000D01*
X47050182Y23196339D01*
X47210863Y22955863D01*
X47451339Y22795182D01*
X47735000Y22738758D01*
X48785000Y22738758D01*
X49068661Y22795182D01*
X49309137Y22955863D01*
X49469818Y23196339D01*
X49526242Y23480000D01*
X49526242Y24780000D01*
X49487000Y24977282D01*
X49487000Y28443307D01*
X49669753Y28884513D01*
X50312170Y29526930D01*
X50414617Y29595383D01*
X50529147Y29766788D01*
X50685808Y30001248D01*
X50714287Y30144423D01*
X50757000Y30359153D01*
X50757000Y30359156D01*
X50781037Y30479999D01*
X50757000Y30600842D01*
X50757000Y32197805D01*
X50921303Y32443703D01*
X51035936Y33020000D01*
X50921303Y33596297D01*
X50757000Y33842195D01*
X50757000Y37789158D01*
X50781037Y37910001D01*
X50757000Y38030844D01*
X50757000Y38030847D01*
X50685808Y38388752D01*
X50540485Y38606243D01*
X50483071Y38692169D01*
X50483070Y38692170D01*
X50414617Y38794617D01*
X50312170Y38863070D01*
X49367000Y39808240D01*
X49367000Y40443250D01*
X49066020Y41169881D01*
X48509881Y41726020D01*
X47783250Y42027000D01*
X46996750Y42027000D01*
X46270119Y41726020D01*
X45713980Y41169881D01*
X45413000Y40443250D01*
X36670701Y40443250D01*
X36884137Y40585863D01*
X37044818Y40826339D01*
X37101242Y41110000D01*
X37101242Y41574914D01*
X37137000Y41754682D01*
X37137000Y42584687D01*
X37167894Y42740003D01*
X37137000Y42895320D01*
X37137000Y42895321D01*
X37045501Y43355317D01*
X36696953Y43876955D01*
X36565280Y43964936D01*
X36344937Y44185279D01*
X36256955Y44316953D01*
X35735317Y44665501D01*
X35275321Y44757000D01*
X35275317Y44757000D01*
X35120002Y44787894D01*
X34964687Y44757000D01*
X33477000Y44757000D01*
X33477000Y45263000D01*
X35730091Y45263000D01*
X36233842Y45363202D01*
X36287055Y45398758D01*
X36410000Y45398758D01*
X36693661Y45455182D01*
X36934137Y45615863D01*
X37052625Y45793193D01*
X37484685Y45504499D01*
X37944681Y45413000D01*
X41874685Y45413000D01*
X42030000Y45382106D01*
X42185315Y45413000D01*
X42185319Y45413000D01*
X42645315Y45504499D01*
X43166953Y45853047D01*
X43254935Y45984721D01*
X47343215Y50073000D01*
X47782978Y50073000D01*
X48601494Y50412040D01*
X49227960Y51038506D01*
X49567000Y51857022D01*
X49567000Y52742978D01*
X49499979Y52904782D01*
X58163000Y44241760D01*
X58163001Y41618902D01*
X57713980Y41169881D01*
X57413000Y40443250D01*
X57413000Y39808240D01*
X56367831Y38763070D01*
X56265384Y38694617D01*
X56196931Y38592170D01*
X56196929Y38592168D01*
X55994192Y38288750D01*
X55898963Y37810000D01*
X55923001Y37689153D01*
X55923000Y34325633D01*
X55875863Y34294137D01*
X55715182Y34053661D01*
X55658758Y33770000D01*
X55658758Y32580695D01*
X55567000Y32672453D01*
X55567000Y38542978D01*
X55481417Y38749594D01*
X55437788Y38968932D01*
X55313544Y39154877D01*
X55227960Y39361494D01*
X55069821Y39519633D01*
X54945577Y39705577D01*
X54759633Y39829821D01*
X54601494Y39987960D01*
X54394877Y40073544D01*
X54208932Y40197788D01*
X53989594Y40241417D01*
X53782978Y40327000D01*
X53559338Y40327000D01*
X53340000Y40370629D01*
X53120662Y40327000D01*
X52897022Y40327000D01*
X52690405Y40241417D01*
X52471069Y40197788D01*
X52285126Y40073545D01*
X52078506Y39987960D01*
X51920365Y39829819D01*
X51734424Y39705577D01*
X51610182Y39519636D01*
X51452040Y39361494D01*
X51366455Y39154873D01*
X51242213Y38968932D01*
X51198585Y38749599D01*
X51113000Y38542978D01*
X51113000Y37657022D01*
X51113001Y37657020D01*
X51113000Y31969333D01*
X51069372Y31750000D01*
X51113000Y31530667D01*
X51113000Y31530663D01*
X51242212Y30881069D01*
X51734423Y30144423D01*
X51920370Y30020177D01*
X55428318Y26512228D01*
X55428318Y24419560D01*
X55484742Y24135899D01*
X55645423Y23895423D01*
X55885899Y23734742D01*
X56169560Y23678318D01*
X60670440Y23678318D01*
X60954101Y23734742D01*
X61194577Y23895423D01*
X61355258Y24135899D01*
X61411682Y24419560D01*
X61411682Y28920440D01*
X61355258Y29204101D01*
X61194577Y29444577D01*
X60954101Y29605258D01*
X60670440Y29661682D01*
X58577772Y29661682D01*
X56710695Y31528758D01*
X57900000Y31528758D01*
X58183661Y31585182D01*
X58424137Y31745863D01*
X58584818Y31986339D01*
X58641242Y32270000D01*
X58641242Y33770000D01*
X58584818Y34053661D01*
X58424137Y34294137D01*
X58377000Y34325633D01*
X58377000Y37301761D01*
X59148240Y38073000D01*
X59783250Y38073000D01*
X60509881Y38373980D01*
X61066020Y38930119D01*
X61367000Y39656750D01*
X61367000Y40443250D01*
X61066020Y41169881D01*
X60617000Y41618901D01*
X60617000Y44629157D01*
X60641037Y44750000D01*
X60617000Y44870843D01*
X60617000Y44870847D01*
X60545808Y45228752D01*
X60274617Y45634617D01*
X60172170Y45703070D01*
X53182262Y52692978D01*
X57163000Y52692978D01*
X57163000Y51807022D01*
X57502040Y50988506D01*
X58128506Y50362040D01*
X58947022Y50023000D01*
X59832978Y50023000D01*
X60651494Y50362040D01*
X61277960Y50988506D01*
X61617000Y51807022D01*
X61617000Y52692978D01*
X61277960Y53511494D01*
X60651494Y54137960D01*
X59832978Y54477000D01*
X58947022Y54477000D01*
X58128506Y54137960D01*
X57502040Y53511494D01*
X57163000Y52692978D01*
X53182262Y52692978D01*
X49213072Y56662167D01*
X49144617Y56764617D01*
X48738752Y57035808D01*
X48380847Y57107000D01*
X48380843Y57107000D01*
X48260000Y57131037D01*
X48139157Y57107000D01*
X45840842Y57107000D01*
X45719999Y57131037D01*
X45599156Y57107000D01*
X45599153Y57107000D01*
X45281175Y57043750D01*
X45241248Y57035808D01*
X45027574Y56893035D01*
X44835383Y56764617D01*
X44766930Y56662170D01*
X42671761Y54567000D01*
X33608534Y54567000D01*
X33355577Y54945577D01*
X32618932Y55437788D01*
X31969338Y55567000D01*
X19357000Y55567000D01*
X19357000Y56035319D01*
X19321242Y56215086D01*
X19321242Y56680000D01*
X19264818Y56963661D01*
X19104137Y57204137D01*
X18912395Y57332255D01*
X24571861Y57332255D01*
X24645995Y57086136D01*
X25183223Y56893035D01*
X25753454Y56920222D01*
X26154005Y57086136D01*
X26228139Y57332255D01*
X25400000Y58160395D01*
X24571861Y57332255D01*
X18912395Y57332255D01*
X18863661Y57364818D01*
X18835963Y57370327D01*
X18902622Y57436986D01*
X18787747Y57551861D01*
X19033864Y57625995D01*
X19226965Y58163223D01*
X19208202Y58556777D01*
X23953035Y58556777D01*
X23980222Y57986546D01*
X24146136Y57585995D01*
X24392255Y57511861D01*
X25220395Y58340000D01*
X25579605Y58340000D01*
X26407745Y57511861D01*
X26653864Y57585995D01*
X26846965Y58123223D01*
X26819778Y58693454D01*
X26815473Y58703848D01*
X30323000Y58703848D01*
X30323000Y58136152D01*
X30540247Y57611669D01*
X30941669Y57210247D01*
X31466152Y56993000D01*
X32033848Y56993000D01*
X32516693Y57193000D01*
X37026074Y57193000D01*
X37178378Y57040696D01*
X37776370Y56793000D01*
X38423630Y56793000D01*
X39021622Y57040696D01*
X39183969Y57203043D01*
X39201673Y57160301D01*
X39380302Y56981673D01*
X39613691Y56885000D01*
X40354250Y56885000D01*
X40513000Y57043750D01*
X40513000Y58293000D01*
X40767000Y58293000D01*
X40767000Y57043750D01*
X40925750Y56885000D01*
X41666309Y56885000D01*
X41899698Y56981673D01*
X42078327Y57160301D01*
X42175000Y57393690D01*
X42175000Y58134250D01*
X42016250Y58293000D01*
X40767000Y58293000D01*
X40513000Y58293000D01*
X40493000Y58293000D01*
X40493000Y58547000D01*
X40513000Y58547000D01*
X40513000Y59796250D01*
X40767000Y59796250D01*
X40767000Y58547000D01*
X42016250Y58547000D01*
X42175000Y58705750D01*
X42175000Y59446310D01*
X42078327Y59679699D01*
X41899698Y59858327D01*
X41666309Y59955000D01*
X40925750Y59955000D01*
X40767000Y59796250D01*
X40513000Y59796250D01*
X40354250Y59955000D01*
X39613691Y59955000D01*
X39380302Y59858327D01*
X39201673Y59679699D01*
X39183969Y59636957D01*
X39021622Y59799304D01*
X38423630Y60047000D01*
X37776370Y60047000D01*
X37178378Y59799304D01*
X37026074Y59647000D01*
X32516693Y59647000D01*
X32033848Y59847000D01*
X31466152Y59847000D01*
X30941669Y59629753D01*
X30540247Y59228331D01*
X30323000Y58703848D01*
X26815473Y58703848D01*
X26653864Y59094005D01*
X26407745Y59168139D01*
X25579605Y58340000D01*
X25220395Y58340000D01*
X24392255Y59168139D01*
X24146136Y59094005D01*
X23953035Y58556777D01*
X19208202Y58556777D01*
X19199778Y58733454D01*
X19033864Y59134005D01*
X18787745Y59208139D01*
X17959605Y58380000D01*
X17973748Y58365858D01*
X17794142Y58186252D01*
X17780000Y58200395D01*
X17765858Y58186252D01*
X17586252Y58365858D01*
X17600395Y58380000D01*
X16772255Y59208139D01*
X16526136Y59134005D01*
X16333035Y58596777D01*
X16360222Y58026546D01*
X16526136Y57625995D01*
X16772253Y57551861D01*
X16657378Y57436986D01*
X16724037Y57370327D01*
X16696339Y57364818D01*
X16455863Y57204137D01*
X16295182Y56963661D01*
X16238758Y56680000D01*
X16238758Y56215085D01*
X16203000Y56035318D01*
X16203000Y55567000D01*
X15559339Y55567000D01*
X15340001Y55610629D01*
X15120663Y55567000D01*
X12143735Y55567000D01*
X11846584Y55864151D01*
X10752250Y56317440D01*
X9567750Y56317440D01*
X8473416Y55864151D01*
X7635849Y55026584D01*
X7182560Y53932250D01*
X7182560Y52747750D01*
X7635849Y51653416D01*
X8473416Y50815849D01*
X8615490Y50757000D01*
X7740842Y50757000D01*
X7619999Y50781037D01*
X7499156Y50757000D01*
X7499153Y50757000D01*
X7141248Y50685808D01*
X6735383Y50414617D01*
X6666930Y50312169D01*
X5567831Y49213070D01*
X5465384Y49144617D01*
X5396931Y49042170D01*
X5396929Y49042168D01*
X5267347Y48848235D01*
X5200260Y48747831D01*
X5194192Y48738750D01*
X5098963Y48260000D01*
X1397000Y48260000D01*
X1397000Y59404250D01*
X7274560Y59404250D01*
X7274560Y57313251D01*
X7371233Y57079862D01*
X7549861Y56901233D01*
X7783250Y56804560D01*
X9874250Y56804560D01*
X10033000Y56963310D01*
X10033000Y59563000D01*
X10287000Y59563000D01*
X10287000Y56963310D01*
X10445750Y56804560D01*
X12536750Y56804560D01*
X12770139Y56901233D01*
X12948767Y57079862D01*
X13045440Y57313251D01*
X13045440Y59387745D01*
X16951861Y59387745D01*
X17780000Y58559605D01*
X18568139Y59347745D01*
X24571861Y59347745D01*
X25400000Y58519605D01*
X26228139Y59347745D01*
X26154005Y59593864D01*
X25616777Y59786965D01*
X25046546Y59759778D01*
X24645995Y59593864D01*
X24571861Y59347745D01*
X18568139Y59347745D01*
X18608139Y59387745D01*
X18534005Y59633864D01*
X17996777Y59826965D01*
X17426546Y59799778D01*
X17025995Y59633864D01*
X16951861Y59387745D01*
X13045440Y59387745D01*
X13045440Y59404250D01*
X12886690Y59563000D01*
X10287000Y59563000D01*
X10033000Y59563000D01*
X7433310Y59563000D01*
X7274560Y59404250D01*
X1397000Y59404250D01*
X1397000Y62066749D01*
X7274560Y62066749D01*
X7274560Y59975750D01*
X7433310Y59817000D01*
X10033000Y59817000D01*
X10033000Y62416690D01*
X10287000Y62416690D01*
X10287000Y59817000D01*
X12886690Y59817000D01*
X13045440Y59975750D01*
X13045440Y62066749D01*
X12948767Y62300138D01*
X12770139Y62478767D01*
X12536750Y62575440D01*
X10445750Y62575440D01*
X10287000Y62416690D01*
X10033000Y62416690D01*
X9874250Y62575440D01*
X7783250Y62575440D01*
X7549861Y62478767D01*
X7371233Y62300138D01*
X7274560Y62066749D01*
X1397000Y62066749D01*
X1397000Y65913000D01*
X65913000Y65913000D01*
X65913000Y1397000D01*
G04 #@! TD*
M02*
