M48
;DRILL file {KiCad 5.0.2+dfsg1-1~bpo9+1} date Fri 05 Jul 2019 05:02:48 PM -03
;FORMAT={-:-/ absolute / metric / decimal}
FMAT,2
METRIC,TZ
T1C0.700
T2C0.750
T3C0.800
T4C0.900
T5C1.000
T6C1.100
T7C1.199
T8C1.300
T9C1.500
T10C1.999
%
G90
G05
T1
X45.72Y7.62
X50.8Y7.62
X20.32Y17.78
X20.32Y12.7
X10.16Y29.21
X15.24Y29.21
X16.51Y38.1
X16.51Y33.02
X43.18Y29.21
X48.26Y29.21
X21.59Y38.1
X21.59Y33.02
X31.75Y58.42
X31.75Y53.34
T2
X27.94Y33.02
X35.56Y33.02
X24.13Y19.05
X24.13Y11.43
X43.18Y24.13
X45.72Y24.13
X48.26Y24.13
X10.16Y36.83
X10.16Y34.29
X10.16Y31.75
X49.53Y33.02
X57.15Y33.02
T3
X35.56Y41.91
X35.56Y39.41
X10.24Y25.4
X15.24Y25.4
X27.94Y43.18
X27.94Y38.18
X17.78Y58.38
X17.78Y55.88
X29.21Y17.7
X29.21Y12.7
X25.4Y58.34
X25.4Y53.34
T4
X36.83Y25.4
X36.83Y22.86
X38.1Y58.42
X40.64Y58.42
T5
X55.88Y7.62
X58.42Y7.62
X47.39Y40.05
X59.39Y40.05
X35.56Y46.99
X38.1Y46.99
T6
X15.24Y19.05
X15.24Y16.51
X15.24Y13.97
T7
X26.67Y7.62
X30.48Y7.62
X34.29Y7.62
X13.97Y7.62
X17.78Y7.62
X21.59Y7.62
T8
X47.34Y52.3
X53.34Y38.1
X59.39Y52.25
T9
X10.16Y44.45
X15.635Y44.45
X21.11Y44.45
T10
X10.16Y59.69
X10.16Y53.34
X58.42Y26.67
X58.42Y20.32
T0
M30
